<?xml version="1.0" encoding="UTF-8" standalone="no"?>
<!DOCTYPE svg PUBLIC "-//W3C//DTD SVG 1.1//EN"
 "http://www.w3.org/Graphics/SVG/1.1/DTD/svg11.dtd">
<!-- Generated by graphviz version 2.26.3 (20100126.1600)
 -->
<!-- Title: G Pages: 1 -->
<svg width="920pt" height="1560pt"
 viewBox="0.00 0.00 920.00 1560.00" xmlns="http://www.w3.org/2000/svg" xmlns:xlink="http://www.w3.org/1999/xlink">
<g id="graph1" class="graph" transform="scale(1 1) rotate(0) translate(4 1556)">
<title>G</title>
<polygon fill="white" stroke="white" points="-4,5 -4,-1556 917,-1556 917,5 -4,5"/>
<g id="graph2" class="cluster"><title>cluster_Global</title>
<polyline fill="none" stroke="gray" points="372,-444 892,-444 "/>
<path fill="none" stroke="gray" d="M892,-444C898,-444 904,-450 904,-456"/>
<polyline fill="none" stroke="gray" points="904,-456 904,-1532 "/>
<path fill="none" stroke="gray" d="M904,-1532C904,-1538 898,-1544 892,-1544"/>
<polyline fill="none" stroke="gray" points="892,-1544 372,-1544 "/>
<path fill="none" stroke="gray" d="M372,-1544C366,-1544 360,-1538 360,-1532"/>
<polyline fill="none" stroke="gray" points="360,-1532 360,-456 "/>
<path fill="none" stroke="gray" d="M360,-456C360,-450 366,-444 372,-444"/>
<text text-anchor="middle" x="632" y="-1530.1" font-family="Times Roman,serif" font-size="11.00" fill="gray">Global</text>
</g>
<!-- \\ElasticsearchArticleFixture -->
<g id="node2" class="node"><title>\\ElasticsearchArticleFixture</title>
<polygon fill="none" stroke="black" points="885,-920 687,-920 687,-884 885,-884 885,-920"/>
<text text-anchor="middle" x="786" y="-899.1" font-family="Courier,monospace" font-size="11.00">ElasticsearchArticleFixture</text>
</g>
<!-- \\HttpSourceTestFixture -->
<g id="node25" class="node"><title>\\HttpSourceTestFixture</title>
<ellipse fill="none" stroke="black" cx="437" cy="-418" rx="123.951" ry="18.3848"/>
<text text-anchor="middle" x="437" y="-414.4" font-family="Times Roman,serif" font-size="14.00" fill="gray">\HttpSourceTestFixture</text>
</g>
<!-- \\ElasticsearchArticleFixture&#45;&gt;\\HttpSourceTestFixture -->
<g id="edge3" class="edge"><title>\\ElasticsearchArticleFixture&#45;&gt;\\HttpSourceTestFixture</title>
<path fill="none" stroke="black" d="M686.141,-883.861C682.482,-881.258 679.073,-878.318 676,-875 542.845,-731.224 744.838,-576.259 604,-440 594.454,-430.764 583.037,-424.113 570.716,-419.42"/>
<polygon fill="none" stroke="black" points="571.726,-416.068 561.133,-416.203 569.499,-422.704 571.726,-416.068"/>
</g>
<!-- \\ElasticsearchIndexFixture -->
<g id="node3" class="node"><title>\\ElasticsearchIndexFixture</title>
<polygon fill="none" stroke="black" points="878,-1028 694,-1028 694,-992 878,-992 878,-1028"/>
<text text-anchor="middle" x="786" y="-1007.1" font-family="Courier,monospace" font-size="11.00">ElasticsearchIndexFixture</text>
</g>
<!-- \\ElasticsearchIndexFixture&#45;&gt;\\HttpSourceTestFixture -->
<g id="edge5" class="edge"><title>\\ElasticsearchIndexFixture&#45;&gt;\\HttpSourceTestFixture</title>
<path fill="none" stroke="black" d="M693.404,-996.711C686.92,-993.07 680.988,-988.563 676,-983 513.479,-801.747 776.215,-612.069 604,-440 594.439,-430.447 582.886,-423.626 570.374,-418.862"/>
<polygon fill="none" stroke="black" points="571.229,-415.458 560.635,-415.609 569.011,-422.097 571.229,-415.458"/>
</g>
<!-- \\ElasticsearchAliasFixture -->
<g id="node4" class="node"><title>\\ElasticsearchAliasFixture</title>
<polygon fill="none" stroke="black" points="878,-974 694,-974 694,-938 878,-938 878,-974"/>
<text text-anchor="middle" x="786" y="-953.1" font-family="Courier,monospace" font-size="11.00">ElasticsearchAliasFixture</text>
</g>
<!-- \\ElasticsearchAliasFixture&#45;&gt;\\HttpSourceTestFixture -->
<g id="edge7" class="edge"><title>\\ElasticsearchAliasFixture&#45;&gt;\\HttpSourceTestFixture</title>
<path fill="none" stroke="black" d="M693.49,-942.633C686.987,-939.009 681.028,-934.527 676,-929 528.176,-766.501 760.511,-594.149 604,-440 594.453,-430.597 582.974,-423.856 570.56,-419.124"/>
<polygon fill="none" stroke="black" points="571.495,-415.746 560.901,-415.887 569.27,-422.383 571.495,-415.746"/>
</g>
<!-- \\ElasticsearchTest -->
<g id="node5" class="node"><title>\\ElasticsearchTest</title>
<polygon fill="none" stroke="black" points="503,-1136 371,-1136 371,-1100 503,-1100 503,-1136"/>
<text text-anchor="start" x="403" y="-1123.43" font-family="Courier,monospace" font-size="11.00">«abstract»</text>
<text text-anchor="start" x="379.5" y="-1110.23" font-family="Courier,monospace" font-size="11.00">ElasticsearchTest</text>
</g>
<!-- \\CakeTestCase -->
<g id="node29" class="node"><title>\\CakeTestCase</title>
<ellipse fill="none" stroke="black" cx="99" cy="-372" rx="82.0244" ry="18.3848"/>
<text text-anchor="middle" x="99" y="-368.4" font-family="Times Roman,serif" font-size="14.00" fill="gray">\CakeTestCase</text>
</g>
<!-- \\ElasticsearchTest&#45;&gt;\\CakeTestCase -->
<g id="edge9" class="edge"><title>\\ElasticsearchTest&#45;&gt;\\CakeTestCase</title>
<path fill="none" stroke="black" d="M370.632,-1125.88C336.602,-1126.19 296.794,-1120.22 270,-1096 163.156,-999.432 112.692,-521.65 101.463,-400.145"/>
<polygon fill="none" stroke="black" points="104.944,-399.78 100.553,-390.138 97.9732,-400.414 104.944,-399.78"/>
</g>
<!-- \\ElasticsearchIndicesStatusTest -->
<g id="node6" class="node"><title>\\ElasticsearchIndicesStatusTest</title>
<polygon fill="none" stroke="black" points="895,-1082 677,-1082 677,-1046 895,-1046 895,-1082"/>
<text text-anchor="middle" x="786" y="-1061.1" font-family="Courier,monospace" font-size="11.00">ElasticsearchIndicesStatusTest</text>
</g>
<!-- \\ElasticsearchIndicesStatusTest&#45;&gt;\\ElasticsearchTest -->
<g id="edge11" class="edge"><title>\\ElasticsearchIndicesStatusTest&#45;&gt;\\ElasticsearchTest</title>
<path fill="none" stroke="black" d="M687.895,-1082.05C660.758,-1086.82 631.27,-1091.81 604,-1096 574.525,-1100.53 542.033,-1104.94 513.604,-1108.61"/>
<polygon fill="none" stroke="black" points="512.802,-1105.19 503.328,-1109.93 513.692,-1112.13 512.802,-1105.19"/>
</g>
<!-- \\ElasticsearchDocumentTest -->
<g id="node7" class="node"><title>\\ElasticsearchDocumentTest</title>
<polygon fill="none" stroke="black" points="878,-1244 694,-1244 694,-1208 878,-1208 878,-1244"/>
<text text-anchor="middle" x="786" y="-1223.1" font-family="Courier,monospace" font-size="11.00">ElasticsearchDocumentTest</text>
</g>
<!-- \\ElasticsearchDocumentTest&#45;&gt;\\ElasticsearchTest -->
<g id="edge13" class="edge"><title>\\ElasticsearchDocumentTest&#45;&gt;\\ElasticsearchTest</title>
<path fill="none" stroke="black" d="M708.845,-1207.96C697.782,-1205.11 686.572,-1202.08 676,-1199 613.829,-1180.87 543.771,-1156.67 495.663,-1139.46"/>
<polygon fill="none" stroke="black" points="496.636,-1136.09 486.042,-1136 494.271,-1142.68 496.636,-1136.09"/>
</g>
<!-- \\ElasticsearchIndexTest -->
<g id="node8" class="node"><title>\\ElasticsearchIndexTest</title>
<polygon fill="none" stroke="black" points="868,-1190 704,-1190 704,-1154 868,-1154 868,-1190"/>
<text text-anchor="middle" x="786" y="-1169.1" font-family="Courier,monospace" font-size="11.00">ElasticsearchIndexTest</text>
</g>
<!-- \\ElasticsearchIndexTest&#45;&gt;\\ElasticsearchTest -->
<g id="edge15" class="edge"><title>\\ElasticsearchIndexTest&#45;&gt;\\ElasticsearchTest</title>
<path fill="none" stroke="black" d="M703.292,-1159.2C645.58,-1150.27 569.143,-1138.45 512.969,-1129.75"/>
<polygon fill="none" stroke="black" points="513.496,-1126.29 503.079,-1128.22 512.426,-1133.21 513.496,-1126.29"/>
</g>
<!-- \\ElasticsearchAliasTest -->
<g id="node9" class="node"><title>\\ElasticsearchAliasTest</title>
<polygon fill="none" stroke="black" points="868,-1136 704,-1136 704,-1100 868,-1100 868,-1136"/>
<text text-anchor="middle" x="786" y="-1115.1" font-family="Courier,monospace" font-size="11.00">ElasticsearchAliasTest</text>
</g>
<!-- \\ElasticsearchAliasTest&#45;&gt;\\ElasticsearchTest -->
<g id="edge17" class="edge"><title>\\ElasticsearchAliasTest&#45;&gt;\\ElasticsearchTest</title>
<path fill="none" stroke="black" d="M703.292,-1118C645.7,-1118 569.459,-1118 513.318,-1118"/>
<polygon fill="none" stroke="black" points="513.079,-1114.5 503.079,-1118 513.079,-1121.5 513.079,-1114.5"/>
</g>
<!-- \\ElasticsearchSourceTest -->
<g id="node10" class="node"><title>\\ElasticsearchSourceTest</title>
<polygon fill="none" stroke="black" points="872,-866 700,-866 700,-830 872,-830 872,-866"/>
<text text-anchor="middle" x="786" y="-845.1" font-family="Courier,monospace" font-size="11.00">ElasticsearchSourceTest</text>
</g>
<!-- \\ElasticsearchSourceTest&#45;&gt;\\CakeTestCase -->
<g id="edge19" class="edge"><title>\\ElasticsearchSourceTest&#45;&gt;\\CakeTestCase</title>
<path fill="none" stroke="black" d="M699.94,-837.688C690.959,-833.629 682.688,-828.207 676,-821 544.201,-678.956 749.519,-518.952 604,-391 573.789,-364.436 327.653,-366.183 190.497,-369.309"/>
<polygon fill="none" stroke="black" points="190.324,-365.812 180.409,-369.546 190.489,-372.81 190.324,-365.812"/>
</g>
<!-- \\ElasticsearchControllerTest -->
<g id="node11" class="node"><title>\\ElasticsearchControllerTest</title>
<polygon fill="none" stroke="black" points="885,-812 687,-812 687,-776 885,-776 885,-812"/>
<text text-anchor="middle" x="786" y="-791.1" font-family="Courier,monospace" font-size="11.00">ElasticsearchControllerTest</text>
</g>
<!-- \\ControllerTestCase -->
<g id="node36" class="node"><title>\\ControllerTestCase</title>
<ellipse fill="none" stroke="black" cx="437" cy="-326" rx="106.773" ry="18.3848"/>
<text text-anchor="middle" x="437" y="-322.4" font-family="Times Roman,serif" font-size="14.00" fill="gray">\ControllerTestCase</text>
</g>
<!-- \\ElasticsearchControllerTest&#45;&gt;\\ControllerTestCase -->
<g id="edge21" class="edge"><title>\\ElasticsearchControllerTest&#45;&gt;\\ControllerTestCase</title>
<path fill="none" stroke="black" d="M686.183,-775.822C682.513,-773.23 679.09,-770.303 676,-767 549.894,-632.224 733.526,-489.492 604,-358 590.328,-344.12 572.607,-335.27 553.832,-329.779"/>
<polygon fill="none" stroke="black" points="554.493,-326.335 543.934,-327.205 552.731,-333.109 554.493,-326.335"/>
</g>
<!-- \\AllElasticsearchSourceTest -->
<g id="node12" class="node"><title>\\AllElasticsearchSourceTest</title>
<polygon fill="none" stroke="black" points="882,-758 690,-758 690,-722 882,-722 882,-758"/>
<text text-anchor="middle" x="786" y="-737.1" font-family="Courier,monospace" font-size="11.00">AllElasticsearchSourceTest</text>
</g>
<!-- \\PHPUnit_Framework_TestSuite -->
<g id="node38" class="node"><title>\\PHPUnit_Framework_TestSuite</title>
<ellipse fill="none" stroke="black" cx="437" cy="-272" rx="166.877" ry="18.3848"/>
<text text-anchor="middle" x="437" y="-268.4" font-family="Times Roman,serif" font-size="14.00" fill="gray">\PHPUnit_Framework_TestSuite</text>
</g>
<!-- \\AllElasticsearchSourceTest&#45;&gt;\\PHPUnit_Framework_TestSuite -->
<g id="edge23" class="edge"><title>\\AllElasticsearchSourceTest&#45;&gt;\\PHPUnit_Framework_TestSuite</title>
<path fill="none" stroke="black" d="M689.591,-724.107C684.619,-720.984 680.026,-717.312 676,-713 548.539,-576.494 736.844,-430.272 604,-299 599.087,-294.146 593.668,-289.955 587.877,-286.348"/>
<polygon fill="none" stroke="black" points="589.579,-283.289 579.142,-281.47 586.166,-289.401 589.579,-283.289"/>
</g>
<!-- \\ElasticsearchHelperTest -->
<g id="node13" class="node"><title>\\ElasticsearchHelperTest</title>
<polygon fill="none" stroke="black" points="872,-704 700,-704 700,-668 872,-668 872,-704"/>
<text text-anchor="middle" x="786" y="-683.1" font-family="Courier,monospace" font-size="11.00">ElasticsearchHelperTest</text>
</g>
<!-- \\ElasticsearchHelperTest&#45;&gt;\\CakeTestCase -->
<g id="edge25" class="edge"><title>\\ElasticsearchHelperTest&#45;&gt;\\CakeTestCase</title>
<path fill="none" stroke="black" d="M699.984,-675.647C690.995,-671.595 682.71,-666.186 676,-659 548.539,-522.494 746.927,-365.216 604,-245 547.198,-197.224 340.468,-221.694 270,-245 209.475,-265.017 152.922,-315.666 122.438,-346.614"/>
<polygon fill="none" stroke="black" points="119.702,-344.408 115.263,-354.027 124.732,-349.276 119.702,-344.408"/>
</g>
<!-- \\ElasticsearchIndicesStatus -->
<g id="node14" class="node"><title>\\ElasticsearchIndicesStatus</title>
<polygon fill="none" stroke="black" points="882,-1514 690,-1514 690,-1478 882,-1478 882,-1514"/>
<text text-anchor="middle" x="786" y="-1493.1" font-family="Courier,monospace" font-size="11.00">ElasticsearchIndicesStatus</text>
</g>
<!-- \\ElasticsearchModel -->
<g id="node20" class="node"><title>\\ElasticsearchModel</title>
<polygon fill="none" stroke="black" points="506,-1406 368,-1406 368,-1370 506,-1370 506,-1406"/>
<text text-anchor="middle" x="437" y="-1385.1" font-family="Courier,monospace" font-size="11.00">ElasticsearchModel</text>
</g>
<!-- \\ElasticsearchIndicesStatus&#45;&gt;\\ElasticsearchModel -->
<g id="edge27" class="edge"><title>\\ElasticsearchIndicesStatus&#45;&gt;\\ElasticsearchModel</title>
<path fill="none" stroke="black" d="M708.845,-1477.96C697.782,-1475.11 686.572,-1472.08 676,-1469 613.829,-1450.87 543.771,-1426.67 495.663,-1409.46"/>
<polygon fill="none" stroke="black" points="496.636,-1406.09 486.042,-1406 494.271,-1412.68 496.636,-1406.09"/>
</g>
<!-- \\ElasticsearchDocument -->
<g id="node15" class="node"><title>\\ElasticsearchDocument</title>
<polygon fill="none" stroke="black" points="865,-1460 707,-1460 707,-1424 865,-1424 865,-1460"/>
<text text-anchor="middle" x="786" y="-1439.1" font-family="Courier,monospace" font-size="11.00">ElasticsearchDocument</text>
</g>
<!-- \\ElasticsearchDocument&#45;&gt;\\ElasticsearchModel -->
<g id="edge29" class="edge"><title>\\ElasticsearchDocument&#45;&gt;\\ElasticsearchModel</title>
<path fill="none" stroke="black" d="M706.806,-1429.75C649.795,-1420.93 573.205,-1409.07 516.194,-1400.25"/>
<polygon fill="none" stroke="black" points="516.563,-1396.77 506.145,-1398.7 515.492,-1403.69 516.563,-1396.77"/>
</g>
<!-- \\ElasticsearchAlias -->
<g id="node16" class="node"><title>\\ElasticsearchAlias</title>
<polygon fill="none" stroke="black" points="855,-1406 717,-1406 717,-1370 855,-1370 855,-1406"/>
<text text-anchor="middle" x="786" y="-1385.1" font-family="Courier,monospace" font-size="11.00">ElasticsearchAlias</text>
</g>
<!-- \\ElasticsearchAlias&#45;&gt;\\ElasticsearchModel -->
<g id="edge31" class="edge"><title>\\ElasticsearchAlias&#45;&gt;\\ElasticsearchModel</title>
<path fill="none" stroke="black" d="M716.632,-1388C658.941,-1388 576.81,-1388 516.48,-1388"/>
<polygon fill="none" stroke="black" points="516.237,-1384.5 506.237,-1388 516.237,-1391.5 516.237,-1384.5"/>
</g>
<!-- \\ElasticsearchConnection -->
<g id="node17" class="node"><title>\\ElasticsearchConnection</title>
<polygon fill="none" stroke="black" points="872,-650 700,-650 700,-614 872,-614 872,-650"/>
<text text-anchor="middle" x="786" y="-629.1" font-family="Courier,monospace" font-size="11.00">ElasticsearchConnection</text>
</g>
<!-- \\HttpSourceConnection -->
<g id="node44" class="node"><title>\\HttpSourceConnection</title>
<ellipse fill="none" stroke="black" cx="437" cy="-180" rx="125.158" ry="18.3848"/>
<text text-anchor="middle" x="437" y="-176.4" font-family="Times Roman,serif" font-size="14.00" fill="gray">\HttpSourceConnection</text>
</g>
<!-- \\ElasticsearchConnection&#45;&gt;\\HttpSourceConnection -->
<g id="edge33" class="edge"><title>\\ElasticsearchConnection&#45;&gt;\\HttpSourceConnection</title>
<path fill="none" stroke="black" d="M699.777,-621.467C690.881,-617.439 682.675,-612.084 676,-605 554.227,-475.757 729.052,-338.073 604,-212 593.612,-201.527 580.917,-193.924 567.21,-188.468"/>
<polygon fill="none" stroke="black" points="568.171,-185.094 557.576,-185.025 565.815,-191.686 568.171,-185.094"/>
</g>
<!-- \\ElasticsearchSource -->
<g id="node18" class="node"><title>\\ElasticsearchSource</title>
<polygon fill="none" stroke="black" points="858,-596 714,-596 714,-560 858,-560 858,-596"/>
<text text-anchor="middle" x="786" y="-575.1" font-family="Courier,monospace" font-size="11.00">ElasticsearchSource</text>
</g>
<!-- \\HttpSource -->
<g id="node46" class="node"><title>\\HttpSource</title>
<ellipse fill="none" stroke="black" cx="437" cy="-126" rx="70.0036" ry="18.3848"/>
<text text-anchor="middle" x="437" y="-122.4" font-family="Times Roman,serif" font-size="14.00" fill="gray">\HttpSource</text>
</g>
<!-- \\ElasticsearchSource&#45;&gt;\\HttpSource -->
<g id="edge35" class="edge"><title>\\ElasticsearchSource&#45;&gt;\\HttpSource</title>
<path fill="none" stroke="black" d="M713.373,-572.54C699.363,-568.331 685.967,-561.602 676,-551 552.873,-420.029 732.291,-278.917 604,-153 580.358,-129.796 545.13,-121.797 513.115,-120.11"/>
<polygon fill="none" stroke="black" points="512.962,-116.604 502.853,-119.773 512.732,-123.6 512.962,-116.604"/>
</g>
<!-- \\ElasticsearchIndex -->
<g id="node19" class="node"><title>\\ElasticsearchIndex</title>
<polygon fill="none" stroke="black" points="855,-1352 717,-1352 717,-1316 855,-1316 855,-1352"/>
<text text-anchor="middle" x="786" y="-1331.1" font-family="Courier,monospace" font-size="11.00">ElasticsearchIndex</text>
</g>
<!-- \\ElasticsearchIndex&#45;&gt;\\ElasticsearchModel -->
<g id="edge37" class="edge"><title>\\ElasticsearchIndex&#45;&gt;\\ElasticsearchModel</title>
<path fill="none" stroke="black" d="M716.632,-1344.73C658.941,-1353.66 576.81,-1366.37 516.48,-1375.7"/>
<polygon fill="none" stroke="black" points="515.584,-1372.3 506.237,-1377.29 516.655,-1379.22 515.584,-1372.3"/>
</g>
<!-- \\HttpSourceModel -->
<g id="node49" class="node"><title>\\HttpSourceModel</title>
<ellipse fill="none" stroke="black" cx="99" cy="-1388" rx="98.9949" ry="18.3848"/>
<text text-anchor="middle" x="99" y="-1384.4" font-family="Times Roman,serif" font-size="14.00" fill="gray">\HttpSourceModel</text>
</g>
<!-- \\ElasticsearchModel&#45;&gt;\\HttpSourceModel -->
<g id="edge39" class="edge"><title>\\ElasticsearchModel&#45;&gt;\\HttpSourceModel</title>
<path fill="none" stroke="black" d="M367.785,-1388C321.88,-1388 260.671,-1388 208.26,-1388"/>
<polygon fill="none" stroke="black" points="208.243,-1384.5 198.243,-1388 208.243,-1391.5 208.243,-1384.5"/>
</g>
<!-- \\ElasticsearchMapping -->
<g id="node21" class="node"><title>\\ElasticsearchMapping</title>
<polygon fill="none" stroke="black" points="862,-1298 710,-1298 710,-1262 862,-1262 862,-1298"/>
<text text-anchor="middle" x="786" y="-1277.1" font-family="Courier,monospace" font-size="11.00">ElasticsearchMapping</text>
</g>
<!-- \\ElasticsearchMapping&#45;&gt;\\ElasticsearchModel -->
<g id="edge41" class="edge"><title>\\ElasticsearchMapping&#45;&gt;\\ElasticsearchModel</title>
<path fill="none" stroke="black" d="M709.734,-1297.82C698.383,-1300.73 686.855,-1303.83 676,-1307 613.829,-1325.13 543.771,-1349.33 495.663,-1366.54"/>
<polygon fill="none" stroke="black" points="494.271,-1363.32 486.042,-1370 496.636,-1369.91 494.271,-1363.32"/>
</g>
<!-- \\ElasticsearchController -->
<g id="node22" class="node"><title>\\ElasticsearchController</title>
<polygon fill="none" stroke="black" points="872,-542 700,-542 700,-506 872,-506 872,-542"/>
<text text-anchor="middle" x="786" y="-521.1" font-family="Courier,monospace" font-size="11.00">ElasticsearchController</text>
</g>
<!-- \\HttpSourceController -->
<g id="node52" class="node"><title>\\HttpSourceController</title>
<ellipse fill="none" stroke="black" cx="437" cy="-72" rx="118.794" ry="18.3848"/>
<text text-anchor="middle" x="437" y="-68.4" font-family="Times Roman,serif" font-size="14.00" fill="gray">\HttpSourceController</text>
</g>
<!-- \\ElasticsearchController&#45;&gt;\\HttpSourceController -->
<g id="edge43" class="edge"><title>\\ElasticsearchController&#45;&gt;\\HttpSourceController</title>
<path fill="none" stroke="black" d="M699.762,-513.481C690.869,-509.451 682.667,-504.092 676,-497 552.873,-366.029 732.291,-224.917 604,-99 593.271,-88.4694 580.156,-81.0706 566.037,-75.9721"/>
<polygon fill="none" stroke="black" points="566.711,-72.5129 556.12,-72.7997 564.578,-79.1801 566.711,-72.5129"/>
</g>
<!-- \\ElasticsearchHelper -->
<g id="node23" class="node"><title>\\ElasticsearchHelper</title>
<polygon fill="none" stroke="black" points="858,-488 714,-488 714,-452 858,-452 858,-488"/>
<text text-anchor="middle" x="786" y="-467.1" font-family="Courier,monospace" font-size="11.00">ElasticsearchHelper</text>
</g>
<!-- \\HtmlHelper -->
<g id="node54" class="node"><title>\\HtmlHelper</title>
<ellipse fill="none" stroke="black" cx="437" cy="-18" rx="70.0036" ry="18.3848"/>
<text text-anchor="middle" x="437" y="-14.4" font-family="Times Roman,serif" font-size="14.00" fill="gray">\HtmlHelper</text>
</g>
<!-- \\ElasticsearchHelper&#45;&gt;\\HtmlHelper -->
<g id="edge45" class="edge"><title>\\ElasticsearchHelper&#45;&gt;\\HtmlHelper</title>
<path fill="none" stroke="black" d="M784.274,-451.808C776.913,-385.175 741.884,-152.73 604,-45 579.257,-25.6678 546.053,-17.7738 515.771,-15.136"/>
<polygon fill="none" stroke="black" points="515.848,-11.6331 505.63,-14.4341 515.364,-18.6164 515.848,-11.6331"/>
</g>
</g>
</svg>
