<?xml version="1.0" encoding="UTF-8" standalone="no"?>
<!DOCTYPE svg PUBLIC "-//W3C//DTD SVG 1.1//EN"
 "http://www.w3.org/Graphics/SVG/1.1/DTD/svg11.dtd">
<!-- Generated by graphviz version 2.26.3 (20100126.1600)
 -->
<!-- Title: G Pages: 1 -->
<svg width="920pt" height="1195pt"
 viewBox="0.00 0.00 920.00 1195.48" xmlns="http://www.w3.org/2000/svg" xmlns:xlink="http://www.w3.org/1999/xlink">
<g id="graph1" class="graph" transform="scale(1 1) rotate(0) translate(4 1191.48)">
<title>G</title>
<polygon fill="white" stroke="white" points="-4,5 -4,-1191.48 917,-1191.48 917,5 -4,5"/>
<g id="graph2" class="cluster"><title>cluster_Global</title>
<polyline fill="none" stroke="gray" points="372,-457.484 892,-457.484 "/>
<path fill="none" stroke="gray" d="M892,-457.484C898,-457.484 904,-463.484 904,-469.484"/>
<polyline fill="none" stroke="gray" points="904,-469.484 904,-1167.48 "/>
<path fill="none" stroke="gray" d="M904,-1167.48C904,-1173.48 898,-1179.48 892,-1179.48"/>
<polyline fill="none" stroke="gray" points="892,-1179.48 372,-1179.48 "/>
<path fill="none" stroke="gray" d="M372,-1179.48C366,-1179.48 360,-1173.48 360,-1167.48"/>
<polyline fill="none" stroke="gray" points="360,-1167.48 360,-469.484 "/>
<path fill="none" stroke="gray" d="M360,-469.484C360,-463.484 366,-457.484 372,-457.484"/>
<text text-anchor="middle" x="632" y="-1165.58" font-family="Times Roman,serif" font-size="11.00" fill="gray">Global</text>
</g>
<!-- \\ElasticsearchDocument -->
<g id="node2" class="node"><title>\\ElasticsearchDocument</title>
<polygon fill="none" stroke="black" points="865,-1149.48 707,-1149.48 707,-1113.48 865,-1113.48 865,-1149.48"/>
<text text-anchor="middle" x="786" y="-1128.58" font-family="Courier,monospace" font-size="11.00">ElasticsearchDocument</text>
</g>
<!-- \\ElasticsearchModel -->
<g id="node3" class="node"><title>\\ElasticsearchModel</title>
<polygon fill="none" stroke="black" points="506,-1122.48 368,-1122.48 368,-1086.48 506,-1086.48 506,-1122.48"/>
<text text-anchor="middle" x="437" y="-1101.58" font-family="Courier,monospace" font-size="11.00">ElasticsearchModel</text>
</g>
<!-- \\ElasticsearchDocument&#45;&gt;\\ElasticsearchModel -->
<g id="edge3" class="edge"><title>\\ElasticsearchDocument&#45;&gt;\\ElasticsearchModel</title>
<path fill="none" stroke="black" d="M706.806,-1125.36C649.795,-1120.95 573.205,-1115.02 516.194,-1110.61"/>
<polygon fill="none" stroke="black" points="516.385,-1107.11 506.145,-1109.83 515.845,-1114.09 516.385,-1107.11"/>
</g>
<!-- \\HttpSourceModel -->
<g id="node19" class="node"><title>\\HttpSourceModel</title>
<ellipse fill="none" stroke="black" cx="99" cy="-1104.48" rx="98.9949" ry="18.3848"/>
<text text-anchor="middle" x="99" y="-1100.88" font-family="Times Roman,serif" font-size="14.00" fill="gray">\HttpSourceModel</text>
</g>
<!-- \\ElasticsearchModel&#45;&gt;\\HttpSourceModel -->
<g id="edge5" class="edge"><title>\\ElasticsearchModel&#45;&gt;\\HttpSourceModel</title>
<path fill="none" stroke="black" d="M367.785,-1104.48C321.88,-1104.48 260.671,-1104.48 208.26,-1104.48"/>
<polygon fill="none" stroke="black" points="208.243,-1100.98 198.243,-1104.48 208.243,-1107.98 208.243,-1100.98"/>
</g>
<!-- \\ElasticsearchIndicesStatus -->
<g id="node4" class="node"><title>\\ElasticsearchIndicesStatus</title>
<polygon fill="none" stroke="black" points="882,-1095.48 690,-1095.48 690,-1059.48 882,-1059.48 882,-1095.48"/>
<text text-anchor="middle" x="786" y="-1074.58" font-family="Courier,monospace" font-size="11.00">ElasticsearchIndicesStatus</text>
</g>
<!-- \\ElasticsearchIndicesStatus&#45;&gt;\\ElasticsearchModel -->
<g id="edge7" class="edge"><title>\\ElasticsearchIndicesStatus&#45;&gt;\\ElasticsearchModel</title>
<path fill="none" stroke="black" d="M689.71,-1084.93C635.14,-1089.15 567.704,-1094.37 516.222,-1098.35"/>
<polygon fill="none" stroke="black" points="515.848,-1094.87 506.147,-1099.13 516.388,-1101.85 515.848,-1094.87"/>
</g>
<!-- \\ElasticsearchConnection -->
<g id="node5" class="node"><title>\\ElasticsearchConnection</title>
<polygon fill="none" stroke="black" points="872,-933.484 700,-933.484 700,-897.484 872,-897.484 872,-933.484"/>
<text text-anchor="middle" x="786" y="-912.584" font-family="Courier,monospace" font-size="11.00">ElasticsearchConnection</text>
</g>
<!-- \\HttpSourceConnection -->
<g id="node22" class="node"><title>\\HttpSourceConnection</title>
<ellipse fill="none" stroke="black" cx="437" cy="-431.484" rx="125.158" ry="18.3848"/>
<text text-anchor="middle" x="437" y="-427.884" font-family="Times Roman,serif" font-size="14.00" fill="gray">\HttpSourceConnection</text>
</g>
<!-- \\ElasticsearchConnection&#45;&gt;\\HttpSourceConnection -->
<g id="edge9" class="edge"><title>\\ElasticsearchConnection&#45;&gt;\\HttpSourceConnection</title>
<path fill="none" stroke="black" d="M699.927,-905.184C690.948,-901.123 682.681,-895.697 676,-888.484 542.845,-744.708 744.838,-589.742 604,-453.484 594.537,-444.329 583.238,-437.713 571.04,-433.028"/>
<polygon fill="none" stroke="black" points="572.147,-429.707 561.552,-429.811 569.899,-436.337 572.147,-429.707"/>
</g>
<!-- \\ElasticsearchSource -->
<g id="node6" class="node"><title>\\ElasticsearchSource</title>
<polygon fill="none" stroke="black" points="858,-879.484 714,-879.484 714,-843.484 858,-843.484 858,-879.484"/>
<text text-anchor="middle" x="786" y="-858.584" font-family="Courier,monospace" font-size="11.00">ElasticsearchSource</text>
</g>
<!-- \\HttpSource -->
<g id="node24" class="node"><title>\\HttpSource</title>
<ellipse fill="none" stroke="black" cx="437" cy="-377.484" rx="70.0036" ry="18.3848"/>
<text text-anchor="middle" x="437" y="-373.884" font-family="Times Roman,serif" font-size="14.00" fill="gray">\HttpSource</text>
</g>
<!-- \\ElasticsearchSource&#45;&gt;\\HttpSource -->
<g id="edge11" class="edge"><title>\\ElasticsearchSource&#45;&gt;\\HttpSource</title>
<path fill="none" stroke="black" d="M713.268,-856.122C699.264,-851.907 685.898,-845.151 676,-834.484 544.201,-692.439 741.401,-541.116 604,-404.484 580.416,-381.032 545.019,-373.045 512.874,-371.43"/>
<polygon fill="none" stroke="black" points="512.672,-367.922 502.571,-371.118 512.46,-374.919 512.672,-367.922"/>
</g>
<!-- \\ElasticsearchController -->
<g id="node7" class="node"><title>\\ElasticsearchController</title>
<polygon fill="none" stroke="black" points="872,-825.484 700,-825.484 700,-789.484 872,-789.484 872,-825.484"/>
<text text-anchor="middle" x="786" y="-804.584" font-family="Courier,monospace" font-size="11.00">ElasticsearchController</text>
</g>
<!-- \\HttpSourceController -->
<g id="node26" class="node"><title>\\HttpSourceController</title>
<ellipse fill="none" stroke="black" cx="437" cy="-323.484" rx="118.794" ry="18.3848"/>
<text text-anchor="middle" x="437" y="-319.884" font-family="Times Roman,serif" font-size="14.00" fill="gray">\HttpSourceController</text>
</g>
<!-- \\ElasticsearchController&#45;&gt;\\HttpSourceController -->
<g id="edge13" class="edge"><title>\\ElasticsearchController&#45;&gt;\\HttpSourceController</title>
<path fill="none" stroke="black" d="M699.94,-797.172C690.959,-793.113 682.688,-787.691 676,-780.484 544.201,-638.439 741.401,-487.116 604,-350.484 593.34,-339.883 580.266,-332.442 566.17,-327.322"/>
<polygon fill="none" stroke="black" points="566.856,-323.866 556.265,-324.137 564.713,-330.53 566.856,-323.866"/>
</g>
<!-- \\ElasticsearchHelper -->
<g id="node8" class="node"><title>\\ElasticsearchHelper</title>
<polygon fill="none" stroke="black" points="858,-771.484 714,-771.484 714,-735.484 858,-735.484 858,-771.484"/>
<text text-anchor="middle" x="786" y="-750.584" font-family="Courier,monospace" font-size="11.00">ElasticsearchHelper</text>
</g>
<!-- \\HtmlHelper -->
<g id="node28" class="node"><title>\\HtmlHelper</title>
<ellipse fill="none" stroke="black" cx="437" cy="-269.484" rx="70.0036" ry="18.3848"/>
<text text-anchor="middle" x="437" y="-265.884" font-family="Times Roman,serif" font-size="14.00" fill="gray">\HtmlHelper</text>
</g>
<!-- \\ElasticsearchHelper&#45;&gt;\\HtmlHelper -->
<g id="edge15" class="edge"><title>\\ElasticsearchHelper&#45;&gt;\\HtmlHelper</title>
<path fill="none" stroke="black" d="M713.268,-748.122C699.264,-743.907 685.898,-737.151 676,-726.484 544.201,-584.439 741.401,-433.116 604,-296.484 580.416,-273.032 545.019,-265.045 512.874,-263.43"/>
<polygon fill="none" stroke="black" points="512.672,-259.922 502.571,-263.118 512.46,-266.919 512.672,-259.922"/>
</g>
<!-- \\ElasticsearchTest -->
<g id="node9" class="node"><title>\\ElasticsearchTest</title>
<polygon fill="none" stroke="black" points="503,-987.484 371,-987.484 371,-951.484 503,-951.484 503,-987.484"/>
<text text-anchor="start" x="403" y="-974.917" font-family="Courier,monospace" font-size="11.00">«abstract»</text>
<text text-anchor="start" x="379.5" y="-961.717" font-family="Courier,monospace" font-size="11.00">ElasticsearchTest</text>
</g>
<!-- \\CakeTestCase -->
<g id="node30" class="node"><title>\\CakeTestCase</title>
<ellipse fill="none" stroke="black" cx="99" cy="-115.484" rx="82.0244" ry="18.3848"/>
<text text-anchor="middle" x="99" y="-111.884" font-family="Times Roman,serif" font-size="14.00" fill="gray">\CakeTestCase</text>
</g>
<!-- \\ElasticsearchTest&#45;&gt;\\CakeTestCase -->
<g id="edge17" class="edge"><title>\\ElasticsearchTest&#45;&gt;\\CakeTestCase</title>
<path fill="none" stroke="black" d="M370.759,-977.673C336.555,-978.123 296.544,-972.189 270,-947.484 148.471,-834.373 108.436,-276.569 100.555,-143.856"/>
<polygon fill="none" stroke="black" points="104.039,-143.471 99.9657,-133.691 97.0505,-143.877 104.039,-143.471"/>
</g>
<!-- \\ElasticsearchArticleFixture -->
<g id="node10" class="node"><title>\\ElasticsearchArticleFixture</title>
<polygon fill="none" stroke="black" points="885,-717.484 687,-717.484 687,-681.484 885,-681.484 885,-717.484"/>
<text text-anchor="middle" x="786" y="-696.584" font-family="Courier,monospace" font-size="11.00">ElasticsearchArticleFixture</text>
</g>
<!-- \\HttpSourceTestFixture -->
<g id="node32" class="node"><title>\\HttpSourceTestFixture</title>
<ellipse fill="none" stroke="black" cx="437" cy="-215.484" rx="123.951" ry="18.3848"/>
<text text-anchor="middle" x="437" y="-211.884" font-family="Times Roman,serif" font-size="14.00" fill="gray">\HttpSourceTestFixture</text>
</g>
<!-- \\ElasticsearchArticleFixture&#45;&gt;\\HttpSourceTestFixture -->
<g id="edge19" class="edge"><title>\\ElasticsearchArticleFixture&#45;&gt;\\HttpSourceTestFixture</title>
<path fill="none" stroke="black" d="M686.149,-681.338C682.488,-678.737 679.076,-675.799 676,-672.484 544.201,-530.439 741.401,-379.116 604,-242.484 594.458,-232.995 582.981,-226.038 570.569,-221.01"/>
<polygon fill="none" stroke="black" points="571.505,-217.627 560.911,-217.531 569.133,-224.213 571.505,-217.627"/>
</g>
<!-- \\AllElasticsearchSourceTest -->
<g id="node11" class="node"><title>\\AllElasticsearchSourceTest</title>
<polygon fill="none" stroke="black" points="882,-663.484 690,-663.484 690,-627.484 882,-627.484 882,-663.484"/>
<text text-anchor="middle" x="786" y="-642.584" font-family="Courier,monospace" font-size="11.00">AllElasticsearchSourceTest</text>
</g>
<!-- \\PHPUnit_Framework_TestSuite -->
<g id="node34" class="node"><title>\\PHPUnit_Framework_TestSuite</title>
<ellipse fill="none" stroke="black" cx="437" cy="-161.484" rx="166.877" ry="18.3848"/>
<text text-anchor="middle" x="437" y="-157.884" font-family="Times Roman,serif" font-size="14.00" fill="gray">\PHPUnit_Framework_TestSuite</text>
</g>
<!-- \\AllElasticsearchSourceTest&#45;&gt;\\PHPUnit_Framework_TestSuite -->
<g id="edge21" class="edge"><title>\\AllElasticsearchSourceTest&#45;&gt;\\PHPUnit_Framework_TestSuite</title>
<path fill="none" stroke="black" d="M689.559,-629.62C684.595,-626.49 680.013,-622.808 676,-618.484 544.201,-476.439 741.401,-325.116 604,-188.484 599.285,-183.795 594.098,-179.725 588.559,-176.2"/>
<polygon fill="none" stroke="black" points="590.006,-172.996 579.582,-171.099 586.547,-179.082 590.006,-172.996"/>
</g>
<!-- \\ElasticsearchIndicesStatusTest -->
<g id="node12" class="node"><title>\\ElasticsearchIndicesStatusTest</title>
<polygon fill="none" stroke="black" points="895,-1041.48 677,-1041.48 677,-1005.48 895,-1005.48 895,-1041.48"/>
<text text-anchor="middle" x="786" y="-1020.58" font-family="Courier,monospace" font-size="11.00">ElasticsearchIndicesStatusTest</text>
</g>
<!-- \\ElasticsearchIndicesStatusTest&#45;&gt;\\ElasticsearchTest -->
<g id="edge23" class="edge"><title>\\ElasticsearchIndicesStatusTest&#45;&gt;\\ElasticsearchTest</title>
<path fill="none" stroke="black" d="M676.053,-1006.47C623.078,-998.275 560.862,-988.649 513.183,-981.271"/>
<polygon fill="none" stroke="black" points="513.655,-977.803 503.238,-979.732 512.585,-984.72 513.655,-977.803"/>
</g>
<!-- \\ElasticsearchDocumentTest -->
<g id="node13" class="node"><title>\\ElasticsearchDocumentTest</title>
<polygon fill="none" stroke="black" points="878,-987.484 694,-987.484 694,-951.484 878,-951.484 878,-987.484"/>
<text text-anchor="middle" x="786" y="-966.584" font-family="Courier,monospace" font-size="11.00">ElasticsearchDocumentTest</text>
</g>
<!-- \\ElasticsearchDocumentTest&#45;&gt;\\ElasticsearchTest -->
<g id="edge25" class="edge"><title>\\ElasticsearchDocumentTest&#45;&gt;\\ElasticsearchTest</title>
<path fill="none" stroke="black" d="M693.391,-969.484C637.141,-969.484 566.209,-969.484 513.219,-969.484"/>
<polygon fill="none" stroke="black" points="513.206,-965.984 503.206,-969.484 513.206,-972.984 513.206,-965.984"/>
</g>
<!-- \\ElasticsearchSourceTest -->
<g id="node14" class="node"><title>\\ElasticsearchSourceTest</title>
<polygon fill="none" stroke="black" points="872,-609.484 700,-609.484 700,-573.484 872,-573.484 872,-609.484"/>
<text text-anchor="middle" x="786" y="-588.584" font-family="Courier,monospace" font-size="11.00">ElasticsearchSourceTest</text>
</g>
<!-- \\ElasticsearchSourceTest&#45;&gt;\\CakeTestCase -->
<g id="edge27" class="edge"><title>\\ElasticsearchSourceTest&#45;&gt;\\CakeTestCase</title>
<path fill="none" stroke="black" d="M699.94,-581.172C690.959,-577.113 682.688,-571.691 676,-564.484 544.201,-422.439 749.519,-262.436 604,-134.484 573.789,-107.92 327.653,-109.666 190.497,-112.793"/>
<polygon fill="none" stroke="black" points="190.324,-109.296 180.409,-113.03 190.489,-116.294 190.324,-109.296"/>
</g>
<!-- \\ElasticsearchControllerTest -->
<g id="node15" class="node"><title>\\ElasticsearchControllerTest</title>
<polygon fill="none" stroke="black" points="885,-555.484 687,-555.484 687,-519.484 885,-519.484 885,-555.484"/>
<text text-anchor="middle" x="786" y="-534.584" font-family="Courier,monospace" font-size="11.00">ElasticsearchControllerTest</text>
</g>
<!-- \\ControllerTestCase -->
<g id="node39" class="node"><title>\\ControllerTestCase</title>
<ellipse fill="none" stroke="black" cx="437" cy="-69.4837" rx="106.773" ry="18.3848"/>
<text text-anchor="middle" x="437" y="-65.8837" font-family="Times Roman,serif" font-size="14.00" fill="gray">\ControllerTestCase</text>
</g>
<!-- \\ElasticsearchControllerTest&#45;&gt;\\ControllerTestCase -->
<g id="edge29" class="edge"><title>\\ElasticsearchControllerTest&#45;&gt;\\ControllerTestCase</title>
<path fill="none" stroke="black" d="M686.183,-519.306C682.513,-516.713 679.09,-513.786 676,-510.484 549.894,-375.708 733.526,-232.976 604,-101.484 590.328,-87.6042 572.607,-78.7541 553.832,-73.2629"/>
<polygon fill="none" stroke="black" points="554.493,-69.8184 543.934,-70.6886 552.731,-76.5931 554.493,-69.8184"/>
</g>
<!-- \\ElasticsearchHelperTest -->
<g id="node16" class="node"><title>\\ElasticsearchHelperTest</title>
<polygon fill="none" stroke="black" points="872,-501.484 700,-501.484 700,-465.484 872,-465.484 872,-501.484"/>
<text text-anchor="middle" x="786" y="-480.584" font-family="Courier,monospace" font-size="11.00">ElasticsearchHelperTest</text>
</g>
<!-- \\ElasticsearchHelperTest&#45;&gt;\\CakeTestCase -->
<g id="edge31" class="edge"><title>\\ElasticsearchHelperTest&#45;&gt;\\CakeTestCase</title>
<path fill="none" stroke="black" d="M785.171,-465.311C780.888,-395.525 755.099,-143.586 604,-42.4837 455.386,56.9564 227.16,-45.8075 137.27,-93.7244"/>
<polygon fill="none" stroke="black" points="135.39,-90.7617 128.256,-98.5942 138.717,-96.9204 135.39,-90.7617"/>
</g>
</g>
</svg>
