<?xml version="1.0" encoding="UTF-8" standalone="no"?>
<!DOCTYPE svg PUBLIC "-//W3C//DTD SVG 1.1//EN"
 "http://www.w3.org/Graphics/SVG/1.1/DTD/svg11.dtd">
<!-- Generated by graphviz version 2.26.3 (20100126.1600)
 -->
<!-- Title: G Pages: 1 -->
<svg width="920pt" height="1144pt"
 viewBox="0.00 0.00 920.00 1144.00" xmlns="http://www.w3.org/2000/svg" xmlns:xlink="http://www.w3.org/1999/xlink">
<g id="graph1" class="graph" transform="scale(1 1) rotate(0) translate(4 1140)">
<title>G</title>
<polygon fill="white" stroke="white" points="-4,5 -4,-1140 917,-1140 917,5 -4,5"/>
<g id="graph2" class="cluster"><title>cluster_Global</title>
<polyline fill="none" stroke="gray" points="372,-406 892,-406 "/>
<path fill="none" stroke="gray" d="M892,-406C898,-406 904,-412 904,-418"/>
<polyline fill="none" stroke="gray" points="904,-418 904,-1116 "/>
<path fill="none" stroke="gray" d="M904,-1116C904,-1122 898,-1128 892,-1128"/>
<polyline fill="none" stroke="gray" points="892,-1128 372,-1128 "/>
<path fill="none" stroke="gray" d="M372,-1128C366,-1128 360,-1122 360,-1116"/>
<polyline fill="none" stroke="gray" points="360,-1116 360,-418 "/>
<path fill="none" stroke="gray" d="M360,-418C360,-412 366,-406 372,-406"/>
<text text-anchor="middle" x="632" y="-1114.1" font-family="Times Roman,serif" font-size="11.00" fill="gray">Global</text>
</g>
<!-- \\ElasticsearchController -->
<g id="node2" class="node"><title>\\ElasticsearchController</title>
<polygon fill="none" stroke="black" points="872,-882 700,-882 700,-846 872,-846 872,-882"/>
<text text-anchor="middle" x="786" y="-861.1" font-family="Courier,monospace" font-size="11.00">ElasticsearchController</text>
</g>
<!-- \\HttpSourceController -->
<g id="node18" class="node"><title>\\HttpSourceController</title>
<ellipse fill="none" stroke="black" cx="437" cy="-380" rx="118.794" ry="18.3848"/>
<text text-anchor="middle" x="437" y="-376.4" font-family="Times Roman,serif" font-size="14.00" fill="gray">\HttpSourceController</text>
</g>
<!-- \\ElasticsearchController&#45;&gt;\\HttpSourceController -->
<g id="edge3" class="edge"><title>\\ElasticsearchController&#45;&gt;\\HttpSourceController</title>
<path fill="none" stroke="black" d="M699.927,-853.701C690.948,-849.639 682.681,-844.214 676,-837 542.845,-693.224 744.838,-538.259 604,-402 592.621,-390.991 578.586,-383.655 563.527,-378.93"/>
<polygon fill="none" stroke="black" points="564.07,-375.45 553.501,-376.19 562.224,-382.202 564.07,-375.45"/>
</g>
<!-- \\ElasticsearchControllerTest -->
<g id="node3" class="node"><title>\\ElasticsearchControllerTest</title>
<polygon fill="none" stroke="black" points="885,-828 687,-828 687,-792 885,-792 885,-828"/>
<text text-anchor="middle" x="786" y="-807.1" font-family="Courier,monospace" font-size="11.00">ElasticsearchControllerTest</text>
</g>
<!-- \\ControllerTestCase -->
<g id="node20" class="node"><title>\\ControllerTestCase</title>
<ellipse fill="none" stroke="black" cx="437" cy="-326" rx="106.773" ry="18.3848"/>
<text text-anchor="middle" x="437" y="-322.4" font-family="Times Roman,serif" font-size="14.00" fill="gray">\ControllerTestCase</text>
</g>
<!-- \\ElasticsearchControllerTest&#45;&gt;\\ControllerTestCase -->
<g id="edge5" class="edge"><title>\\ElasticsearchControllerTest&#45;&gt;\\ControllerTestCase</title>
<path fill="none" stroke="black" d="M686.149,-791.854C682.488,-789.253 679.076,-786.315 676,-783 544.201,-640.956 741.401,-489.632 604,-353 590.167,-339.245 572.27,-330.81 553.349,-325.86"/>
<polygon fill="none" stroke="black" points="553.906,-322.397 543.377,-323.58 552.345,-329.221 553.906,-322.397"/>
</g>
<!-- \\ElasticsearchSourceTest -->
<g id="node4" class="node"><title>\\ElasticsearchSourceTest</title>
<polygon fill="none" stroke="black" points="872,-774 700,-774 700,-738 872,-738 872,-774"/>
<text text-anchor="middle" x="786" y="-753.1" font-family="Courier,monospace" font-size="11.00">ElasticsearchSourceTest</text>
</g>
<!-- \\CakeTestCase -->
<g id="node22" class="node"><title>\\CakeTestCase</title>
<ellipse fill="none" stroke="black" cx="99" cy="-599" rx="82.0244" ry="18.3848"/>
<text text-anchor="middle" x="99" y="-595.4" font-family="Times Roman,serif" font-size="14.00" fill="gray">\CakeTestCase</text>
</g>
<!-- \\ElasticsearchSourceTest&#45;&gt;\\CakeTestCase -->
<g id="edge7" class="edge"><title>\\ElasticsearchSourceTest&#45;&gt;\\CakeTestCase</title>
<path fill="none" stroke="black" d="M699.94,-745.688C690.959,-741.629 682.688,-736.207 676,-729 544.201,-586.956 744.574,-432.366 604,-299 549.807,-247.586 511.481,-285.73 437,-280"/>
</g>
<!-- \\ElasticsearchDocumentTest -->
<g id="node5" class="node"><title>\\ElasticsearchDocumentTest</title>
<polygon fill="none" stroke="black" points="878,-936 694,-936 694,-900 878,-900 878,-936"/>
<text text-anchor="middle" x="786" y="-915.1" font-family="Courier,monospace" font-size="11.00">ElasticsearchDocumentTest</text>
</g>
<!-- \\ElasticsearchTest -->
<g id="node10" class="node"><title>\\ElasticsearchTest</title>
<polygon fill="none" stroke="black" points="503,-936 371,-936 371,-900 503,-900 503,-936"/>
<text text-anchor="start" x="403" y="-923.433" font-family="Courier,monospace" font-size="11.00">«abstract»</text>
<text text-anchor="start" x="379.5" y="-910.233" font-family="Courier,monospace" font-size="11.00">ElasticsearchTest</text>
</g>
<!-- \\ElasticsearchDocumentTest&#45;&gt;\\ElasticsearchTest -->
<g id="edge9" class="edge"><title>\\ElasticsearchDocumentTest&#45;&gt;\\ElasticsearchTest</title>
<path fill="none" stroke="black" d="M693.391,-918C637.141,-918 566.209,-918 513.219,-918"/>
<polygon fill="none" stroke="black" points="513.206,-914.5 503.206,-918 513.206,-921.5 513.206,-914.5"/>
</g>
<!-- \\ElasticsearchIndicesStatusTest -->
<g id="node6" class="node"><title>\\ElasticsearchIndicesStatusTest</title>
<polygon fill="none" stroke="black" points="895,-990 677,-990 677,-954 895,-954 895,-990"/>
<text text-anchor="middle" x="786" y="-969.1" font-family="Courier,monospace" font-size="11.00">ElasticsearchIndicesStatusTest</text>
</g>
<!-- \\ElasticsearchIndicesStatusTest&#45;&gt;\\ElasticsearchTest -->
<g id="edge11" class="edge"><title>\\ElasticsearchIndicesStatusTest&#45;&gt;\\ElasticsearchTest</title>
<path fill="none" stroke="black" d="M676.053,-954.988C623.078,-946.791 560.862,-937.165 513.183,-929.788"/>
<polygon fill="none" stroke="black" points="513.655,-926.319 503.238,-928.249 512.585,-933.237 513.655,-926.319"/>
</g>
<!-- \\ElasticsearchHelperTest -->
<g id="node7" class="node"><title>\\ElasticsearchHelperTest</title>
<polygon fill="none" stroke="black" points="872,-720 700,-720 700,-684 872,-684 872,-720"/>
<text text-anchor="middle" x="786" y="-699.1" font-family="Courier,monospace" font-size="11.00">ElasticsearchHelperTest</text>
</g>
<!-- \\ElasticsearchHelperTest&#45;&gt;\\CakeTestCase -->
<g id="edge13" class="edge"><title>\\ElasticsearchHelperTest&#45;&gt;\\CakeTestCase</title>
<path fill="none" stroke="black" d="M699.832,-691.415C690.927,-687.396 682.703,-682.058 676,-675 558.825,-551.63 728.791,-414.66 604,-299 549.212,-248.221 511.481,-285.73 437,-280"/>
<path fill="none" stroke="black" d="M437,-280C362.519,-274.27 332.361,-257.874 270,-299 170.176,-364.832 122.098,-510.198 105.731,-571.197"/>
<polygon fill="none" stroke="black" points="102.336,-570.346 103.205,-580.905 109.11,-572.109 102.336,-570.346"/>
</g>
<!-- \\AllElasticsearchSourceTest -->
<g id="node8" class="node"><title>\\AllElasticsearchSourceTest</title>
<polygon fill="none" stroke="black" points="882,-666 690,-666 690,-630 882,-630 882,-666"/>
<text text-anchor="middle" x="786" y="-645.1" font-family="Courier,monospace" font-size="11.00">AllElasticsearchSourceTest</text>
</g>
<!-- \\PHPUnit_Framework_TestSuite -->
<g id="node27" class="node"><title>\\PHPUnit_Framework_TestSuite</title>
<ellipse fill="none" stroke="black" cx="437" cy="-234" rx="166.877" ry="18.3848"/>
<text text-anchor="middle" x="437" y="-230.4" font-family="Times Roman,serif" font-size="14.00" fill="gray">\PHPUnit_Framework_TestSuite</text>
</g>
<!-- \\AllElasticsearchSourceTest&#45;&gt;\\PHPUnit_Framework_TestSuite -->
<g id="edge15" class="edge"><title>\\AllElasticsearchSourceTest&#45;&gt;\\PHPUnit_Framework_TestSuite</title>
<path fill="none" stroke="black" d="M689.981,-632.128C684.88,-629.005 680.154,-625.326 676,-621 564.497,-504.876 718.449,-379.222 604,-266 597.147,-259.22 589.324,-253.649 580.892,-249.089"/>
<polygon fill="none" stroke="black" points="582.419,-245.94 571.898,-244.695 579.346,-252.23 582.419,-245.94"/>
</g>
<!-- \\ElasticsearchArticleFixture -->
<g id="node9" class="node"><title>\\ElasticsearchArticleFixture</title>
<polygon fill="none" stroke="black" points="885,-612 687,-612 687,-576 885,-576 885,-612"/>
<text text-anchor="middle" x="786" y="-591.1" font-family="Courier,monospace" font-size="11.00">ElasticsearchArticleFixture</text>
</g>
<!-- \\HttpSourceTestFixture -->
<g id="node29" class="node"><title>\\HttpSourceTestFixture</title>
<ellipse fill="none" stroke="black" cx="437" cy="-180" rx="123.951" ry="18.3848"/>
<text text-anchor="middle" x="437" y="-176.4" font-family="Times Roman,serif" font-size="14.00" fill="gray">\HttpSourceTestFixture</text>
</g>
<!-- \\ElasticsearchArticleFixture&#45;&gt;\\HttpSourceTestFixture -->
<g id="edge17" class="edge"><title>\\ElasticsearchArticleFixture&#45;&gt;\\HttpSourceTestFixture</title>
<path fill="none" stroke="black" d="M686.278,-575.733C682.582,-573.164 679.128,-570.267 676,-567 563.147,-449.152 721.498,-320.217 604,-207 594.309,-197.662 582.738,-190.803 570.269,-185.832"/>
<polygon fill="none" stroke="black" points="571.17,-182.438 560.575,-182.39 568.828,-189.035 571.17,-182.438"/>
</g>
<!-- \\ElasticsearchTest&#45;&gt;\\CakeTestCase -->
<g id="edge19" class="edge"><title>\\ElasticsearchTest&#45;&gt;\\CakeTestCase</title>
<path fill="none" stroke="black" d="M370.784,-922.504C338.004,-921.619 299.287,-915.596 270,-896 171.804,-830.297 123.057,-687.82 106.129,-627.209"/>
<polygon fill="none" stroke="black" points="109.414,-625.947 103.421,-617.211 102.658,-627.778 109.414,-625.947"/>
</g>
<!-- \\ElasticsearchConnection -->
<g id="node11" class="node"><title>\\ElasticsearchConnection</title>
<polygon fill="none" stroke="black" points="872,-558 700,-558 700,-522 872,-522 872,-558"/>
<text text-anchor="middle" x="786" y="-537.1" font-family="Courier,monospace" font-size="11.00">ElasticsearchConnection</text>
</g>
<!-- \\HttpSourceConnection -->
<g id="node32" class="node"><title>\\HttpSourceConnection</title>
<ellipse fill="none" stroke="black" cx="437" cy="-126" rx="125.158" ry="18.3848"/>
<text text-anchor="middle" x="437" y="-122.4" font-family="Times Roman,serif" font-size="14.00" fill="gray">\HttpSourceConnection</text>
</g>
<!-- \\ElasticsearchConnection&#45;&gt;\\HttpSourceConnection -->
<g id="edge21" class="edge"><title>\\ElasticsearchConnection&#45;&gt;\\HttpSourceConnection</title>
<path fill="none" stroke="black" d="M699.889,-529.361C690.974,-525.351 682.732,-520.03 676,-513 563.147,-395.152 721.498,-266.217 604,-153 594.394,-143.744 582.939,-136.922 570.594,-131.963"/>
<polygon fill="none" stroke="black" points="571.591,-128.602 560.996,-128.523 569.229,-135.192 571.591,-128.602"/>
</g>
<!-- \\ElasticsearchSource -->
<g id="node12" class="node"><title>\\ElasticsearchSource</title>
<polygon fill="none" stroke="black" points="858,-504 714,-504 714,-468 858,-468 858,-504"/>
<text text-anchor="middle" x="786" y="-483.1" font-family="Courier,monospace" font-size="11.00">ElasticsearchSource</text>
</g>
<!-- \\HttpSource -->
<g id="node34" class="node"><title>\\HttpSource</title>
<ellipse fill="none" stroke="black" cx="437" cy="-72" rx="70.0036" ry="18.3848"/>
<text text-anchor="middle" x="437" y="-68.4" font-family="Times Roman,serif" font-size="14.00" fill="gray">\HttpSource</text>
</g>
<!-- \\ElasticsearchSource&#45;&gt;\\HttpSource -->
<g id="edge23" class="edge"><title>\\ElasticsearchSource&#45;&gt;\\HttpSource</title>
<path fill="none" stroke="black" d="M713.236,-480.314C699.32,-476.109 685.996,-469.439 676,-459 563.147,-341.152 721.498,-212.217 604,-99 580.241,-76.1064 545.174,-68.1062 513.3,-66.3368"/>
<polygon fill="none" stroke="black" points="513.2,-62.8311 503.081,-65.9703 512.949,-69.8266 513.2,-62.8311"/>
</g>
<!-- \\ElasticsearchModel -->
<g id="node13" class="node"><title>\\ElasticsearchModel</title>
<polygon fill="none" stroke="black" points="506,-1071 368,-1071 368,-1035 506,-1035 506,-1071"/>
<text text-anchor="middle" x="437" y="-1050.1" font-family="Courier,monospace" font-size="11.00">ElasticsearchModel</text>
</g>
<!-- \\HttpSourceModel -->
<g id="node36" class="node"><title>\\HttpSourceModel</title>
<ellipse fill="none" stroke="black" cx="99" cy="-1053" rx="98.9949" ry="18.3848"/>
<text text-anchor="middle" x="99" y="-1049.4" font-family="Times Roman,serif" font-size="14.00" fill="gray">\HttpSourceModel</text>
</g>
<!-- \\ElasticsearchModel&#45;&gt;\\HttpSourceModel -->
<g id="edge25" class="edge"><title>\\ElasticsearchModel&#45;&gt;\\HttpSourceModel</title>
<path fill="none" stroke="black" d="M367.785,-1053C321.88,-1053 260.671,-1053 208.26,-1053"/>
<polygon fill="none" stroke="black" points="208.243,-1049.5 198.243,-1053 208.243,-1056.5 208.243,-1049.5"/>
</g>
<!-- \\ElasticsearchDocument -->
<g id="node14" class="node"><title>\\ElasticsearchDocument</title>
<polygon fill="none" stroke="black" points="865,-1044 707,-1044 707,-1008 865,-1008 865,-1044"/>
<text text-anchor="middle" x="786" y="-1023.1" font-family="Courier,monospace" font-size="11.00">ElasticsearchDocument</text>
</g>
<!-- \\ElasticsearchDocument&#45;&gt;\\ElasticsearchModel -->
<g id="edge27" class="edge"><title>\\ElasticsearchDocument&#45;&gt;\\ElasticsearchModel</title>
<path fill="none" stroke="black" d="M706.806,-1032.13C649.795,-1036.54 573.205,-1042.46 516.194,-1046.87"/>
<polygon fill="none" stroke="black" points="515.845,-1043.39 506.145,-1047.65 516.385,-1050.37 515.845,-1043.39"/>
</g>
<!-- \\ElasticsearchIndicesStatus -->
<g id="node15" class="node"><title>\\ElasticsearchIndicesStatus</title>
<polygon fill="none" stroke="black" points="882,-1098 690,-1098 690,-1062 882,-1062 882,-1098"/>
<text text-anchor="middle" x="786" y="-1077.1" font-family="Courier,monospace" font-size="11.00">ElasticsearchIndicesStatus</text>
</g>
<!-- \\ElasticsearchIndicesStatus&#45;&gt;\\ElasticsearchModel -->
<g id="edge29" class="edge"><title>\\ElasticsearchIndicesStatus&#45;&gt;\\ElasticsearchModel</title>
<path fill="none" stroke="black" d="M689.71,-1072.55C635.14,-1068.33 567.704,-1063.11 516.222,-1059.13"/>
<polygon fill="none" stroke="black" points="516.388,-1055.63 506.147,-1058.35 515.848,-1062.61 516.388,-1055.63"/>
</g>
<!-- \\ElasticsearchHelper -->
<g id="node16" class="node"><title>\\ElasticsearchHelper</title>
<polygon fill="none" stroke="black" points="858,-450 714,-450 714,-414 858,-414 858,-450"/>
<text text-anchor="middle" x="786" y="-429.1" font-family="Courier,monospace" font-size="11.00">ElasticsearchHelper</text>
</g>
<!-- \\HtmlHelper -->
<g id="node40" class="node"><title>\\HtmlHelper</title>
<ellipse fill="none" stroke="black" cx="437" cy="-18" rx="70.0036" ry="18.3848"/>
<text text-anchor="middle" x="437" y="-14.4" font-family="Times Roman,serif" font-size="14.00" fill="gray">\HtmlHelper</text>
</g>
<!-- \\ElasticsearchHelper&#45;&gt;\\HtmlHelper -->
<g id="edge31" class="edge"><title>\\ElasticsearchHelper&#45;&gt;\\HtmlHelper</title>
<path fill="none" stroke="black" d="M783.439,-413.677C773.594,-350.671 732.082,-141.511 604,-45 579.133,-26.2623 546.222,-18.4136 516.194,-15.6486"/>
<polygon fill="none" stroke="black" points="516.369,-12.1521 506.136,-14.8974 515.848,-19.1327 516.369,-12.1521"/>
</g>
</g>
</svg>
