<?xml version="1.0" encoding="UTF-8" standalone="no"?>
<!DOCTYPE svg PUBLIC "-//W3C//DTD SVG 1.1//EN"
 "http://www.w3.org/Graphics/SVG/1.1/DTD/svg11.dtd">
<!-- Generated by graphviz version 2.26.3 (20100126.1600)
 -->
<!-- Title: G Pages: 1 -->
<svg width="920pt" height="1182pt"
 viewBox="0.00 0.00 920.00 1182.00" xmlns="http://www.w3.org/2000/svg" xmlns:xlink="http://www.w3.org/1999/xlink">
<g id="graph1" class="graph" transform="scale(1 1) rotate(0) translate(4 1178)">
<title>G</title>
<polygon fill="white" stroke="white" points="-4,5 -4,-1178 917,-1178 917,5 -4,5"/>
<g id="graph2" class="cluster"><title>cluster_Global</title>
<polyline fill="none" stroke="gray" points="372,-444 892,-444 "/>
<path fill="none" stroke="gray" d="M892,-444C898,-444 904,-450 904,-456"/>
<polyline fill="none" stroke="gray" points="904,-456 904,-1154 "/>
<path fill="none" stroke="gray" d="M904,-1154C904,-1160 898,-1166 892,-1166"/>
<polyline fill="none" stroke="gray" points="892,-1166 372,-1166 "/>
<path fill="none" stroke="gray" d="M372,-1166C366,-1166 360,-1160 360,-1154"/>
<polyline fill="none" stroke="gray" points="360,-1154 360,-456 "/>
<path fill="none" stroke="gray" d="M360,-456C360,-450 366,-444 372,-444"/>
<text text-anchor="middle" x="632" y="-1152.1" font-family="Times Roman,serif" font-size="11.00" fill="gray">Global</text>
</g>
<!-- \\ElasticsearchHelper -->
<g id="node2" class="node"><title>\\ElasticsearchHelper</title>
<polygon fill="none" stroke="black" points="858,-920 714,-920 714,-884 858,-884 858,-920"/>
<text text-anchor="middle" x="786" y="-899.1" font-family="Courier,monospace" font-size="11.00">ElasticsearchHelper</text>
</g>
<!-- \\HtmlHelper -->
<g id="node18" class="node"><title>\\HtmlHelper</title>
<ellipse fill="none" stroke="black" cx="437" cy="-418" rx="70.0036" ry="18.3848"/>
<text text-anchor="middle" x="437" y="-414.4" font-family="Times Roman,serif" font-size="14.00" fill="gray">\HtmlHelper</text>
</g>
<!-- \\ElasticsearchHelper&#45;&gt;\\HtmlHelper -->
<g id="edge3" class="edge"><title>\\ElasticsearchHelper&#45;&gt;\\HtmlHelper</title>
<path fill="none" stroke="black" d="M713.253,-896.652C699.25,-892.436 685.888,-885.676 676,-875 542.845,-731.224 744.838,-576.259 604,-440 579.334,-416.136 542.187,-409.529 509.185,-409.371"/>
<polygon fill="none" stroke="black" points="509.043,-405.873 499.095,-409.518 509.145,-412.872 509.043,-405.873"/>
</g>
<!-- \\ElasticsearchController -->
<g id="node3" class="node"><title>\\ElasticsearchController</title>
<polygon fill="none" stroke="black" points="872,-866 700,-866 700,-830 872,-830 872,-866"/>
<text text-anchor="middle" x="786" y="-845.1" font-family="Courier,monospace" font-size="11.00">ElasticsearchController</text>
</g>
<!-- \\HttpSourceController -->
<g id="node20" class="node"><title>\\HttpSourceController</title>
<ellipse fill="none" stroke="black" cx="437" cy="-364" rx="118.794" ry="18.3848"/>
<text text-anchor="middle" x="437" y="-360.4" font-family="Times Roman,serif" font-size="14.00" fill="gray">\HttpSourceController</text>
</g>
<!-- \\ElasticsearchController&#45;&gt;\\HttpSourceController -->
<g id="edge5" class="edge"><title>\\ElasticsearchController&#45;&gt;\\HttpSourceController</title>
<path fill="none" stroke="black" d="M699.94,-837.688C690.959,-833.629 682.688,-828.207 676,-821 544.201,-678.956 741.401,-527.632 604,-391 593.34,-380.4 580.266,-372.959 566.17,-367.838"/>
<polygon fill="none" stroke="black" points="566.856,-364.382 556.265,-364.653 564.713,-371.046 566.856,-364.382"/>
</g>
<!-- \\ElasticsearchArticleFixture -->
<g id="node4" class="node"><title>\\ElasticsearchArticleFixture</title>
<polygon fill="none" stroke="black" points="885,-812 687,-812 687,-776 885,-776 885,-812"/>
<text text-anchor="middle" x="786" y="-791.1" font-family="Courier,monospace" font-size="11.00">ElasticsearchArticleFixture</text>
</g>
<!-- \\HttpSourceTestFixture -->
<g id="node22" class="node"><title>\\HttpSourceTestFixture</title>
<ellipse fill="none" stroke="black" cx="437" cy="-310" rx="123.951" ry="18.3848"/>
<text text-anchor="middle" x="437" y="-306.4" font-family="Times Roman,serif" font-size="14.00" fill="gray">\HttpSourceTestFixture</text>
</g>
<!-- \\ElasticsearchArticleFixture&#45;&gt;\\HttpSourceTestFixture -->
<g id="edge7" class="edge"><title>\\ElasticsearchArticleFixture&#45;&gt;\\HttpSourceTestFixture</title>
<path fill="none" stroke="black" d="M686.149,-775.854C682.488,-773.253 679.076,-770.315 676,-767 544.201,-624.956 741.401,-473.632 604,-337 594.458,-327.511 582.981,-320.554 570.569,-315.526"/>
<polygon fill="none" stroke="black" points="571.505,-312.144 560.911,-312.048 569.133,-318.729 571.505,-312.144"/>
</g>
<!-- \\AllElasticsearchSourceTest -->
<g id="node5" class="node"><title>\\AllElasticsearchSourceTest</title>
<polygon fill="none" stroke="black" points="882,-758 690,-758 690,-722 882,-722 882,-758"/>
<text text-anchor="middle" x="786" y="-737.1" font-family="Courier,monospace" font-size="11.00">AllElasticsearchSourceTest</text>
</g>
<!-- \\PHPUnit_Framework_TestSuite -->
<g id="node24" class="node"><title>\\PHPUnit_Framework_TestSuite</title>
<ellipse fill="none" stroke="black" cx="437" cy="-256" rx="166.877" ry="18.3848"/>
<text text-anchor="middle" x="437" y="-252.4" font-family="Times Roman,serif" font-size="14.00" fill="gray">\PHPUnit_Framework_TestSuite</text>
</g>
<!-- \\AllElasticsearchSourceTest&#45;&gt;\\PHPUnit_Framework_TestSuite -->
<g id="edge9" class="edge"><title>\\AllElasticsearchSourceTest&#45;&gt;\\PHPUnit_Framework_TestSuite</title>
<path fill="none" stroke="black" d="M689.559,-724.136C684.595,-721.006 680.013,-717.324 676,-713 544.201,-570.956 741.401,-419.632 604,-283 599.285,-278.311 594.098,-274.241 588.559,-270.716"/>
<polygon fill="none" stroke="black" points="590.006,-267.512 579.582,-265.615 586.547,-273.599 590.006,-267.512"/>
</g>
<!-- \\ElasticsearchHelperTest -->
<g id="node6" class="node"><title>\\ElasticsearchHelperTest</title>
<polygon fill="none" stroke="black" points="872,-704 700,-704 700,-668 872,-668 872,-704"/>
<text text-anchor="middle" x="786" y="-683.1" font-family="Courier,monospace" font-size="11.00">ElasticsearchHelperTest</text>
</g>
<!-- \\CakeTestCase -->
<g id="node26" class="node"><title>\\CakeTestCase</title>
<ellipse fill="none" stroke="black" cx="99" cy="-210" rx="82.0244" ry="18.3848"/>
<text text-anchor="middle" x="99" y="-206.4" font-family="Times Roman,serif" font-size="14.00" fill="gray">\CakeTestCase</text>
</g>
<!-- \\ElasticsearchHelperTest&#45;&gt;\\CakeTestCase -->
<g id="edge11" class="edge"><title>\\ElasticsearchHelperTest&#45;&gt;\\CakeTestCase</title>
<path fill="none" stroke="black" d="M699.94,-675.688C690.959,-671.629 682.688,-666.207 676,-659 544.201,-516.956 749.519,-356.952 604,-229 573.789,-202.436 327.653,-204.183 190.497,-207.309"/>
<polygon fill="none" stroke="black" points="190.324,-203.812 180.409,-207.546 190.489,-210.81 190.324,-203.812"/>
</g>
<!-- \\ElasticsearchControllerTest -->
<g id="node7" class="node"><title>\\ElasticsearchControllerTest</title>
<polygon fill="none" stroke="black" points="885,-650 687,-650 687,-614 885,-614 885,-650"/>
<text text-anchor="middle" x="786" y="-629.1" font-family="Courier,monospace" font-size="11.00">ElasticsearchControllerTest</text>
</g>
<!-- \\ControllerTestCase -->
<g id="node28" class="node"><title>\\ControllerTestCase</title>
<ellipse fill="none" stroke="black" cx="437" cy="-164" rx="106.773" ry="18.3848"/>
<text text-anchor="middle" x="437" y="-160.4" font-family="Times Roman,serif" font-size="14.00" fill="gray">\ControllerTestCase</text>
</g>
<!-- \\ElasticsearchControllerTest&#45;&gt;\\ControllerTestCase -->
<g id="edge13" class="edge"><title>\\ElasticsearchControllerTest&#45;&gt;\\ControllerTestCase</title>
<path fill="none" stroke="black" d="M686.183,-613.822C682.513,-611.23 679.09,-608.303 676,-605 549.894,-470.224 733.526,-327.492 604,-196 590.328,-182.12 572.607,-173.27 553.832,-167.779"/>
<polygon fill="none" stroke="black" points="554.493,-164.335 543.934,-165.205 552.731,-171.109 554.493,-164.335"/>
</g>
<!-- \\ElasticsearchSourceTest -->
<g id="node8" class="node"><title>\\ElasticsearchSourceTest</title>
<polygon fill="none" stroke="black" points="872,-596 700,-596 700,-560 872,-560 872,-596"/>
<text text-anchor="middle" x="786" y="-575.1" font-family="Courier,monospace" font-size="11.00">ElasticsearchSourceTest</text>
</g>
<!-- \\ElasticsearchSourceTest&#45;&gt;\\CakeTestCase -->
<g id="edge15" class="edge"><title>\\ElasticsearchSourceTest&#45;&gt;\\CakeTestCase</title>
<path fill="none" stroke="black" d="M699.984,-567.647C690.995,-563.595 682.71,-558.186 676,-551 548.539,-414.494 746.927,-257.216 604,-137 547.198,-89.2243 342.717,-122.128 270,-137 222.159,-146.785 171.147,-170.496 137.417,-188.259"/>
<polygon fill="none" stroke="black" points="135.545,-185.291 128.379,-193.094 138.847,-191.463 135.545,-185.291"/>
</g>
<!-- \\ElasticsearchIndicesStatusTest -->
<g id="node9" class="node"><title>\\ElasticsearchIndicesStatusTest</title>
<polygon fill="none" stroke="black" points="895,-974 677,-974 677,-938 895,-938 895,-974"/>
<text text-anchor="middle" x="786" y="-953.1" font-family="Courier,monospace" font-size="11.00">ElasticsearchIndicesStatusTest</text>
</g>
<!-- \\ElasticsearchTest -->
<g id="node11" class="node"><title>\\ElasticsearchTest</title>
<polygon fill="none" stroke="black" points="503,-974 371,-974 371,-938 503,-938 503,-974"/>
<text text-anchor="start" x="403" y="-961.433" font-family="Courier,monospace" font-size="11.00">«abstract»</text>
<text text-anchor="start" x="379.5" y="-948.233" font-family="Courier,monospace" font-size="11.00">ElasticsearchTest</text>
</g>
<!-- \\ElasticsearchIndicesStatusTest&#45;&gt;\\ElasticsearchTest -->
<g id="edge17" class="edge"><title>\\ElasticsearchIndicesStatusTest&#45;&gt;\\ElasticsearchTest</title>
<path fill="none" stroke="black" d="M676.053,-956C623.188,-956 561.122,-956 513.482,-956"/>
<polygon fill="none" stroke="black" points="513.238,-952.5 503.238,-956 513.237,-959.5 513.238,-952.5"/>
</g>
<!-- \\ElasticsearchDocumentTest -->
<g id="node10" class="node"><title>\\ElasticsearchDocumentTest</title>
<polygon fill="none" stroke="black" points="878,-1028 694,-1028 694,-992 878,-992 878,-1028"/>
<text text-anchor="middle" x="786" y="-1007.1" font-family="Courier,monospace" font-size="11.00">ElasticsearchDocumentTest</text>
</g>
<!-- \\ElasticsearchDocumentTest&#45;&gt;\\ElasticsearchTest -->
<g id="edge19" class="edge"><title>\\ElasticsearchDocumentTest&#45;&gt;\\ElasticsearchTest</title>
<path fill="none" stroke="black" d="M693.391,-995.671C637.141,-986.967 566.209,-975.992 513.219,-967.793"/>
<polygon fill="none" stroke="black" points="513.624,-964.314 503.206,-966.244 512.553,-971.232 513.624,-964.314"/>
</g>
<!-- \\ElasticsearchTest&#45;&gt;\\CakeTestCase -->
<g id="edge21" class="edge"><title>\\ElasticsearchTest&#45;&gt;\\CakeTestCase</title>
<path fill="none" stroke="black" d="M370.632,-963.882C336.602,-964.188 296.794,-958.217 270,-934 163.156,-837.432 112.692,-359.65 101.463,-238.145"/>
<polygon fill="none" stroke="black" points="104.944,-237.78 100.553,-228.138 97.9732,-238.414 104.944,-237.78"/>
</g>
<!-- \\ElasticsearchModel -->
<g id="node12" class="node"><title>\\ElasticsearchModel</title>
<polygon fill="none" stroke="black" points="506,-1109 368,-1109 368,-1073 506,-1073 506,-1109"/>
<text text-anchor="middle" x="437" y="-1088.1" font-family="Courier,monospace" font-size="11.00">ElasticsearchModel</text>
</g>
<!-- \\HttpSourceModel -->
<g id="node34" class="node"><title>\\HttpSourceModel</title>
<ellipse fill="none" stroke="black" cx="99" cy="-1091" rx="98.9949" ry="18.3848"/>
<text text-anchor="middle" x="99" y="-1087.4" font-family="Times Roman,serif" font-size="14.00" fill="gray">\HttpSourceModel</text>
</g>
<!-- \\ElasticsearchModel&#45;&gt;\\HttpSourceModel -->
<g id="edge23" class="edge"><title>\\ElasticsearchModel&#45;&gt;\\HttpSourceModel</title>
<path fill="none" stroke="black" d="M367.785,-1091C321.88,-1091 260.671,-1091 208.26,-1091"/>
<polygon fill="none" stroke="black" points="208.243,-1087.5 198.243,-1091 208.243,-1094.5 208.243,-1087.5"/>
</g>
<!-- \\ElasticsearchDocument -->
<g id="node13" class="node"><title>\\ElasticsearchDocument</title>
<polygon fill="none" stroke="black" points="865,-1082 707,-1082 707,-1046 865,-1046 865,-1082"/>
<text text-anchor="middle" x="786" y="-1061.1" font-family="Courier,monospace" font-size="11.00">ElasticsearchDocument</text>
</g>
<!-- \\ElasticsearchDocument&#45;&gt;\\ElasticsearchModel -->
<g id="edge25" class="edge"><title>\\ElasticsearchDocument&#45;&gt;\\ElasticsearchModel</title>
<path fill="none" stroke="black" d="M706.806,-1070.13C649.795,-1074.54 573.205,-1080.46 516.194,-1084.87"/>
<polygon fill="none" stroke="black" points="515.845,-1081.39 506.145,-1085.65 516.385,-1088.37 515.845,-1081.39"/>
</g>
<!-- \\ElasticsearchSource -->
<g id="node14" class="node"><title>\\ElasticsearchSource</title>
<polygon fill="none" stroke="black" points="858,-542 714,-542 714,-506 858,-506 858,-542"/>
<text text-anchor="middle" x="786" y="-521.1" font-family="Courier,monospace" font-size="11.00">ElasticsearchSource</text>
</g>
<!-- \\HttpSource -->
<g id="node37" class="node"><title>\\HttpSource</title>
<ellipse fill="none" stroke="black" cx="437" cy="-72" rx="70.0036" ry="18.3848"/>
<text text-anchor="middle" x="437" y="-68.4" font-family="Times Roman,serif" font-size="14.00" fill="gray">\HttpSource</text>
</g>
<!-- \\ElasticsearchSource&#45;&gt;\\HttpSource -->
<g id="edge27" class="edge"><title>\\ElasticsearchSource&#45;&gt;\\HttpSource</title>
<path fill="none" stroke="black" d="M713.391,-518.523C699.38,-514.315 685.979,-507.591 676,-497 554.227,-367.757 729.052,-230.073 604,-104 581.114,-80.9273 547.029,-71.7808 515.61,-68.8498"/>
<polygon fill="none" stroke="black" points="515.75,-65.3508 505.52,-68.1069 515.236,-72.3319 515.75,-65.3508"/>
</g>
<!-- \\ElasticsearchConnection -->
<g id="node15" class="node"><title>\\ElasticsearchConnection</title>
<polygon fill="none" stroke="black" points="872,-488 700,-488 700,-452 872,-452 872,-488"/>
<text text-anchor="middle" x="786" y="-467.1" font-family="Courier,monospace" font-size="11.00">ElasticsearchConnection</text>
</g>
<!-- \\HttpSourceConnection -->
<g id="node39" class="node"><title>\\HttpSourceConnection</title>
<ellipse fill="none" stroke="black" cx="437" cy="-18" rx="125.158" ry="18.3848"/>
<text text-anchor="middle" x="437" y="-14.4" font-family="Times Roman,serif" font-size="14.00" fill="gray">\HttpSourceConnection</text>
</g>
<!-- \\ElasticsearchConnection&#45;&gt;\\HttpSourceConnection -->
<g id="edge29" class="edge"><title>\\ElasticsearchConnection&#45;&gt;\\HttpSourceConnection</title>
<path fill="none" stroke="black" d="M784.274,-451.808C776.913,-385.175 741.884,-152.73 604,-45 593.199,-36.5608 580.785,-30.3013 567.706,-25.7072"/>
<polygon fill="none" stroke="black" points="568.669,-22.3408 558.078,-22.6491 566.549,-29.0123 568.669,-22.3408"/>
</g>
<!-- \\ElasticsearchIndicesStatus -->
<g id="node16" class="node"><title>\\ElasticsearchIndicesStatus</title>
<polygon fill="none" stroke="black" points="882,-1136 690,-1136 690,-1100 882,-1100 882,-1136"/>
<text text-anchor="middle" x="786" y="-1115.1" font-family="Courier,monospace" font-size="11.00">ElasticsearchIndicesStatus</text>
</g>
<!-- \\ElasticsearchIndicesStatus&#45;&gt;\\ElasticsearchModel -->
<g id="edge31" class="edge"><title>\\ElasticsearchIndicesStatus&#45;&gt;\\ElasticsearchModel</title>
<path fill="none" stroke="black" d="M689.71,-1110.55C635.14,-1106.33 567.704,-1101.11 516.222,-1097.13"/>
<polygon fill="none" stroke="black" points="516.388,-1093.63 506.147,-1096.35 515.848,-1100.61 516.388,-1093.63"/>
</g>
</g>
</svg>
