<?xml version="1.0" encoding="UTF-8" standalone="no"?>
<!DOCTYPE svg PUBLIC "-//W3C//DTD SVG 1.1//EN"
 "http://www.w3.org/Graphics/SVG/1.1/DTD/svg11.dtd">
<!-- Generated by graphviz version 2.26.3 (20100126.1600)
 -->
<!-- Title: G Pages: 1 -->
<svg width="920pt" height="1519pt"
 viewBox="0.00 0.00 920.00 1519.48" xmlns="http://www.w3.org/2000/svg" xmlns:xlink="http://www.w3.org/1999/xlink">
<g id="graph1" class="graph" transform="scale(1 1) rotate(0) translate(4 1515.48)">
<title>G</title>
<polygon fill="white" stroke="white" points="-4,5 -4,-1515.48 917,-1515.48 917,5 -4,5"/>
<g id="graph2" class="cluster"><title>cluster_Global</title>
<polyline fill="none" stroke="gray" points="372,-457.484 892,-457.484 "/>
<path fill="none" stroke="gray" d="M892,-457.484C898,-457.484 904,-463.484 904,-469.484"/>
<polyline fill="none" stroke="gray" points="904,-469.484 904,-1491.48 "/>
<path fill="none" stroke="gray" d="M904,-1491.48C904,-1497.48 898,-1503.48 892,-1503.48"/>
<polyline fill="none" stroke="gray" points="892,-1503.48 372,-1503.48 "/>
<path fill="none" stroke="gray" d="M372,-1503.48C366,-1503.48 360,-1497.48 360,-1491.48"/>
<polyline fill="none" stroke="gray" points="360,-1491.48 360,-469.484 "/>
<path fill="none" stroke="gray" d="M360,-469.484C360,-463.484 366,-457.484 372,-457.484"/>
<text text-anchor="middle" x="632" y="-1489.58" font-family="Times Roman,serif" font-size="11.00" fill="gray">Global</text>
</g>
<!-- \\ElasticsearchAlias -->
<g id="node2" class="node"><title>\\ElasticsearchAlias</title>
<polygon fill="none" stroke="black" points="855,-1473.48 717,-1473.48 717,-1437.48 855,-1437.48 855,-1473.48"/>
<text text-anchor="middle" x="786" y="-1452.58" font-family="Courier,monospace" font-size="11.00">ElasticsearchAlias</text>
</g>
<!-- \\ElasticsearchModel -->
<g id="node4" class="node"><title>\\ElasticsearchModel</title>
<polygon fill="none" stroke="black" points="506,-1392.48 368,-1392.48 368,-1356.48 506,-1356.48 506,-1392.48"/>
<text text-anchor="middle" x="437" y="-1371.58" font-family="Courier,monospace" font-size="11.00">ElasticsearchModel</text>
</g>
<!-- \\ElasticsearchAlias&#45;&gt;\\ElasticsearchModel -->
<g id="edge3" class="edge"><title>\\ElasticsearchAlias&#45;&gt;\\ElasticsearchModel</title>
<path fill="none" stroke="black" d="M716.632,-1439.38C658.822,-1425.97 576.471,-1406.85 516.106,-1392.84"/>
<polygon fill="none" stroke="black" points="516.77,-1389.4 506.237,-1390.55 515.187,-1396.22 516.77,-1389.4"/>
</g>
<!-- \\ElasticsearchDocument -->
<g id="node3" class="node"><title>\\ElasticsearchDocument</title>
<polygon fill="none" stroke="black" points="865,-1419.48 707,-1419.48 707,-1383.48 865,-1383.48 865,-1419.48"/>
<text text-anchor="middle" x="786" y="-1398.58" font-family="Courier,monospace" font-size="11.00">ElasticsearchDocument</text>
</g>
<!-- \\ElasticsearchDocument&#45;&gt;\\ElasticsearchModel -->
<g id="edge5" class="edge"><title>\\ElasticsearchDocument&#45;&gt;\\ElasticsearchModel</title>
<path fill="none" stroke="black" d="M706.806,-1395.36C649.795,-1390.95 573.205,-1385.02 516.194,-1380.61"/>
<polygon fill="none" stroke="black" points="516.385,-1377.11 506.145,-1379.83 515.845,-1384.09 516.385,-1377.11"/>
</g>
<!-- \\HttpSourceModel -->
<g id="node26" class="node"><title>\\HttpSourceModel</title>
<ellipse fill="none" stroke="black" cx="99" cy="-1374.48" rx="98.9949" ry="18.3848"/>
<text text-anchor="middle" x="99" y="-1370.88" font-family="Times Roman,serif" font-size="14.00" fill="gray">\HttpSourceModel</text>
</g>
<!-- \\ElasticsearchModel&#45;&gt;\\HttpSourceModel -->
<g id="edge7" class="edge"><title>\\ElasticsearchModel&#45;&gt;\\HttpSourceModel</title>
<path fill="none" stroke="black" d="M367.785,-1374.48C321.88,-1374.48 260.671,-1374.48 208.26,-1374.48"/>
<polygon fill="none" stroke="black" points="208.243,-1370.98 198.243,-1374.48 208.243,-1377.98 208.243,-1370.98"/>
</g>
<!-- \\ElasticsearchIndex -->
<g id="node5" class="node"><title>\\ElasticsearchIndex</title>
<polygon fill="none" stroke="black" points="855,-1365.48 717,-1365.48 717,-1329.48 855,-1329.48 855,-1365.48"/>
<text text-anchor="middle" x="786" y="-1344.58" font-family="Courier,monospace" font-size="11.00">ElasticsearchIndex</text>
</g>
<!-- \\ElasticsearchIndex&#45;&gt;\\ElasticsearchModel -->
<g id="edge9" class="edge"><title>\\ElasticsearchIndex&#45;&gt;\\ElasticsearchModel</title>
<path fill="none" stroke="black" d="M716.632,-1352.85C658.941,-1357.31 576.81,-1363.67 516.48,-1368.33"/>
<polygon fill="none" stroke="black" points="515.937,-1364.87 506.237,-1369.13 516.477,-1371.85 515.937,-1364.87"/>
</g>
<!-- \\ElasticsearchIndicesStatus -->
<g id="node6" class="node"><title>\\ElasticsearchIndicesStatus</title>
<polygon fill="none" stroke="black" points="882,-1311.48 690,-1311.48 690,-1275.48 882,-1275.48 882,-1311.48"/>
<text text-anchor="middle" x="786" y="-1290.58" font-family="Courier,monospace" font-size="11.00">ElasticsearchIndicesStatus</text>
</g>
<!-- \\ElasticsearchIndicesStatus&#45;&gt;\\ElasticsearchModel -->
<g id="edge11" class="edge"><title>\\ElasticsearchIndicesStatus&#45;&gt;\\ElasticsearchModel</title>
<path fill="none" stroke="black" d="M708.112,-1311.56C650.855,-1324.85 573.333,-1342.84 515.85,-1356.18"/>
<polygon fill="none" stroke="black" points="515.032,-1352.78 506.083,-1358.45 516.615,-1359.6 515.032,-1352.78"/>
</g>
<!-- \\ElasticsearchConnection -->
<g id="node7" class="node"><title>\\ElasticsearchConnection</title>
<polygon fill="none" stroke="black" points="872,-1041.48 700,-1041.48 700,-1005.48 872,-1005.48 872,-1041.48"/>
<text text-anchor="middle" x="786" y="-1020.58" font-family="Courier,monospace" font-size="11.00">ElasticsearchConnection</text>
</g>
<!-- \\HttpSourceConnection -->
<g id="node30" class="node"><title>\\HttpSourceConnection</title>
<ellipse fill="none" stroke="black" cx="437" cy="-431.484" rx="125.158" ry="18.3848"/>
<text text-anchor="middle" x="437" y="-427.884" font-family="Times Roman,serif" font-size="14.00" fill="gray">\HttpSourceConnection</text>
</g>
<!-- \\ElasticsearchConnection&#45;&gt;\\HttpSourceConnection -->
<g id="edge13" class="edge"><title>\\ElasticsearchConnection&#45;&gt;\\HttpSourceConnection</title>
<path fill="none" stroke="black" d="M699.968,-1013.51C690.924,-1009.4 682.629,-1003.88 676,-996.484 513.479,-815.231 776.215,-625.553 604,-453.484 594.521,-444.013 583.085,-437.227 570.697,-432.47"/>
<polygon fill="none" stroke="black" points="571.649,-429.097 561.055,-429.216 569.41,-435.73 571.649,-429.097"/>
</g>
<!-- \\ElasticsearchSource -->
<g id="node8" class="node"><title>\\ElasticsearchSource</title>
<polygon fill="none" stroke="black" points="858,-987.484 714,-987.484 714,-951.484 858,-951.484 858,-987.484"/>
<text text-anchor="middle" x="786" y="-966.584" font-family="Courier,monospace" font-size="11.00">ElasticsearchSource</text>
</g>
<!-- \\HttpSource -->
<g id="node32" class="node"><title>\\HttpSource</title>
<ellipse fill="none" stroke="black" cx="437" cy="-377.484" rx="70.0036" ry="18.3848"/>
<text text-anchor="middle" x="437" y="-373.884" font-family="Times Roman,serif" font-size="14.00" fill="gray">\HttpSource</text>
</g>
<!-- \\ElasticsearchSource&#45;&gt;\\HttpSource -->
<g id="edge15" class="edge"><title>\\ElasticsearchSource&#45;&gt;\\HttpSource</title>
<path fill="none" stroke="black" d="M713.284,-964.452C699.193,-960.228 685.787,-953.385 676,-942.484 514.841,-762.968 772.244,-577.377 604,-404.484 580.62,-380.458 544.888,-372.489 512.467,-371.036"/>
<polygon fill="none" stroke="black" points="512.16,-367.527 502.077,-370.781 511.988,-374.525 512.16,-367.527"/>
</g>
<!-- \\ElasticsearchController -->
<g id="node9" class="node"><title>\\ElasticsearchController</title>
<polygon fill="none" stroke="black" points="872,-933.484 700,-933.484 700,-897.484 872,-897.484 872,-933.484"/>
<text text-anchor="middle" x="786" y="-912.584" font-family="Courier,monospace" font-size="11.00">ElasticsearchController</text>
</g>
<!-- \\HttpSourceController -->
<g id="node34" class="node"><title>\\HttpSourceController</title>
<ellipse fill="none" stroke="black" cx="437" cy="-323.484" rx="118.794" ry="18.3848"/>
<text text-anchor="middle" x="437" y="-319.884" font-family="Times Roman,serif" font-size="14.00" fill="gray">\HttpSourceController</text>
</g>
<!-- \\ElasticsearchController&#45;&gt;\\HttpSourceController -->
<g id="edge17" class="edge"><title>\\ElasticsearchController&#45;&gt;\\HttpSourceController</title>
<path fill="none" stroke="black" d="M699.977,-905.506C690.931,-901.398 682.634,-895.873 676,-888.484 514.841,-708.968 772.244,-523.377 604,-350.484 593.331,-339.52 580.089,-331.9 565.764,-326.716"/>
<polygon fill="none" stroke="black" points="566.801,-323.374 556.209,-323.652 564.663,-330.039 566.801,-323.374"/>
</g>
<!-- \\ElasticsearchHelper -->
<g id="node10" class="node"><title>\\ElasticsearchHelper</title>
<polygon fill="none" stroke="black" points="858,-879.484 714,-879.484 714,-843.484 858,-843.484 858,-879.484"/>
<text text-anchor="middle" x="786" y="-858.584" font-family="Courier,monospace" font-size="11.00">ElasticsearchHelper</text>
</g>
<!-- \\HtmlHelper -->
<g id="node36" class="node"><title>\\HtmlHelper</title>
<ellipse fill="none" stroke="black" cx="437" cy="-269.484" rx="70.0036" ry="18.3848"/>
<text text-anchor="middle" x="437" y="-265.884" font-family="Times Roman,serif" font-size="14.00" fill="gray">\HtmlHelper</text>
</g>
<!-- \\ElasticsearchHelper&#45;&gt;\\HtmlHelper -->
<g id="edge19" class="edge"><title>\\ElasticsearchHelper&#45;&gt;\\HtmlHelper</title>
<path fill="none" stroke="black" d="M713.284,-856.452C699.193,-852.228 685.787,-845.385 676,-834.484 514.841,-654.968 772.244,-469.377 604,-296.484 580.62,-272.458 544.888,-264.489 512.467,-263.036"/>
<polygon fill="none" stroke="black" points="512.16,-259.527 502.077,-262.781 511.988,-266.525 512.16,-259.527"/>
</g>
<!-- \\ElasticsearchTest -->
<g id="node11" class="node"><title>\\ElasticsearchTest</title>
<polygon fill="none" stroke="black" points="503,-1149.48 371,-1149.48 371,-1113.48 503,-1113.48 503,-1149.48"/>
<text text-anchor="start" x="403" y="-1136.92" font-family="Courier,monospace" font-size="11.00">«abstract»</text>
<text text-anchor="start" x="379.5" y="-1123.72" font-family="Courier,monospace" font-size="11.00">ElasticsearchTest</text>
</g>
<!-- \\CakeTestCase -->
<g id="node38" class="node"><title>\\CakeTestCase</title>
<ellipse fill="none" stroke="black" cx="99" cy="-115.484" rx="82.0244" ry="18.3848"/>
<text text-anchor="middle" x="99" y="-111.884" font-family="Times Roman,serif" font-size="14.00" fill="gray">\CakeTestCase</text>
</g>
<!-- \\ElasticsearchTest&#45;&gt;\\CakeTestCase -->
<g id="edge21" class="edge"><title>\\ElasticsearchTest&#45;&gt;\\CakeTestCase</title>
<path fill="none" stroke="black" d="M370.852,-1140.01C336.462,-1140.61 296.246,-1134.72 270,-1109.48 126.069,-971.112 102.873,-290.509 99.5231,-143.507"/>
<polygon fill="none" stroke="black" points="103.022,-143.413 99.3073,-133.49 96.0235,-143.563 103.022,-143.413"/>
</g>
<!-- \\ElasticsearchArticleFixture -->
<g id="node12" class="node"><title>\\ElasticsearchArticleFixture</title>
<polygon fill="none" stroke="black" points="885,-825.484 687,-825.484 687,-789.484 885,-789.484 885,-825.484"/>
<text text-anchor="middle" x="786" y="-804.584" font-family="Courier,monospace" font-size="11.00">ElasticsearchArticleFixture</text>
</g>
<!-- \\HttpSourceTestFixture -->
<g id="node40" class="node"><title>\\HttpSourceTestFixture</title>
<ellipse fill="none" stroke="black" cx="437" cy="-215.484" rx="123.951" ry="18.3848"/>
<text text-anchor="middle" x="437" y="-211.884" font-family="Times Roman,serif" font-size="14.00" fill="gray">\HttpSourceTestFixture</text>
</g>
<!-- \\ElasticsearchArticleFixture&#45;&gt;\\HttpSourceTestFixture -->
<g id="edge23" class="edge"><title>\\ElasticsearchArticleFixture&#45;&gt;\\HttpSourceTestFixture</title>
<path fill="none" stroke="black" d="M686.487,-789.804C682.681,-787.086 679.153,-783.996 676,-780.484 514.841,-600.968 772.244,-415.377 604,-242.484 594.615,-232.839 583.239,-225.782 570.887,-220.695"/>
<polygon fill="none" stroke="black" points="571.861,-217.325 561.267,-217.179 569.457,-223.9 571.861,-217.325"/>
</g>
<!-- \\ElasticsearchIndexFixture -->
<g id="node13" class="node"><title>\\ElasticsearchIndexFixture</title>
<polygon fill="none" stroke="black" points="878,-771.484 694,-771.484 694,-735.484 878,-735.484 878,-771.484"/>
<text text-anchor="middle" x="786" y="-750.584" font-family="Courier,monospace" font-size="11.00">ElasticsearchIndexFixture</text>
</g>
<!-- \\ElasticsearchIndexFixture&#45;&gt;\\HttpSourceTestFixture -->
<g id="edge25" class="edge"><title>\\ElasticsearchIndexFixture&#45;&gt;\\HttpSourceTestFixture</title>
<path fill="none" stroke="black" d="M693.499,-740.108C686.994,-736.486 681.032,-732.007 676,-726.484 529.536,-565.72 756.808,-397.231 604,-242.484 594.545,-232.908 583.124,-225.895 570.744,-220.835"/>
<polygon fill="none" stroke="black" points="571.702,-217.459 561.107,-217.335 569.312,-224.039 571.702,-217.459"/>
</g>
<!-- \\ElasticsearchAliasFixture -->
<g id="node14" class="node"><title>\\ElasticsearchAliasFixture</title>
<polygon fill="none" stroke="black" points="878,-717.484 694,-717.484 694,-681.484 878,-681.484 878,-717.484"/>
<text text-anchor="middle" x="786" y="-696.584" font-family="Courier,monospace" font-size="11.00">ElasticsearchAliasFixture</text>
</g>
<!-- \\ElasticsearchAliasFixture&#45;&gt;\\HttpSourceTestFixture -->
<g id="edge27" class="edge"><title>\\ElasticsearchAliasFixture&#45;&gt;\\HttpSourceTestFixture</title>
<path fill="none" stroke="black" d="M693.351,-685.866C686.922,-682.29 681.016,-677.889 676,-672.484 544.201,-530.439 741.401,-379.116 604,-242.484 594.458,-232.995 582.981,-226.038 570.569,-221.01"/>
<polygon fill="none" stroke="black" points="571.505,-217.627 560.911,-217.531 569.133,-224.213 571.505,-217.627"/>
</g>
<!-- \\AllElasticsearchSourceTest -->
<g id="node15" class="node"><title>\\AllElasticsearchSourceTest</title>
<polygon fill="none" stroke="black" points="882,-663.484 690,-663.484 690,-627.484 882,-627.484 882,-663.484"/>
<text text-anchor="middle" x="786" y="-642.584" font-family="Courier,monospace" font-size="11.00">AllElasticsearchSourceTest</text>
</g>
<!-- \\PHPUnit_Framework_TestSuite -->
<g id="node44" class="node"><title>\\PHPUnit_Framework_TestSuite</title>
<ellipse fill="none" stroke="black" cx="437" cy="-161.484" rx="166.877" ry="18.3848"/>
<text text-anchor="middle" x="437" y="-157.884" font-family="Times Roman,serif" font-size="14.00" fill="gray">\PHPUnit_Framework_TestSuite</text>
</g>
<!-- \\AllElasticsearchSourceTest&#45;&gt;\\PHPUnit_Framework_TestSuite -->
<g id="edge29" class="edge"><title>\\AllElasticsearchSourceTest&#45;&gt;\\PHPUnit_Framework_TestSuite</title>
<path fill="none" stroke="black" d="M689.559,-629.62C684.595,-626.49 680.013,-622.808 676,-618.484 544.201,-476.439 741.401,-325.116 604,-188.484 599.285,-183.795 594.098,-179.725 588.559,-176.2"/>
<polygon fill="none" stroke="black" points="590.006,-172.996 579.582,-171.099 586.547,-179.082 590.006,-172.996"/>
</g>
<!-- \\ElasticsearchIndicesStatusTest -->
<g id="node16" class="node"><title>\\ElasticsearchIndicesStatusTest</title>
<polygon fill="none" stroke="black" points="895,-1257.48 677,-1257.48 677,-1221.48 895,-1221.48 895,-1257.48"/>
<text text-anchor="middle" x="786" y="-1236.58" font-family="Courier,monospace" font-size="11.00">ElasticsearchIndicesStatusTest</text>
</g>
<!-- \\ElasticsearchIndicesStatusTest&#45;&gt;\\ElasticsearchTest -->
<g id="edge31" class="edge"><title>\\ElasticsearchIndicesStatusTest&#45;&gt;\\ElasticsearchTest</title>
<path fill="none" stroke="black" d="M708.845,-1221.44C697.782,-1218.59 686.572,-1215.57 676,-1212.48 613.829,-1194.35 543.771,-1170.16 495.663,-1152.94"/>
<polygon fill="none" stroke="black" points="496.636,-1149.57 486.042,-1149.49 494.271,-1156.16 496.636,-1149.57"/>
</g>
<!-- \\ElasticsearchDocumentTest -->
<g id="node17" class="node"><title>\\ElasticsearchDocumentTest</title>
<polygon fill="none" stroke="black" points="878,-1203.48 694,-1203.48 694,-1167.48 878,-1167.48 878,-1203.48"/>
<text text-anchor="middle" x="786" y="-1182.58" font-family="Courier,monospace" font-size="11.00">ElasticsearchDocumentTest</text>
</g>
<!-- \\ElasticsearchDocumentTest&#45;&gt;\\ElasticsearchTest -->
<g id="edge33" class="edge"><title>\\ElasticsearchDocumentTest&#45;&gt;\\ElasticsearchTest</title>
<path fill="none" stroke="black" d="M693.391,-1171.15C637.141,-1162.45 566.209,-1151.48 513.219,-1143.28"/>
<polygon fill="none" stroke="black" points="513.624,-1139.8 503.206,-1141.73 512.553,-1146.72 513.624,-1139.8"/>
</g>
<!-- \\ElasticsearchIndexTest -->
<g id="node18" class="node"><title>\\ElasticsearchIndexTest</title>
<polygon fill="none" stroke="black" points="868,-1149.48 704,-1149.48 704,-1113.48 868,-1113.48 868,-1149.48"/>
<text text-anchor="middle" x="786" y="-1128.58" font-family="Courier,monospace" font-size="11.00">ElasticsearchIndexTest</text>
</g>
<!-- \\ElasticsearchIndexTest&#45;&gt;\\ElasticsearchTest -->
<g id="edge35" class="edge"><title>\\ElasticsearchIndexTest&#45;&gt;\\ElasticsearchTest</title>
<path fill="none" stroke="black" d="M703.292,-1131.48C645.7,-1131.48 569.459,-1131.48 513.318,-1131.48"/>
<polygon fill="none" stroke="black" points="513.079,-1127.98 503.079,-1131.48 513.079,-1134.98 513.079,-1127.98"/>
</g>
<!-- \\ElasticsearchAliasTest -->
<g id="node19" class="node"><title>\\ElasticsearchAliasTest</title>
<polygon fill="none" stroke="black" points="868,-1095.48 704,-1095.48 704,-1059.48 868,-1059.48 868,-1095.48"/>
<text text-anchor="middle" x="786" y="-1074.58" font-family="Courier,monospace" font-size="11.00">ElasticsearchAliasTest</text>
</g>
<!-- \\ElasticsearchAliasTest&#45;&gt;\\ElasticsearchTest -->
<g id="edge37" class="edge"><title>\\ElasticsearchAliasTest&#45;&gt;\\ElasticsearchTest</title>
<path fill="none" stroke="black" d="M703.223,-1092.81C672.154,-1098.36 636.502,-1104.49 604,-1109.48 574.525,-1114.01 542.033,-1118.43 513.604,-1122.1"/>
<polygon fill="none" stroke="black" points="512.802,-1118.67 503.328,-1123.41 513.692,-1125.61 512.802,-1118.67"/>
</g>
<!-- \\ElasticsearchSourceTest -->
<g id="node20" class="node"><title>\\ElasticsearchSourceTest</title>
<polygon fill="none" stroke="black" points="872,-609.484 700,-609.484 700,-573.484 872,-573.484 872,-609.484"/>
<text text-anchor="middle" x="786" y="-588.584" font-family="Courier,monospace" font-size="11.00">ElasticsearchSourceTest</text>
</g>
<!-- \\ElasticsearchSourceTest&#45;&gt;\\CakeTestCase -->
<g id="edge39" class="edge"><title>\\ElasticsearchSourceTest&#45;&gt;\\CakeTestCase</title>
<path fill="none" stroke="black" d="M699.94,-581.172C690.959,-577.113 682.688,-571.691 676,-564.484 544.201,-422.439 749.519,-262.436 604,-134.484 573.789,-107.92 327.653,-109.666 190.497,-112.793"/>
<polygon fill="none" stroke="black" points="190.324,-109.296 180.409,-113.03 190.489,-116.294 190.324,-109.296"/>
</g>
<!-- \\ElasticsearchControllerTest -->
<g id="node21" class="node"><title>\\ElasticsearchControllerTest</title>
<polygon fill="none" stroke="black" points="885,-555.484 687,-555.484 687,-519.484 885,-519.484 885,-555.484"/>
<text text-anchor="middle" x="786" y="-534.584" font-family="Courier,monospace" font-size="11.00">ElasticsearchControllerTest</text>
</g>
<!-- \\ControllerTestCase -->
<g id="node51" class="node"><title>\\ControllerTestCase</title>
<ellipse fill="none" stroke="black" cx="437" cy="-69.4837" rx="106.773" ry="18.3848"/>
<text text-anchor="middle" x="437" y="-65.8837" font-family="Times Roman,serif" font-size="14.00" fill="gray">\ControllerTestCase</text>
</g>
<!-- \\ElasticsearchControllerTest&#45;&gt;\\ControllerTestCase -->
<g id="edge41" class="edge"><title>\\ElasticsearchControllerTest&#45;&gt;\\ControllerTestCase</title>
<path fill="none" stroke="black" d="M686.183,-519.306C682.513,-516.713 679.09,-513.786 676,-510.484 549.894,-375.708 733.526,-232.976 604,-101.484 590.328,-87.6042 572.607,-78.7541 553.832,-73.2629"/>
<polygon fill="none" stroke="black" points="554.493,-69.8184 543.934,-70.6886 552.731,-76.5931 554.493,-69.8184"/>
</g>
<!-- \\ElasticsearchHelperTest -->
<g id="node22" class="node"><title>\\ElasticsearchHelperTest</title>
<polygon fill="none" stroke="black" points="872,-501.484 700,-501.484 700,-465.484 872,-465.484 872,-501.484"/>
<text text-anchor="middle" x="786" y="-480.584" font-family="Courier,monospace" font-size="11.00">ElasticsearchHelperTest</text>
</g>
<!-- \\ElasticsearchHelperTest&#45;&gt;\\CakeTestCase -->
<g id="edge43" class="edge"><title>\\ElasticsearchHelperTest&#45;&gt;\\CakeTestCase</title>
<path fill="none" stroke="black" d="M785.171,-465.311C780.888,-395.525 755.099,-143.586 604,-42.4837 455.386,56.9564 227.16,-45.8075 137.27,-93.7244"/>
<polygon fill="none" stroke="black" points="135.39,-90.7617 128.256,-98.5942 138.717,-96.9204 135.39,-90.7617"/>
</g>
</g>
</svg>
