<?xml version="1.0" encoding="UTF-8" standalone="no"?>
<!DOCTYPE svg PUBLIC "-//W3C//DTD SVG 1.1//EN"
 "http://www.w3.org/Graphics/SVG/1.1/DTD/svg11.dtd">
<!-- Generated by graphviz version 2.26.3 (20100126.1600)
 -->
<!-- Title: G Pages: 1 -->
<svg width="920pt" height="836pt"
 viewBox="0.00 0.00 920.00 836.00" xmlns="http://www.w3.org/2000/svg" xmlns:xlink="http://www.w3.org/1999/xlink">
<g id="graph1" class="graph" transform="scale(1 1) rotate(0) translate(4 832)">
<title>G</title>
<polygon fill="white" stroke="white" points="-4,5 -4,-832 917,-832 917,5 -4,5"/>
<g id="graph2" class="cluster"><title>cluster_Global</title>
<polyline fill="none" stroke="gray" points="324,-260 892,-260 "/>
<path fill="none" stroke="gray" d="M892,-260C898,-260 904,-266 904,-272"/>
<polyline fill="none" stroke="gray" points="904,-272 904,-808 "/>
<path fill="none" stroke="gray" d="M904,-808C904,-814 898,-820 892,-820"/>
<polyline fill="none" stroke="gray" points="892,-820 324,-820 "/>
<path fill="none" stroke="gray" d="M324,-820C318,-820 312,-814 312,-808"/>
<polyline fill="none" stroke="gray" points="312,-808 312,-272 "/>
<path fill="none" stroke="gray" d="M312,-272C312,-266 318,-260 324,-260"/>
<text text-anchor="middle" x="608" y="-806.1" font-family="Times Roman,serif" font-size="11.00" fill="gray">Global</text>
</g>
<!-- \\ElasticsearchHelper -->
<g id="node2" class="node"><title>\\ElasticsearchHelper</title>
<polygon fill="none" stroke="black" points="858,-520 714,-520 714,-484 858,-484 858,-520"/>
<text text-anchor="middle" x="786" y="-499.1" font-family="Courier,monospace" font-size="11.00">ElasticsearchHelper</text>
</g>
<!-- \\HtmlHelper -->
<g id="node16" class="node"><title>\\HtmlHelper</title>
<ellipse fill="none" stroke="black" cx="437" cy="-234" rx="70.0036" ry="18.3848"/>
<text text-anchor="middle" x="437" y="-230.4" font-family="Times Roman,serif" font-size="14.00" fill="gray">\HtmlHelper</text>
</g>
<!-- \\ElasticsearchHelper&#45;&gt;\\HtmlHelper -->
<g id="edge3" class="edge"><title>\\ElasticsearchHelper&#45;&gt;\\HtmlHelper</title>
<path fill="none" stroke="black" d="M713.31,-495.113C699.635,-490.963 686.389,-484.619 676,-475 600.818,-405.391 682.886,-321.382 604,-256 578.706,-235.036 543.451,-228.234 511.85,-227.203"/>
<polygon fill="none" stroke="black" points="511.783,-223.702 501.735,-227.06 511.684,-230.701 511.783,-223.702"/>
</g>
<!-- \\ElasticsearchSourceAppController -->
<g id="node3" class="node"><title>\\ElasticsearchSourceAppController</title>
<polygon fill="none" stroke="black" points="553,-790 321,-790 321,-754 553,-754 553,-790"/>
<text text-anchor="middle" x="437" y="-769.1" font-family="Courier,monospace" font-size="11.00">ElasticsearchSourceAppController</text>
</g>
<!-- \\AppController -->
<g id="node18" class="node"><title>\\AppController</title>
<ellipse fill="none" stroke="black" cx="99" cy="-772" rx="82.0244" ry="18.3848"/>
<text text-anchor="middle" x="99" y="-768.4" font-family="Times Roman,serif" font-size="14.00" fill="gray">\AppController</text>
</g>
<!-- \\ElasticsearchSourceAppController&#45;&gt;\\AppController -->
<g id="edge5" class="edge"><title>\\ElasticsearchSourceAppController&#45;&gt;\\AppController</title>
<path fill="none" stroke="black" d="M320.206,-772C278.078,-772 231.15,-772 191.395,-772"/>
<polygon fill="none" stroke="black" points="191.184,-768.5 181.184,-772 191.184,-775.5 191.184,-768.5"/>
</g>
<!-- \\ElasticsearchController -->
<g id="node4" class="node"><title>\\ElasticsearchController</title>
<polygon fill="none" stroke="black" points="872,-790 700,-790 700,-754 872,-754 872,-790"/>
<text text-anchor="middle" x="786" y="-769.1" font-family="Courier,monospace" font-size="11.00">ElasticsearchController</text>
</g>
<!-- \\ElasticsearchController&#45;&gt;\\ElasticsearchSourceAppController -->
<g id="edge7" class="edge"><title>\\ElasticsearchController&#45;&gt;\\ElasticsearchSourceAppController</title>
<path fill="none" stroke="black" d="M699.73,-772C658.726,-772 608.903,-772 563.712,-772"/>
<polygon fill="none" stroke="black" points="563.544,-768.5 553.544,-772 563.544,-775.5 563.544,-768.5"/>
</g>
<!-- \\ElasticsearchArticleFixture -->
<g id="node5" class="node"><title>\\ElasticsearchArticleFixture</title>
<polygon fill="none" stroke="black" points="885,-466 687,-466 687,-430 885,-430 885,-466"/>
<text text-anchor="middle" x="786" y="-445.1" font-family="Courier,monospace" font-size="11.00">ElasticsearchArticleFixture</text>
</g>
<!-- \\HttpSourceTestFixture -->
<g id="node21" class="node"><title>\\HttpSourceTestFixture</title>
<ellipse fill="none" stroke="black" cx="437" cy="-180" rx="123.951" ry="18.3848"/>
<text text-anchor="middle" x="437" y="-176.4" font-family="Times Roman,serif" font-size="14.00" fill="gray">\HttpSourceTestFixture</text>
</g>
<!-- \\ElasticsearchArticleFixture&#45;&gt;\\HttpSourceTestFixture -->
<g id="edge9" class="edge"><title>\\ElasticsearchArticleFixture&#45;&gt;\\HttpSourceTestFixture</title>
<path fill="none" stroke="black" d="M687.782,-429.85C683.58,-427.262 679.619,-424.327 676,-421 602.13,-353.078 680.54,-271.898 604,-207 593.545,-198.135 581.351,-191.605 568.401,-186.854"/>
<polygon fill="none" stroke="black" points="569.444,-183.512 558.851,-183.7 567.249,-190.159 569.444,-183.512"/>
</g>
<!-- \\AllElasticsearchSourceTest -->
<g id="node6" class="node"><title>\\AllElasticsearchSourceTest</title>
<polygon fill="none" stroke="black" points="882,-412 690,-412 690,-376 882,-376 882,-412"/>
<text text-anchor="middle" x="786" y="-391.1" font-family="Courier,monospace" font-size="11.00">AllElasticsearchSourceTest</text>
</g>
<!-- \\PHPUnit_Framework_TestSuite -->
<g id="node23" class="node"><title>\\PHPUnit_Framework_TestSuite</title>
<ellipse fill="none" stroke="black" cx="437" cy="-126" rx="166.877" ry="18.3848"/>
<text text-anchor="middle" x="437" y="-122.4" font-family="Times Roman,serif" font-size="14.00" fill="gray">\PHPUnit_Framework_TestSuite</text>
</g>
<!-- \\AllElasticsearchSourceTest&#45;&gt;\\PHPUnit_Framework_TestSuite -->
<g id="edge11" class="edge"><title>\\AllElasticsearchSourceTest&#45;&gt;\\PHPUnit_Framework_TestSuite</title>
<path fill="none" stroke="black" d="M689.817,-377.065C684.856,-374.192 680.198,-370.86 676,-367 602.13,-299.078 680.54,-217.898 604,-153 598.302,-148.168 592.087,-144.031 585.515,-140.496"/>
<polygon fill="none" stroke="black" points="586.87,-137.263 576.346,-136.042 583.811,-143.56 586.87,-137.263"/>
</g>
<!-- \\ElasticsearchDocumentsTest -->
<g id="node7" class="node"><title>\\ElasticsearchDocumentsTest</title>
<polygon fill="none" stroke="black" points="882,-736 690,-736 690,-700 882,-700 882,-736"/>
<text text-anchor="middle" x="786" y="-715.1" font-family="Courier,monospace" font-size="11.00">ElasticsearchDocumentsTest</text>
</g>
<!-- \\ElasticsearchTest -->
<g id="node9" class="node"><title>\\ElasticsearchTest</title>
<polygon fill="none" stroke="black" points="503,-709 371,-709 371,-673 503,-673 503,-709"/>
<text text-anchor="start" x="403" y="-696.433" font-family="Courier,monospace" font-size="11.00">«abstract»</text>
<text text-anchor="start" x="379.5" y="-683.233" font-family="Courier,monospace" font-size="11.00">ElasticsearchTest</text>
</g>
<!-- \\ElasticsearchDocumentsTest&#45;&gt;\\ElasticsearchTest -->
<g id="edge13" class="edge"><title>\\ElasticsearchDocumentsTest&#45;&gt;\\ElasticsearchTest</title>
<path fill="none" stroke="black" d="M689.71,-710.551C634.1,-706.248 565.128,-700.912 513.296,-696.903"/>
<polygon fill="none" stroke="black" points="513.407,-693.401 503.167,-696.119 512.867,-700.38 513.407,-693.401"/>
</g>
<!-- \\ElasticsearchIndicesStatusTest -->
<g id="node8" class="node"><title>\\ElasticsearchIndicesStatusTest</title>
<polygon fill="none" stroke="black" points="895,-682 677,-682 677,-646 895,-646 895,-682"/>
<text text-anchor="middle" x="786" y="-661.1" font-family="Courier,monospace" font-size="11.00">ElasticsearchIndicesStatusTest</text>
</g>
<!-- \\ElasticsearchIndicesStatusTest&#45;&gt;\\ElasticsearchTest -->
<g id="edge15" class="edge"><title>\\ElasticsearchIndicesStatusTest&#45;&gt;\\ElasticsearchTest</title>
<path fill="none" stroke="black" d="M676.053,-672.506C623.188,-676.596 561.122,-681.397 513.482,-685.083"/>
<polygon fill="none" stroke="black" points="512.938,-681.615 503.238,-685.876 513.478,-688.594 512.938,-681.615"/>
</g>
<!-- \\CakeTestCase -->
<g id="node27" class="node"><title>\\CakeTestCase</title>
<ellipse fill="none" stroke="black" cx="99" cy="-691" rx="82.0244" ry="18.3848"/>
<text text-anchor="middle" x="99" y="-687.4" font-family="Times Roman,serif" font-size="14.00" fill="gray">\CakeTestCase</text>
</g>
<!-- \\ElasticsearchTest&#45;&gt;\\CakeTestCase -->
<g id="edge17" class="edge"><title>\\ElasticsearchTest&#45;&gt;\\CakeTestCase</title>
<path fill="none" stroke="black" d="M370.625,-691C319.39,-691 247.9,-691 191.123,-691"/>
<polygon fill="none" stroke="black" points="191.063,-687.5 181.063,-691 191.063,-694.5 191.063,-687.5"/>
</g>
<!-- \\ElasticsearchModel -->
<g id="node10" class="node"><title>\\ElasticsearchModel</title>
<polygon fill="none" stroke="black" points="506,-601 368,-601 368,-565 506,-565 506,-601"/>
<text text-anchor="middle" x="437" y="-580.1" font-family="Courier,monospace" font-size="11.00">ElasticsearchModel</text>
</g>
<!-- \\HttpSourceModel -->
<g id="node29" class="node"><title>\\HttpSourceModel</title>
<ellipse fill="none" stroke="black" cx="99" cy="-583" rx="98.9949" ry="18.3848"/>
<text text-anchor="middle" x="99" y="-579.4" font-family="Times Roman,serif" font-size="14.00" fill="gray">\HttpSourceModel</text>
</g>
<!-- \\ElasticsearchModel&#45;&gt;\\HttpSourceModel -->
<g id="edge19" class="edge"><title>\\ElasticsearchModel&#45;&gt;\\HttpSourceModel</title>
<path fill="none" stroke="black" d="M367.785,-583C321.88,-583 260.671,-583 208.26,-583"/>
<polygon fill="none" stroke="black" points="208.243,-579.5 198.243,-583 208.243,-586.5 208.243,-579.5"/>
</g>
<!-- \\ElasticsearchIndicesStatus -->
<g id="node11" class="node"><title>\\ElasticsearchIndicesStatus</title>
<polygon fill="none" stroke="black" points="882,-628 690,-628 690,-592 882,-592 882,-628"/>
<text text-anchor="middle" x="786" y="-607.1" font-family="Courier,monospace" font-size="11.00">ElasticsearchIndicesStatus</text>
</g>
<!-- \\ElasticsearchIndicesStatus&#45;&gt;\\ElasticsearchModel -->
<g id="edge21" class="edge"><title>\\ElasticsearchIndicesStatus&#45;&gt;\\ElasticsearchModel</title>
<path fill="none" stroke="black" d="M689.71,-602.551C635.14,-598.329 567.704,-593.112 516.222,-589.129"/>
<polygon fill="none" stroke="black" points="516.388,-585.631 506.147,-588.35 515.848,-592.611 516.388,-585.631"/>
</g>
<!-- \\ElasticsearchSource -->
<g id="node12" class="node"><title>\\ElasticsearchSource</title>
<polygon fill="none" stroke="black" points="858,-358 714,-358 714,-322 858,-322 858,-358"/>
<text text-anchor="middle" x="786" y="-337.1" font-family="Courier,monospace" font-size="11.00">ElasticsearchSource</text>
</g>
<!-- \\HttpSource -->
<g id="node32" class="node"><title>\\HttpSource</title>
<ellipse fill="none" stroke="black" cx="437" cy="-72" rx="70.0036" ry="18.3848"/>
<text text-anchor="middle" x="437" y="-68.4" font-family="Times Roman,serif" font-size="14.00" fill="gray">\HttpSource</text>
</g>
<!-- \\ElasticsearchSource&#45;&gt;\\HttpSource -->
<g id="edge23" class="edge"><title>\\ElasticsearchSource&#45;&gt;\\HttpSource</title>
<path fill="none" stroke="black" d="M713.361,-333.057C699.683,-328.911 686.422,-322.583 676,-313 602.13,-245.078 680.54,-163.898 604,-99 579.648,-78.3518 545.863,-70.3713 515.048,-68.0233"/>
<polygon fill="none" stroke="black" points="514.913,-64.5099 504.729,-67.4327 514.513,-71.4985 514.913,-64.5099"/>
</g>
<!-- \\ElasticsearchConnection -->
<g id="node13" class="node"><title>\\ElasticsearchConnection</title>
<polygon fill="none" stroke="black" points="872,-304 700,-304 700,-268 872,-268 872,-304"/>
<text text-anchor="middle" x="786" y="-283.1" font-family="Courier,monospace" font-size="11.00">ElasticsearchConnection</text>
</g>
<!-- \\HttpSourceConnection -->
<g id="node34" class="node"><title>\\HttpSourceConnection</title>
<ellipse fill="none" stroke="black" cx="437" cy="-18" rx="125.158" ry="18.3848"/>
<text text-anchor="middle" x="437" y="-14.4" font-family="Times Roman,serif" font-size="14.00" fill="gray">\HttpSourceConnection</text>
</g>
<!-- \\ElasticsearchConnection&#45;&gt;\\HttpSourceConnection -->
<g id="edge25" class="edge"><title>\\ElasticsearchConnection&#45;&gt;\\HttpSourceConnection</title>
<path fill="none" stroke="black" d="M778.171,-267.72C757.392,-221.638 696.071,-100.458 604,-45 591.429,-37.4279 577.403,-31.7831 562.968,-27.6017"/>
<polygon fill="none" stroke="black" points="563.486,-24.1181 552.923,-24.935 561.69,-30.8837 563.486,-24.1181"/>
</g>
<!-- \\ElasticsearchDocument -->
<g id="node14" class="node"><title>\\ElasticsearchDocument</title>
<polygon fill="none" stroke="black" points="865,-574 707,-574 707,-538 865,-538 865,-574"/>
<text text-anchor="middle" x="786" y="-553.1" font-family="Courier,monospace" font-size="11.00">ElasticsearchDocument</text>
</g>
<!-- \\ElasticsearchDocument&#45;&gt;\\ElasticsearchModel -->
<g id="edge27" class="edge"><title>\\ElasticsearchDocument&#45;&gt;\\ElasticsearchModel</title>
<path fill="none" stroke="black" d="M706.806,-562.127C649.795,-566.537 573.205,-572.463 516.194,-576.873"/>
<polygon fill="none" stroke="black" points="515.845,-573.39 506.145,-577.651 516.385,-580.369 515.845,-573.39"/>
</g>
</g>
</svg>
