<?xml version="1.0" encoding="UTF-8" standalone="no"?>
<!DOCTYPE svg PUBLIC "-//W3C//DTD SVG 1.1//EN"
 "http://www.w3.org/Graphics/SVG/1.1/DTD/svg11.dtd">
<!-- Generated by graphviz version 2.26.3 (20100126.1600)
 -->
<!-- Title: G Pages: 1 -->
<svg width="920pt" height="836pt"
 viewBox="0.00 0.00 920.00 836.00" xmlns="http://www.w3.org/2000/svg" xmlns:xlink="http://www.w3.org/1999/xlink">
<g id="graph1" class="graph" transform="scale(1 1) rotate(0) translate(4 832)">
<title>G</title>
<polygon fill="white" stroke="white" points="-4,5 -4,-832 917,-832 917,5 -4,5"/>
<g id="graph2" class="cluster"><title>cluster_Global</title>
<polyline fill="none" stroke="gray" points="324,-260 892,-260 "/>
<path fill="none" stroke="gray" d="M892,-260C898,-260 904,-266 904,-272"/>
<polyline fill="none" stroke="gray" points="904,-272 904,-808 "/>
<path fill="none" stroke="gray" d="M904,-808C904,-814 898,-820 892,-820"/>
<polyline fill="none" stroke="gray" points="892,-820 324,-820 "/>
<path fill="none" stroke="gray" d="M324,-820C318,-820 312,-814 312,-808"/>
<polyline fill="none" stroke="gray" points="312,-808 312,-272 "/>
<path fill="none" stroke="gray" d="M312,-272C312,-266 318,-260 324,-260"/>
<text text-anchor="middle" x="608" y="-806.1" font-family="Times Roman,serif" font-size="11.00" fill="gray">Global</text>
</g>
<!-- \\ElasticsearchModel -->
<g id="node2" class="node"><title>\\ElasticsearchModel</title>
<polygon fill="none" stroke="black" points="506,-763 368,-763 368,-727 506,-727 506,-763"/>
<text text-anchor="middle" x="437" y="-742.1" font-family="Courier,monospace" font-size="11.00">ElasticsearchModel</text>
</g>
<!-- \\HttpSourceModel -->
<g id="node16" class="node"><title>\\HttpSourceModel</title>
<ellipse fill="none" stroke="black" cx="99" cy="-745" rx="98.9949" ry="18.3848"/>
<text text-anchor="middle" x="99" y="-741.4" font-family="Times Roman,serif" font-size="14.00" fill="gray">\HttpSourceModel</text>
</g>
<!-- \\ElasticsearchModel&#45;&gt;\\HttpSourceModel -->
<g id="edge3" class="edge"><title>\\ElasticsearchModel&#45;&gt;\\HttpSourceModel</title>
<path fill="none" stroke="black" d="M367.785,-745C321.88,-745 260.671,-745 208.26,-745"/>
<polygon fill="none" stroke="black" points="208.243,-741.5 198.243,-745 208.243,-748.5 208.243,-741.5"/>
</g>
<!-- \\ElasticsearchDocument -->
<g id="node3" class="node"><title>\\ElasticsearchDocument</title>
<polygon fill="none" stroke="black" points="865,-790 707,-790 707,-754 865,-754 865,-790"/>
<text text-anchor="middle" x="786" y="-769.1" font-family="Courier,monospace" font-size="11.00">ElasticsearchDocument</text>
</g>
<!-- \\ElasticsearchDocument&#45;&gt;\\ElasticsearchModel -->
<g id="edge5" class="edge"><title>\\ElasticsearchDocument&#45;&gt;\\ElasticsearchModel</title>
<path fill="none" stroke="black" d="M706.806,-765.873C649.795,-761.463 573.205,-755.537 516.194,-751.127"/>
<polygon fill="none" stroke="black" points="516.385,-747.631 506.145,-750.349 515.845,-754.61 516.385,-747.631"/>
</g>
<!-- \\ElasticsearchIndicesStatus -->
<g id="node4" class="node"><title>\\ElasticsearchIndicesStatus</title>
<polygon fill="none" stroke="black" points="882,-736 690,-736 690,-700 882,-700 882,-736"/>
<text text-anchor="middle" x="786" y="-715.1" font-family="Courier,monospace" font-size="11.00">ElasticsearchIndicesStatus</text>
</g>
<!-- \\ElasticsearchIndicesStatus&#45;&gt;\\ElasticsearchModel -->
<g id="edge7" class="edge"><title>\\ElasticsearchIndicesStatus&#45;&gt;\\ElasticsearchModel</title>
<path fill="none" stroke="black" d="M689.71,-725.449C635.14,-729.671 567.704,-734.888 516.222,-738.871"/>
<polygon fill="none" stroke="black" points="515.848,-735.389 506.147,-739.65 516.388,-742.369 515.848,-735.389"/>
</g>
<!-- \\ElasticsearchConnection -->
<g id="node5" class="node"><title>\\ElasticsearchConnection</title>
<polygon fill="none" stroke="black" points="872,-520 700,-520 700,-484 872,-484 872,-520"/>
<text text-anchor="middle" x="786" y="-499.1" font-family="Courier,monospace" font-size="11.00">ElasticsearchConnection</text>
</g>
<!-- \\HttpSourceConnection -->
<g id="node20" class="node"><title>\\HttpSourceConnection</title>
<ellipse fill="none" stroke="black" cx="437" cy="-234" rx="125.158" ry="18.3848"/>
<text text-anchor="middle" x="437" y="-230.4" font-family="Times Roman,serif" font-size="14.00" fill="gray">\HttpSourceConnection</text>
</g>
<!-- \\ElasticsearchConnection&#45;&gt;\\HttpSourceConnection -->
<g id="edge9" class="edge"><title>\\ElasticsearchConnection&#45;&gt;\\HttpSourceConnection</title>
<path fill="none" stroke="black" d="M699.868,-490.192C691.122,-486.37 682.926,-481.413 676,-475 600.818,-405.391 682.886,-321.382 604,-256 594.406,-248.049 583.38,-242.135 571.663,-237.8"/>
<polygon fill="none" stroke="black" points="572.726,-234.465 562.133,-234.654 570.532,-241.112 572.726,-234.465"/>
</g>
<!-- \\ElasticsearchSource -->
<g id="node6" class="node"><title>\\ElasticsearchSource</title>
<polygon fill="none" stroke="black" points="858,-466 714,-466 714,-430 858,-430 858,-466"/>
<text text-anchor="middle" x="786" y="-445.1" font-family="Courier,monospace" font-size="11.00">ElasticsearchSource</text>
</g>
<!-- \\HttpSource -->
<g id="node22" class="node"><title>\\HttpSource</title>
<ellipse fill="none" stroke="black" cx="437" cy="-180" rx="70.0036" ry="18.3848"/>
<text text-anchor="middle" x="437" y="-176.4" font-family="Times Roman,serif" font-size="14.00" fill="gray">\HttpSource</text>
</g>
<!-- \\ElasticsearchSource&#45;&gt;\\HttpSource -->
<g id="edge11" class="edge"><title>\\ElasticsearchSource&#45;&gt;\\HttpSource</title>
<path fill="none" stroke="black" d="M713.361,-441.057C699.683,-436.911 686.422,-430.583 676,-421 602.13,-353.078 680.54,-271.898 604,-207 579.648,-186.352 545.863,-178.371 515.048,-176.023"/>
<polygon fill="none" stroke="black" points="514.913,-172.51 504.729,-175.433 514.513,-179.498 514.913,-172.51"/>
</g>
<!-- \\ElasticsearchHelper -->
<g id="node7" class="node"><title>\\ElasticsearchHelper</title>
<polygon fill="none" stroke="black" points="858,-412 714,-412 714,-376 858,-376 858,-412"/>
<text text-anchor="middle" x="786" y="-391.1" font-family="Courier,monospace" font-size="11.00">ElasticsearchHelper</text>
</g>
<!-- \\HtmlHelper -->
<g id="node24" class="node"><title>\\HtmlHelper</title>
<ellipse fill="none" stroke="black" cx="437" cy="-126" rx="70.0036" ry="18.3848"/>
<text text-anchor="middle" x="437" y="-122.4" font-family="Times Roman,serif" font-size="14.00" fill="gray">\HtmlHelper</text>
</g>
<!-- \\ElasticsearchHelper&#45;&gt;\\HtmlHelper -->
<g id="edge13" class="edge"><title>\\ElasticsearchHelper&#45;&gt;\\HtmlHelper</title>
<path fill="none" stroke="black" d="M713.361,-387.057C699.683,-382.911 686.422,-376.583 676,-367 602.13,-299.078 680.54,-217.898 604,-153 579.648,-132.352 545.863,-124.371 515.048,-122.023"/>
<polygon fill="none" stroke="black" points="514.913,-118.51 504.729,-121.433 514.513,-125.498 514.913,-118.51"/>
</g>
<!-- \\ElasticsearchTest -->
<g id="node8" class="node"><title>\\ElasticsearchTest</title>
<polygon fill="none" stroke="black" points="503,-655 371,-655 371,-619 503,-619 503,-655"/>
<text text-anchor="start" x="403" y="-642.433" font-family="Courier,monospace" font-size="11.00">«abstract»</text>
<text text-anchor="start" x="379.5" y="-629.233" font-family="Courier,monospace" font-size="11.00">ElasticsearchTest</text>
</g>
<!-- \\CakeTestCase -->
<g id="node26" class="node"><title>\\CakeTestCase</title>
<ellipse fill="none" stroke="black" cx="99" cy="-637" rx="82.0244" ry="18.3848"/>
<text text-anchor="middle" x="99" y="-633.4" font-family="Times Roman,serif" font-size="14.00" fill="gray">\CakeTestCase</text>
</g>
<!-- \\ElasticsearchTest&#45;&gt;\\CakeTestCase -->
<g id="edge15" class="edge"><title>\\ElasticsearchTest&#45;&gt;\\CakeTestCase</title>
<path fill="none" stroke="black" d="M370.625,-637C319.39,-637 247.9,-637 191.123,-637"/>
<polygon fill="none" stroke="black" points="191.063,-633.5 181.063,-637 191.063,-640.5 191.063,-633.5"/>
</g>
<!-- \\ElasticsearchDocumentsTest -->
<g id="node9" class="node"><title>\\ElasticsearchDocumentsTest</title>
<polygon fill="none" stroke="black" points="882,-682 690,-682 690,-646 882,-646 882,-682"/>
<text text-anchor="middle" x="786" y="-661.1" font-family="Courier,monospace" font-size="11.00">ElasticsearchDocumentsTest</text>
</g>
<!-- \\ElasticsearchDocumentsTest&#45;&gt;\\ElasticsearchTest -->
<g id="edge17" class="edge"><title>\\ElasticsearchDocumentsTest&#45;&gt;\\ElasticsearchTest</title>
<path fill="none" stroke="black" d="M689.71,-656.551C634.1,-652.248 565.128,-646.912 513.296,-642.903"/>
<polygon fill="none" stroke="black" points="513.407,-639.401 503.167,-642.119 512.867,-646.38 513.407,-639.401"/>
</g>
<!-- \\ElasticsearchIndicesStatusTest -->
<g id="node10" class="node"><title>\\ElasticsearchIndicesStatusTest</title>
<polygon fill="none" stroke="black" points="895,-628 677,-628 677,-592 895,-592 895,-628"/>
<text text-anchor="middle" x="786" y="-607.1" font-family="Courier,monospace" font-size="11.00">ElasticsearchIndicesStatusTest</text>
</g>
<!-- \\ElasticsearchIndicesStatusTest&#45;&gt;\\ElasticsearchTest -->
<g id="edge19" class="edge"><title>\\ElasticsearchIndicesStatusTest&#45;&gt;\\ElasticsearchTest</title>
<path fill="none" stroke="black" d="M676.053,-618.506C623.188,-622.596 561.122,-627.397 513.482,-631.083"/>
<polygon fill="none" stroke="black" points="512.938,-627.615 503.238,-631.876 513.478,-634.594 512.938,-627.615"/>
</g>
<!-- \\AllElasticsearchSourceTest -->
<g id="node11" class="node"><title>\\AllElasticsearchSourceTest</title>
<polygon fill="none" stroke="black" points="882,-358 690,-358 690,-322 882,-322 882,-358"/>
<text text-anchor="middle" x="786" y="-337.1" font-family="Courier,monospace" font-size="11.00">AllElasticsearchSourceTest</text>
</g>
<!-- \\PHPUnit_Framework_TestSuite -->
<g id="node30" class="node"><title>\\PHPUnit_Framework_TestSuite</title>
<ellipse fill="none" stroke="black" cx="437" cy="-72" rx="166.877" ry="18.3848"/>
<text text-anchor="middle" x="437" y="-68.4" font-family="Times Roman,serif" font-size="14.00" fill="gray">\PHPUnit_Framework_TestSuite</text>
</g>
<!-- \\AllElasticsearchSourceTest&#45;&gt;\\PHPUnit_Framework_TestSuite -->
<g id="edge21" class="edge"><title>\\AllElasticsearchSourceTest&#45;&gt;\\PHPUnit_Framework_TestSuite</title>
<path fill="none" stroke="black" d="M689.817,-323.065C684.856,-320.192 680.198,-316.86 676,-313 602.13,-245.078 680.54,-163.898 604,-99 598.302,-94.1685 592.087,-90.0306 585.515,-86.4961"/>
<polygon fill="none" stroke="black" points="586.87,-83.2634 576.346,-82.0419 583.811,-89.5598 586.87,-83.2634"/>
</g>
<!-- \\ElasticsearchArticleFixture -->
<g id="node12" class="node"><title>\\ElasticsearchArticleFixture</title>
<polygon fill="none" stroke="black" points="885,-304 687,-304 687,-268 885,-268 885,-304"/>
<text text-anchor="middle" x="786" y="-283.1" font-family="Courier,monospace" font-size="11.00">ElasticsearchArticleFixture</text>
</g>
<!-- \\HttpSourceTestFixture -->
<g id="node32" class="node"><title>\\HttpSourceTestFixture</title>
<ellipse fill="none" stroke="black" cx="437" cy="-18" rx="123.951" ry="18.3848"/>
<text text-anchor="middle" x="437" y="-14.4" font-family="Times Roman,serif" font-size="14.00" fill="gray">\HttpSourceTestFixture</text>
</g>
<!-- \\ElasticsearchArticleFixture&#45;&gt;\\HttpSourceTestFixture -->
<g id="edge23" class="edge"><title>\\ElasticsearchArticleFixture&#45;&gt;\\HttpSourceTestFixture</title>
<path fill="none" stroke="black" d="M778.171,-267.72C757.392,-221.638 696.071,-100.458 604,-45 591.205,-37.2929 576.902,-31.5825 562.196,-27.3795"/>
<polygon fill="none" stroke="black" points="563.047,-23.9843 552.486,-24.8294 561.269,-30.7547 563.047,-23.9843"/>
</g>
<!-- \\ElasticsearchController -->
<g id="node13" class="node"><title>\\ElasticsearchController</title>
<polygon fill="none" stroke="black" points="872,-574 700,-574 700,-538 872,-538 872,-574"/>
<text text-anchor="middle" x="786" y="-553.1" font-family="Courier,monospace" font-size="11.00">ElasticsearchController</text>
</g>
<!-- \\ElasticsearchSourceAppController -->
<g id="node14" class="node"><title>\\ElasticsearchSourceAppController</title>
<polygon fill="none" stroke="black" points="553,-574 321,-574 321,-538 553,-538 553,-574"/>
<text text-anchor="middle" x="437" y="-553.1" font-family="Courier,monospace" font-size="11.00">ElasticsearchSourceAppController</text>
</g>
<!-- \\ElasticsearchController&#45;&gt;\\ElasticsearchSourceAppController -->
<g id="edge25" class="edge"><title>\\ElasticsearchController&#45;&gt;\\ElasticsearchSourceAppController</title>
<path fill="none" stroke="black" d="M699.73,-556C658.726,-556 608.903,-556 563.712,-556"/>
<polygon fill="none" stroke="black" points="563.544,-552.5 553.544,-556 563.544,-559.5 563.544,-552.5"/>
</g>
<!-- \\AppController -->
<g id="node35" class="node"><title>\\AppController</title>
<ellipse fill="none" stroke="black" cx="99" cy="-556" rx="82.0244" ry="18.3848"/>
<text text-anchor="middle" x="99" y="-552.4" font-family="Times Roman,serif" font-size="14.00" fill="gray">\AppController</text>
</g>
<!-- \\ElasticsearchSourceAppController&#45;&gt;\\AppController -->
<g id="edge27" class="edge"><title>\\ElasticsearchSourceAppController&#45;&gt;\\AppController</title>
<path fill="none" stroke="black" d="M320.206,-556C278.078,-556 231.15,-556 191.395,-556"/>
<polygon fill="none" stroke="black" points="191.184,-552.5 181.184,-556 191.184,-559.5 191.184,-552.5"/>
</g>
</g>
</svg>
