<?xml version="1.0" encoding="UTF-8" standalone="no"?>
<!DOCTYPE svg PUBLIC "-//W3C//DTD SVG 1.1//EN"
 "http://www.w3.org/Graphics/SVG/1.1/DTD/svg11.dtd">
<!-- Generated by graphviz version 2.26.3 (20100126.1600)
 -->
<!-- Title: G Pages: 1 -->
<svg width="920pt" height="1306pt"
 viewBox="0.00 0.00 920.00 1306.00" xmlns="http://www.w3.org/2000/svg" xmlns:xlink="http://www.w3.org/1999/xlink">
<g id="graph1" class="graph" transform="scale(1 1) rotate(0) translate(4 1302)">
<title>G</title>
<polygon fill="white" stroke="white" points="-4,5 -4,-1302 917,-1302 917,5 -4,5"/>
<g id="graph2" class="cluster"><title>cluster_Global</title>
<polyline fill="none" stroke="gray" points="372,-406 892,-406 "/>
<path fill="none" stroke="gray" d="M892,-406C898,-406 904,-412 904,-418"/>
<polyline fill="none" stroke="gray" points="904,-418 904,-1278 "/>
<path fill="none" stroke="gray" d="M904,-1278C904,-1284 898,-1290 892,-1290"/>
<polyline fill="none" stroke="gray" points="892,-1290 372,-1290 "/>
<path fill="none" stroke="gray" d="M372,-1290C366,-1290 360,-1284 360,-1278"/>
<polyline fill="none" stroke="gray" points="360,-1278 360,-418 "/>
<path fill="none" stroke="gray" d="M360,-418C360,-412 366,-406 372,-406"/>
<text text-anchor="middle" x="632" y="-1276.1" font-family="Times Roman,serif" font-size="11.00" fill="gray">Global</text>
</g>
<!-- \\ElasticsearchHelper -->
<g id="node2" class="node"><title>\\ElasticsearchHelper</title>
<polygon fill="none" stroke="black" points="858,-936 714,-936 714,-900 858,-900 858,-936"/>
<text text-anchor="middle" x="786" y="-915.1" font-family="Courier,monospace" font-size="11.00">ElasticsearchHelper</text>
</g>
<!-- \\HtmlHelper -->
<g id="node21" class="node"><title>\\HtmlHelper</title>
<ellipse fill="none" stroke="black" cx="437" cy="-380" rx="70.0036" ry="18.3848"/>
<text text-anchor="middle" x="437" y="-376.4" font-family="Times Roman,serif" font-size="14.00" fill="gray">\HtmlHelper</text>
</g>
<!-- \\ElasticsearchHelper&#45;&gt;\\HtmlHelper -->
<g id="edge3" class="edge"><title>\\ElasticsearchHelper&#45;&gt;\\HtmlHelper</title>
<path fill="none" stroke="black" d="M713.391,-912.87C699.294,-908.653 685.858,-901.837 676,-891 528.176,-728.501 760.511,-556.149 604,-402 579.359,-377.731 541.844,-371.19 508.609,-371.177"/>
<polygon fill="none" stroke="black" points="508.382,-367.681 498.451,-371.37 508.515,-374.679 508.382,-367.681"/>
</g>
<!-- \\ElasticsearchArticleFixture -->
<g id="node3" class="node"><title>\\ElasticsearchArticleFixture</title>
<polygon fill="none" stroke="black" points="885,-882 687,-882 687,-846 885,-846 885,-882"/>
<text text-anchor="middle" x="786" y="-861.1" font-family="Courier,monospace" font-size="11.00">ElasticsearchArticleFixture</text>
</g>
<!-- \\HttpSourceTestFixture -->
<g id="node23" class="node"><title>\\HttpSourceTestFixture</title>
<ellipse fill="none" stroke="black" cx="437" cy="-326" rx="123.951" ry="18.3848"/>
<text text-anchor="middle" x="437" y="-322.4" font-family="Times Roman,serif" font-size="14.00" fill="gray">\HttpSourceTestFixture</text>
</g>
<!-- \\ElasticsearchArticleFixture&#45;&gt;\\HttpSourceTestFixture -->
<g id="edge5" class="edge"><title>\\ElasticsearchArticleFixture&#45;&gt;\\HttpSourceTestFixture</title>
<path fill="none" stroke="black" d="M686.074,-845.923C682.432,-843.304 679.046,-840.343 676,-837 529.536,-676.236 756.808,-507.747 604,-353 594.545,-343.424 583.124,-336.412 570.744,-331.351"/>
<polygon fill="none" stroke="black" points="571.702,-327.975 561.107,-327.852 569.312,-334.555 571.702,-327.975"/>
</g>
<!-- \\ElasticsearchAliasFixture -->
<g id="node4" class="node"><title>\\ElasticsearchAliasFixture</title>
<polygon fill="none" stroke="black" points="878,-828 694,-828 694,-792 878,-792 878,-828"/>
<text text-anchor="middle" x="786" y="-807.1" font-family="Courier,monospace" font-size="11.00">ElasticsearchAliasFixture</text>
</g>
<!-- \\ElasticsearchAliasFixture&#45;&gt;\\HttpSourceTestFixture -->
<g id="edge7" class="edge"><title>\\ElasticsearchAliasFixture&#45;&gt;\\HttpSourceTestFixture</title>
<path fill="none" stroke="black" d="M693.351,-796.382C686.922,-792.807 681.016,-788.406 676,-783 544.201,-640.956 741.401,-489.632 604,-353 594.458,-343.511 582.981,-336.554 570.569,-331.526"/>
<polygon fill="none" stroke="black" points="571.505,-328.144 560.911,-328.048 569.133,-334.729 571.505,-328.144"/>
</g>
<!-- \\ElasticsearchTest -->
<g id="node5" class="node"><title>\\ElasticsearchTest</title>
<polygon fill="none" stroke="black" points="503,-1017 371,-1017 371,-981 503,-981 503,-1017"/>
<text text-anchor="start" x="403" y="-1004.43" font-family="Courier,monospace" font-size="11.00">«abstract»</text>
<text text-anchor="start" x="379.5" y="-991.233" font-family="Courier,monospace" font-size="11.00">ElasticsearchTest</text>
</g>
<!-- \\CakeTestCase -->
<g id="node26" class="node"><title>\\CakeTestCase</title>
<ellipse fill="none" stroke="black" cx="99" cy="-640" rx="82.0244" ry="18.3848"/>
<text text-anchor="middle" x="99" y="-636.4" font-family="Times Roman,serif" font-size="14.00" fill="gray">\CakeTestCase</text>
</g>
<!-- \\ElasticsearchTest&#45;&gt;\\CakeTestCase -->
<g id="edge9" class="edge"><title>\\ElasticsearchTest&#45;&gt;\\CakeTestCase</title>
<path fill="none" stroke="black" d="M370.75,-1004.16C337.766,-1003.48 298.879,-997.447 270,-977 161.71,-900.326 117.797,-734.473 104.129,-668.198"/>
<polygon fill="none" stroke="black" points="107.502,-667.215 102.122,-658.088 100.636,-668.578 107.502,-667.215"/>
</g>
<!-- \\ElasticsearchHelperTest -->
<g id="node6" class="node"><title>\\ElasticsearchHelperTest</title>
<polygon fill="none" stroke="black" points="872,-774 700,-774 700,-738 872,-738 872,-774"/>
<text text-anchor="middle" x="786" y="-753.1" font-family="Courier,monospace" font-size="11.00">ElasticsearchHelperTest</text>
</g>
<!-- \\ElasticsearchHelperTest&#45;&gt;\\CakeTestCase -->
<g id="edge11" class="edge"><title>\\ElasticsearchHelperTest&#45;&gt;\\CakeTestCase</title>
<path fill="none" stroke="black" d="M699.94,-745.688C690.959,-741.629 682.688,-736.207 676,-729 544.201,-586.956 744.574,-432.366 604,-299 549.807,-247.586 511.62,-283.478 437,-280"/>
</g>
<!-- \\ElasticsearchIndicesStatusTest -->
<g id="node7" class="node"><title>\\ElasticsearchIndicesStatusTest</title>
<polygon fill="none" stroke="black" points="895,-1044 677,-1044 677,-1008 895,-1008 895,-1044"/>
<text text-anchor="middle" x="786" y="-1023.1" font-family="Courier,monospace" font-size="11.00">ElasticsearchIndicesStatusTest</text>
</g>
<!-- \\ElasticsearchIndicesStatusTest&#45;&gt;\\ElasticsearchTest -->
<g id="edge13" class="edge"><title>\\ElasticsearchIndicesStatusTest&#45;&gt;\\ElasticsearchTest</title>
<path fill="none" stroke="black" d="M676.053,-1017.49C623.188,-1013.4 561.122,-1008.6 513.482,-1004.92"/>
<polygon fill="none" stroke="black" points="513.478,-1001.41 503.238,-1004.12 512.938,-1008.39 513.478,-1001.41"/>
</g>
<!-- \\ElasticsearchDocumentTest -->
<g id="node8" class="node"><title>\\ElasticsearchDocumentTest</title>
<polygon fill="none" stroke="black" points="878,-990 694,-990 694,-954 878,-954 878,-990"/>
<text text-anchor="middle" x="786" y="-969.1" font-family="Courier,monospace" font-size="11.00">ElasticsearchDocumentTest</text>
</g>
<!-- \\ElasticsearchDocumentTest&#45;&gt;\\ElasticsearchTest -->
<g id="edge15" class="edge"><title>\\ElasticsearchDocumentTest&#45;&gt;\\ElasticsearchTest</title>
<path fill="none" stroke="black" d="M693.391,-979.165C637.141,-983.516 566.209,-989.004 513.219,-993.103"/>
<polygon fill="none" stroke="black" points="512.906,-989.617 503.206,-993.878 513.446,-996.596 512.906,-989.617"/>
</g>
<!-- \\ElasticsearchAliasTest -->
<g id="node9" class="node"><title>\\ElasticsearchAliasTest</title>
<polygon fill="none" stroke="black" points="868,-1098 704,-1098 704,-1062 868,-1062 868,-1098"/>
<text text-anchor="middle" x="786" y="-1077.1" font-family="Courier,monospace" font-size="11.00">ElasticsearchAliasTest</text>
</g>
<!-- \\ElasticsearchAliasTest&#45;&gt;\\ElasticsearchTest -->
<g id="edge17" class="edge"><title>\\ElasticsearchAliasTest&#45;&gt;\\ElasticsearchTest</title>
<path fill="none" stroke="black" d="M708.112,-1061.92C649.905,-1048.41 570.756,-1030.04 513.007,-1016.64"/>
<polygon fill="none" stroke="black" points="513.74,-1013.22 503.207,-1014.37 512.157,-1020.04 513.74,-1013.22"/>
</g>
<!-- \\ElasticsearchSourceTest -->
<g id="node10" class="node"><title>\\ElasticsearchSourceTest</title>
<polygon fill="none" stroke="black" points="872,-720 700,-720 700,-684 872,-684 872,-720"/>
<text text-anchor="middle" x="786" y="-699.1" font-family="Courier,monospace" font-size="11.00">ElasticsearchSourceTest</text>
</g>
<!-- \\ElasticsearchSourceTest&#45;&gt;\\CakeTestCase -->
<g id="edge19" class="edge"><title>\\ElasticsearchSourceTest&#45;&gt;\\CakeTestCase</title>
<path fill="none" stroke="black" d="M699.832,-691.415C690.927,-687.396 682.703,-682.058 676,-675 558.825,-551.63 728.791,-414.66 604,-299 549.212,-248.221 511.62,-283.478 437,-280"/>
<path fill="none" stroke="black" d="M437,-280C362.38,-276.522 331.244,-256.229 270,-299 159.961,-375.848 116.98,-544.724 103.846,-611.764"/>
<polygon fill="none" stroke="black" points="100.402,-611.144 101.989,-621.619 107.28,-612.441 100.402,-611.144"/>
</g>
<!-- \\ElasticsearchControllerTest -->
<g id="node11" class="node"><title>\\ElasticsearchControllerTest</title>
<polygon fill="none" stroke="black" points="885,-666 687,-666 687,-630 885,-630 885,-666"/>
<text text-anchor="middle" x="786" y="-645.1" font-family="Courier,monospace" font-size="11.00">ElasticsearchControllerTest</text>
</g>
<!-- \\ControllerTestCase -->
<g id="node33" class="node"><title>\\ControllerTestCase</title>
<ellipse fill="none" stroke="black" cx="437" cy="-234" rx="106.773" ry="18.3848"/>
<text text-anchor="middle" x="437" y="-230.4" font-family="Times Roman,serif" font-size="14.00" fill="gray">\ControllerTestCase</text>
</g>
<!-- \\ElasticsearchControllerTest&#45;&gt;\\ControllerTestCase -->
<g id="edge21" class="edge"><title>\\ElasticsearchControllerTest&#45;&gt;\\ControllerTestCase</title>
<path fill="none" stroke="black" d="M686.289,-629.722C682.59,-627.156 679.132,-624.262 676,-621 564.497,-504.876 718.449,-379.222 604,-266 590.15,-252.298 572.342,-243.534 553.538,-238.073"/>
<polygon fill="none" stroke="black" points="554.187,-234.626 543.629,-235.51 552.433,-241.403 554.187,-234.626"/>
</g>
<!-- \\AllElasticsearchSourceTest -->
<g id="node12" class="node"><title>\\AllElasticsearchSourceTest</title>
<polygon fill="none" stroke="black" points="882,-612 690,-612 690,-576 882,-576 882,-612"/>
<text text-anchor="middle" x="786" y="-591.1" font-family="Courier,monospace" font-size="11.00">AllElasticsearchSourceTest</text>
</g>
<!-- \\PHPUnit_Framework_TestSuite -->
<g id="node35" class="node"><title>\\PHPUnit_Framework_TestSuite</title>
<ellipse fill="none" stroke="black" cx="437" cy="-180" rx="166.877" ry="18.3848"/>
<text text-anchor="middle" x="437" y="-176.4" font-family="Times Roman,serif" font-size="14.00" fill="gray">\PHPUnit_Framework_TestSuite</text>
</g>
<!-- \\AllElasticsearchSourceTest&#45;&gt;\\PHPUnit_Framework_TestSuite -->
<g id="edge23" class="edge"><title>\\AllElasticsearchSourceTest&#45;&gt;\\PHPUnit_Framework_TestSuite</title>
<path fill="none" stroke="black" d="M689.968,-578.142C684.869,-575.015 680.148,-571.332 676,-567 563.147,-449.152 721.498,-320.217 604,-207 599.027,-202.208 593.558,-198.068 587.727,-194.502"/>
<polygon fill="none" stroke="black" points="589.39,-191.422 578.939,-189.677 586.021,-197.558 589.39,-191.422"/>
</g>
<!-- \\ElasticsearchModel -->
<g id="node13" class="node"><title>\\ElasticsearchModel</title>
<polygon fill="none" stroke="black" points="506,-1206 368,-1206 368,-1170 506,-1170 506,-1206"/>
<text text-anchor="middle" x="437" y="-1185.1" font-family="Courier,monospace" font-size="11.00">ElasticsearchModel</text>
</g>
<!-- \\HttpSourceModel -->
<g id="node37" class="node"><title>\\HttpSourceModel</title>
<ellipse fill="none" stroke="black" cx="99" cy="-1188" rx="98.9949" ry="18.3848"/>
<text text-anchor="middle" x="99" y="-1184.4" font-family="Times Roman,serif" font-size="14.00" fill="gray">\HttpSourceModel</text>
</g>
<!-- \\ElasticsearchModel&#45;&gt;\\HttpSourceModel -->
<g id="edge25" class="edge"><title>\\ElasticsearchModel&#45;&gt;\\HttpSourceModel</title>
<path fill="none" stroke="black" d="M367.785,-1188C321.88,-1188 260.671,-1188 208.26,-1188"/>
<polygon fill="none" stroke="black" points="208.243,-1184.5 198.243,-1188 208.243,-1191.5 208.243,-1184.5"/>
</g>
<!-- \\ElasticsearchIndicesStatus -->
<g id="node14" class="node"><title>\\ElasticsearchIndicesStatus</title>
<polygon fill="none" stroke="black" points="882,-1206 690,-1206 690,-1170 882,-1170 882,-1206"/>
<text text-anchor="middle" x="786" y="-1185.1" font-family="Courier,monospace" font-size="11.00">ElasticsearchIndicesStatus</text>
</g>
<!-- \\ElasticsearchIndicesStatus&#45;&gt;\\ElasticsearchModel -->
<g id="edge27" class="edge"><title>\\ElasticsearchIndicesStatus&#45;&gt;\\ElasticsearchModel</title>
<path fill="none" stroke="black" d="M689.71,-1188C635.14,-1188 567.704,-1188 516.222,-1188"/>
<polygon fill="none" stroke="black" points="516.148,-1184.5 506.147,-1188 516.147,-1191.5 516.148,-1184.5"/>
</g>
<!-- \\ElasticsearchDocument -->
<g id="node15" class="node"><title>\\ElasticsearchDocument</title>
<polygon fill="none" stroke="black" points="865,-1152 707,-1152 707,-1116 865,-1116 865,-1152"/>
<text text-anchor="middle" x="786" y="-1131.1" font-family="Courier,monospace" font-size="11.00">ElasticsearchDocument</text>
</g>
<!-- \\ElasticsearchDocument&#45;&gt;\\ElasticsearchModel -->
<g id="edge29" class="edge"><title>\\ElasticsearchDocument&#45;&gt;\\ElasticsearchModel</title>
<path fill="none" stroke="black" d="M706.806,-1146.25C649.795,-1155.07 573.205,-1166.93 516.194,-1175.75"/>
<polygon fill="none" stroke="black" points="515.492,-1172.31 506.145,-1177.3 516.563,-1179.23 515.492,-1172.31"/>
</g>
<!-- \\ElasticsearchAlias -->
<g id="node16" class="node"><title>\\ElasticsearchAlias</title>
<polygon fill="none" stroke="black" points="855,-1260 717,-1260 717,-1224 855,-1224 855,-1260"/>
<text text-anchor="middle" x="786" y="-1239.1" font-family="Courier,monospace" font-size="11.00">ElasticsearchAlias</text>
</g>
<!-- \\ElasticsearchAlias&#45;&gt;\\ElasticsearchModel -->
<g id="edge31" class="edge"><title>\\ElasticsearchAlias&#45;&gt;\\ElasticsearchModel</title>
<path fill="none" stroke="black" d="M716.632,-1231.27C658.941,-1222.34 576.81,-1209.63 516.48,-1200.3"/>
<polygon fill="none" stroke="black" points="516.655,-1196.78 506.237,-1198.71 515.584,-1203.7 516.655,-1196.78"/>
</g>
<!-- \\ElasticsearchSource -->
<g id="node17" class="node"><title>\\ElasticsearchSource</title>
<polygon fill="none" stroke="black" points="858,-558 714,-558 714,-522 858,-522 858,-558"/>
<text text-anchor="middle" x="786" y="-537.1" font-family="Courier,monospace" font-size="11.00">ElasticsearchSource</text>
</g>
<!-- \\HttpSource -->
<g id="node42" class="node"><title>\\HttpSource</title>
<ellipse fill="none" stroke="black" cx="437" cy="-126" rx="70.0036" ry="18.3848"/>
<text text-anchor="middle" x="437" y="-122.4" font-family="Times Roman,serif" font-size="14.00" fill="gray">\HttpSource</text>
</g>
<!-- \\ElasticsearchSource&#45;&gt;\\HttpSource -->
<g id="edge33" class="edge"><title>\\ElasticsearchSource&#45;&gt;\\HttpSource</title>
<path fill="none" stroke="black" d="M713.236,-534.314C699.32,-530.109 685.996,-523.439 676,-513 563.147,-395.152 721.498,-266.217 604,-153 580.241,-130.106 545.174,-122.106 513.3,-120.337"/>
<polygon fill="none" stroke="black" points="513.2,-116.831 503.081,-119.97 512.949,-123.827 513.2,-116.831"/>
</g>
<!-- \\ElasticsearchConnection -->
<g id="node18" class="node"><title>\\ElasticsearchConnection</title>
<polygon fill="none" stroke="black" points="872,-504 700,-504 700,-468 872,-468 872,-504"/>
<text text-anchor="middle" x="786" y="-483.1" font-family="Courier,monospace" font-size="11.00">ElasticsearchConnection</text>
</g>
<!-- \\HttpSourceConnection -->
<g id="node44" class="node"><title>\\HttpSourceConnection</title>
<ellipse fill="none" stroke="black" cx="437" cy="-72" rx="125.158" ry="18.3848"/>
<text text-anchor="middle" x="437" y="-68.4" font-family="Times Roman,serif" font-size="14.00" fill="gray">\HttpSourceConnection</text>
</g>
<!-- \\ElasticsearchConnection&#45;&gt;\\HttpSourceConnection -->
<g id="edge35" class="edge"><title>\\ElasticsearchConnection&#45;&gt;\\HttpSourceConnection</title>
<path fill="none" stroke="black" d="M699.889,-475.361C690.974,-471.351 682.732,-466.03 676,-459 563.147,-341.152 721.498,-212.217 604,-99 594.394,-89.7437 582.939,-82.9221 570.594,-77.9625"/>
<polygon fill="none" stroke="black" points="571.591,-74.6018 560.996,-74.5235 569.229,-81.1916 571.591,-74.6018"/>
</g>
<!-- \\ElasticsearchController -->
<g id="node19" class="node"><title>\\ElasticsearchController</title>
<polygon fill="none" stroke="black" points="872,-450 700,-450 700,-414 872,-414 872,-450"/>
<text text-anchor="middle" x="786" y="-429.1" font-family="Courier,monospace" font-size="11.00">ElasticsearchController</text>
</g>
<!-- \\HttpSourceController -->
<g id="node46" class="node"><title>\\HttpSourceController</title>
<ellipse fill="none" stroke="black" cx="437" cy="-18" rx="118.794" ry="18.3848"/>
<text text-anchor="middle" x="437" y="-14.4" font-family="Times Roman,serif" font-size="14.00" fill="gray">\HttpSourceController</text>
</g>
<!-- \\ElasticsearchController&#45;&gt;\\HttpSourceController -->
<g id="edge37" class="edge"><title>\\ElasticsearchController&#45;&gt;\\HttpSourceController</title>
<path fill="none" stroke="black" d="M783.439,-413.677C773.594,-350.671 732.082,-141.511 604,-45 591.878,-35.8659 577.844,-29.3194 563.165,-24.6879"/>
<polygon fill="none" stroke="black" points="564.016,-21.2909 553.439,-21.9129 562.095,-28.0223 564.016,-21.2909"/>
</g>
</g>
</svg>
