<?xml version="1.0" encoding="UTF-8" standalone="no"?>
<!DOCTYPE svg PUBLIC "-//W3C//DTD SVG 1.1//EN"
 "http://www.w3.org/Graphics/SVG/1.1/DTD/svg11.dtd">
<!-- Generated by graphviz version 2.26.3 (20100126.1600)
 -->
<!-- Title: G Pages: 1 -->
<svg width="920pt" height="1344pt"
 viewBox="0.00 0.00 920.00 1344.00" xmlns="http://www.w3.org/2000/svg" xmlns:xlink="http://www.w3.org/1999/xlink">
<g id="graph1" class="graph" transform="scale(1 1) rotate(0) translate(4 1340)">
<title>G</title>
<polygon fill="white" stroke="white" points="-4,5 -4,-1340 917,-1340 917,5 -4,5"/>
<g id="graph2" class="cluster"><title>cluster_Global</title>
<polyline fill="none" stroke="gray" points="372,-444 892,-444 "/>
<path fill="none" stroke="gray" d="M892,-444C898,-444 904,-450 904,-456"/>
<polyline fill="none" stroke="gray" points="904,-456 904,-1316 "/>
<path fill="none" stroke="gray" d="M904,-1316C904,-1322 898,-1328 892,-1328"/>
<polyline fill="none" stroke="gray" points="892,-1328 372,-1328 "/>
<path fill="none" stroke="gray" d="M372,-1328C366,-1328 360,-1322 360,-1316"/>
<polyline fill="none" stroke="gray" points="360,-1316 360,-456 "/>
<path fill="none" stroke="gray" d="M360,-456C360,-450 366,-444 372,-444"/>
<text text-anchor="middle" x="632" y="-1314.1" font-family="Times Roman,serif" font-size="11.00" fill="gray">Global</text>
</g>
<!-- \\ElasticsearchHelper -->
<g id="node2" class="node"><title>\\ElasticsearchHelper</title>
<polygon fill="none" stroke="black" points="858,-974 714,-974 714,-938 858,-938 858,-974"/>
<text text-anchor="middle" x="786" y="-953.1" font-family="Courier,monospace" font-size="11.00">ElasticsearchHelper</text>
</g>
<!-- \\HtmlHelper -->
<g id="node21" class="node"><title>\\HtmlHelper</title>
<ellipse fill="none" stroke="black" cx="437" cy="-418" rx="70.0036" ry="18.3848"/>
<text text-anchor="middle" x="437" y="-414.4" font-family="Times Roman,serif" font-size="14.00" fill="gray">\HtmlHelper</text>
</g>
<!-- \\ElasticsearchHelper&#45;&gt;\\HtmlHelper -->
<g id="edge3" class="edge"><title>\\ElasticsearchHelper&#45;&gt;\\HtmlHelper</title>
<path fill="none" stroke="black" d="M713.391,-950.87C699.294,-946.653 685.858,-939.837 676,-929 528.176,-766.501 760.511,-594.149 604,-440 579.359,-415.731 541.844,-409.19 508.609,-409.177"/>
<polygon fill="none" stroke="black" points="508.382,-405.681 498.451,-409.37 508.515,-412.679 508.382,-405.681"/>
</g>
<!-- \\ElasticsearchController -->
<g id="node3" class="node"><title>\\ElasticsearchController</title>
<polygon fill="none" stroke="black" points="872,-920 700,-920 700,-884 872,-884 872,-920"/>
<text text-anchor="middle" x="786" y="-899.1" font-family="Courier,monospace" font-size="11.00">ElasticsearchController</text>
</g>
<!-- \\HttpSourceController -->
<g id="node23" class="node"><title>\\HttpSourceController</title>
<ellipse fill="none" stroke="black" cx="437" cy="-364" rx="118.794" ry="18.3848"/>
<text text-anchor="middle" x="437" y="-360.4" font-family="Times Roman,serif" font-size="14.00" fill="gray">\HttpSourceController</text>
</g>
<!-- \\ElasticsearchController&#45;&gt;\\HttpSourceController -->
<g id="edge5" class="edge"><title>\\ElasticsearchController&#45;&gt;\\HttpSourceController</title>
<path fill="none" stroke="black" d="M699.812,-891.806C690.853,-887.727 682.622,-882.268 676,-875 529.536,-714.236 756.808,-545.747 604,-391 593.251,-380.114 579.962,-372.541 565.611,-367.382"/>
<polygon fill="none" stroke="black" points="566.635,-364.035 556.044,-364.33 564.508,-370.704 566.635,-364.035"/>
</g>
<!-- \\ElasticsearchArticleFixture -->
<g id="node4" class="node"><title>\\ElasticsearchArticleFixture</title>
<polygon fill="none" stroke="black" points="885,-866 687,-866 687,-830 885,-830 885,-866"/>
<text text-anchor="middle" x="786" y="-845.1" font-family="Courier,monospace" font-size="11.00">ElasticsearchArticleFixture</text>
</g>
<!-- \\HttpSourceTestFixture -->
<g id="node25" class="node"><title>\\HttpSourceTestFixture</title>
<ellipse fill="none" stroke="black" cx="437" cy="-310" rx="123.951" ry="18.3848"/>
<text text-anchor="middle" x="437" y="-306.4" font-family="Times Roman,serif" font-size="14.00" fill="gray">\HttpSourceTestFixture</text>
</g>
<!-- \\ElasticsearchArticleFixture&#45;&gt;\\HttpSourceTestFixture -->
<g id="edge7" class="edge"><title>\\ElasticsearchArticleFixture&#45;&gt;\\HttpSourceTestFixture</title>
<path fill="none" stroke="black" d="M686.074,-829.923C682.432,-827.304 679.046,-824.343 676,-821 529.536,-660.236 756.808,-491.747 604,-337 594.545,-327.424 583.124,-320.412 570.744,-315.351"/>
<polygon fill="none" stroke="black" points="571.702,-311.975 561.107,-311.852 569.312,-318.555 571.702,-311.975"/>
</g>
<!-- \\ElasticsearchAliasFixture -->
<g id="node5" class="node"><title>\\ElasticsearchAliasFixture</title>
<polygon fill="none" stroke="black" points="878,-812 694,-812 694,-776 878,-776 878,-812"/>
<text text-anchor="middle" x="786" y="-791.1" font-family="Courier,monospace" font-size="11.00">ElasticsearchAliasFixture</text>
</g>
<!-- \\ElasticsearchAliasFixture&#45;&gt;\\HttpSourceTestFixture -->
<g id="edge9" class="edge"><title>\\ElasticsearchAliasFixture&#45;&gt;\\HttpSourceTestFixture</title>
<path fill="none" stroke="black" d="M693.351,-780.382C686.922,-776.807 681.016,-772.406 676,-767 544.201,-624.956 741.401,-473.632 604,-337 594.458,-327.511 582.981,-320.554 570.569,-315.526"/>
<polygon fill="none" stroke="black" points="571.505,-312.144 560.911,-312.048 569.133,-318.729 571.505,-312.144"/>
</g>
<!-- \\ElasticsearchHelperTest -->
<g id="node6" class="node"><title>\\ElasticsearchHelperTest</title>
<polygon fill="none" stroke="black" points="872,-758 700,-758 700,-722 872,-722 872,-758"/>
<text text-anchor="middle" x="786" y="-737.1" font-family="Courier,monospace" font-size="11.00">ElasticsearchHelperTest</text>
</g>
<!-- \\CakeTestCase -->
<g id="node28" class="node"><title>\\CakeTestCase</title>
<ellipse fill="none" stroke="black" cx="99" cy="-264" rx="82.0244" ry="18.3848"/>
<text text-anchor="middle" x="99" y="-260.4" font-family="Times Roman,serif" font-size="14.00" fill="gray">\CakeTestCase</text>
</g>
<!-- \\ElasticsearchHelperTest&#45;&gt;\\CakeTestCase -->
<g id="edge11" class="edge"><title>\\ElasticsearchHelperTest&#45;&gt;\\CakeTestCase</title>
<path fill="none" stroke="black" d="M699.94,-729.688C690.959,-725.629 682.688,-720.207 676,-713 544.201,-570.956 749.519,-410.952 604,-283 573.789,-256.436 327.653,-258.183 190.497,-261.309"/>
<polygon fill="none" stroke="black" points="190.324,-257.812 180.409,-261.546 190.489,-264.81 190.324,-257.812"/>
</g>
<!-- \\ElasticsearchControllerTest -->
<g id="node7" class="node"><title>\\ElasticsearchControllerTest</title>
<polygon fill="none" stroke="black" points="885,-704 687,-704 687,-668 885,-668 885,-704"/>
<text text-anchor="middle" x="786" y="-683.1" font-family="Courier,monospace" font-size="11.00">ElasticsearchControllerTest</text>
</g>
<!-- \\ControllerTestCase -->
<g id="node30" class="node"><title>\\ControllerTestCase</title>
<ellipse fill="none" stroke="black" cx="437" cy="-218" rx="106.773" ry="18.3848"/>
<text text-anchor="middle" x="437" y="-214.4" font-family="Times Roman,serif" font-size="14.00" fill="gray">\ControllerTestCase</text>
</g>
<!-- \\ElasticsearchControllerTest&#45;&gt;\\ControllerTestCase -->
<g id="edge13" class="edge"><title>\\ElasticsearchControllerTest&#45;&gt;\\ControllerTestCase</title>
<path fill="none" stroke="black" d="M686.183,-667.822C682.513,-665.23 679.09,-662.303 676,-659 549.894,-524.224 733.526,-381.492 604,-250 590.328,-236.12 572.607,-227.27 553.832,-221.779"/>
<polygon fill="none" stroke="black" points="554.493,-218.335 543.934,-219.205 552.731,-225.109 554.493,-218.335"/>
</g>
<!-- \\AllElasticsearchSourceTest -->
<g id="node8" class="node"><title>\\AllElasticsearchSourceTest</title>
<polygon fill="none" stroke="black" points="882,-650 690,-650 690,-614 882,-614 882,-650"/>
<text text-anchor="middle" x="786" y="-629.1" font-family="Courier,monospace" font-size="11.00">AllElasticsearchSourceTest</text>
</g>
<!-- \\PHPUnit_Framework_TestSuite -->
<g id="node32" class="node"><title>\\PHPUnit_Framework_TestSuite</title>
<ellipse fill="none" stroke="black" cx="437" cy="-164" rx="166.877" ry="18.3848"/>
<text text-anchor="middle" x="437" y="-160.4" font-family="Times Roman,serif" font-size="14.00" fill="gray">\PHPUnit_Framework_TestSuite</text>
</g>
<!-- \\AllElasticsearchSourceTest&#45;&gt;\\PHPUnit_Framework_TestSuite -->
<g id="edge15" class="edge"><title>\\AllElasticsearchSourceTest&#45;&gt;\\PHPUnit_Framework_TestSuite</title>
<path fill="none" stroke="black" d="M689.591,-616.107C684.619,-612.984 680.026,-609.312 676,-605 548.539,-468.494 736.844,-322.272 604,-191 599.087,-186.146 593.668,-181.955 587.877,-178.348"/>
<polygon fill="none" stroke="black" points="589.579,-175.289 579.142,-173.47 586.166,-181.401 589.579,-175.289"/>
</g>
<!-- \\ElasticsearchAliasTest -->
<g id="node9" class="node"><title>\\ElasticsearchAliasTest</title>
<polygon fill="none" stroke="black" points="868,-1082 704,-1082 704,-1046 868,-1046 868,-1082"/>
<text text-anchor="middle" x="786" y="-1061.1" font-family="Courier,monospace" font-size="11.00">ElasticsearchAliasTest</text>
</g>
<!-- \\ElasticsearchTest -->
<g id="node13" class="node"><title>\\ElasticsearchTest</title>
<polygon fill="none" stroke="black" points="503,-1055 371,-1055 371,-1019 503,-1019 503,-1055"/>
<text text-anchor="start" x="403" y="-1042.43" font-family="Courier,monospace" font-size="11.00">«abstract»</text>
<text text-anchor="start" x="379.5" y="-1029.23" font-family="Courier,monospace" font-size="11.00">ElasticsearchTest</text>
</g>
<!-- \\ElasticsearchAliasTest&#45;&gt;\\ElasticsearchTest -->
<g id="edge17" class="edge"><title>\\ElasticsearchAliasTest&#45;&gt;\\ElasticsearchTest</title>
<path fill="none" stroke="black" d="M703.292,-1057.6C645.7,-1053.15 569.459,-1047.25 513.318,-1042.9"/>
<polygon fill="none" stroke="black" points="513.319,-1039.39 503.079,-1042.11 512.779,-1046.37 513.319,-1039.39"/>
</g>
<!-- \\ElasticsearchDocumentTest -->
<g id="node10" class="node"><title>\\ElasticsearchDocumentTest</title>
<polygon fill="none" stroke="black" points="878,-1028 694,-1028 694,-992 878,-992 878,-1028"/>
<text text-anchor="middle" x="786" y="-1007.1" font-family="Courier,monospace" font-size="11.00">ElasticsearchDocumentTest</text>
</g>
<!-- \\ElasticsearchDocumentTest&#45;&gt;\\ElasticsearchTest -->
<g id="edge19" class="edge"><title>\\ElasticsearchDocumentTest&#45;&gt;\\ElasticsearchTest</title>
<path fill="none" stroke="black" d="M693.391,-1017.16C637.141,-1021.52 566.209,-1027 513.219,-1031.1"/>
<polygon fill="none" stroke="black" points="512.906,-1027.62 503.206,-1031.88 513.446,-1034.6 512.906,-1027.62"/>
</g>
<!-- \\ElasticsearchSourceTest -->
<g id="node11" class="node"><title>\\ElasticsearchSourceTest</title>
<polygon fill="none" stroke="black" points="872,-596 700,-596 700,-560 872,-560 872,-596"/>
<text text-anchor="middle" x="786" y="-575.1" font-family="Courier,monospace" font-size="11.00">ElasticsearchSourceTest</text>
</g>
<!-- \\ElasticsearchSourceTest&#45;&gt;\\CakeTestCase -->
<g id="edge21" class="edge"><title>\\ElasticsearchSourceTest&#45;&gt;\\CakeTestCase</title>
<path fill="none" stroke="black" d="M699.984,-567.647C690.995,-563.595 682.71,-558.186 676,-551 548.539,-414.494 746.927,-257.216 604,-137 547.198,-89.2243 340.468,-113.694 270,-137 209.475,-157.017 152.922,-207.666 122.438,-238.614"/>
<polygon fill="none" stroke="black" points="119.702,-236.408 115.263,-246.027 124.732,-241.276 119.702,-236.408"/>
</g>
<!-- \\ElasticsearchIndicesStatusTest -->
<g id="node12" class="node"><title>\\ElasticsearchIndicesStatusTest</title>
<polygon fill="none" stroke="black" points="895,-1136 677,-1136 677,-1100 895,-1100 895,-1136"/>
<text text-anchor="middle" x="786" y="-1115.1" font-family="Courier,monospace" font-size="11.00">ElasticsearchIndicesStatusTest</text>
</g>
<!-- \\ElasticsearchIndicesStatusTest&#45;&gt;\\ElasticsearchTest -->
<g id="edge23" class="edge"><title>\\ElasticsearchIndicesStatusTest&#45;&gt;\\ElasticsearchTest</title>
<path fill="none" stroke="black" d="M708.112,-1099.92C649.905,-1086.41 570.756,-1068.04 513.007,-1054.64"/>
<polygon fill="none" stroke="black" points="513.74,-1051.22 503.207,-1052.37 512.157,-1058.04 513.74,-1051.22"/>
</g>
<!-- \\ElasticsearchTest&#45;&gt;\\CakeTestCase -->
<g id="edge25" class="edge"><title>\\ElasticsearchTest&#45;&gt;\\CakeTestCase</title>
<path fill="none" stroke="black" d="M370.966,-1044.96C336.823,-1045.35 296.804,-1039.42 270,-1015 159.542,-914.354 111.615,-417.006 101.227,-292.365"/>
<polygon fill="none" stroke="black" points="104.693,-291.8 100.388,-282.119 97.7159,-292.371 104.693,-291.8"/>
</g>
<!-- \\ElasticsearchModel -->
<g id="node14" class="node"><title>\\ElasticsearchModel</title>
<polygon fill="none" stroke="black" points="506,-1244 368,-1244 368,-1208 506,-1208 506,-1244"/>
<text text-anchor="middle" x="437" y="-1223.1" font-family="Courier,monospace" font-size="11.00">ElasticsearchModel</text>
</g>
<!-- \\HttpSourceModel -->
<g id="node39" class="node"><title>\\HttpSourceModel</title>
<ellipse fill="none" stroke="black" cx="99" cy="-1226" rx="98.9949" ry="18.3848"/>
<text text-anchor="middle" x="99" y="-1222.4" font-family="Times Roman,serif" font-size="14.00" fill="gray">\HttpSourceModel</text>
</g>
<!-- \\ElasticsearchModel&#45;&gt;\\HttpSourceModel -->
<g id="edge27" class="edge"><title>\\ElasticsearchModel&#45;&gt;\\HttpSourceModel</title>
<path fill="none" stroke="black" d="M367.785,-1226C321.88,-1226 260.671,-1226 208.26,-1226"/>
<polygon fill="none" stroke="black" points="208.243,-1222.5 198.243,-1226 208.243,-1229.5 208.243,-1222.5"/>
</g>
<!-- \\ElasticsearchIndicesStatus -->
<g id="node15" class="node"><title>\\ElasticsearchIndicesStatus</title>
<polygon fill="none" stroke="black" points="882,-1244 690,-1244 690,-1208 882,-1208 882,-1244"/>
<text text-anchor="middle" x="786" y="-1223.1" font-family="Courier,monospace" font-size="11.00">ElasticsearchIndicesStatus</text>
</g>
<!-- \\ElasticsearchIndicesStatus&#45;&gt;\\ElasticsearchModel -->
<g id="edge29" class="edge"><title>\\ElasticsearchIndicesStatus&#45;&gt;\\ElasticsearchModel</title>
<path fill="none" stroke="black" d="M689.71,-1226C635.14,-1226 567.704,-1226 516.222,-1226"/>
<polygon fill="none" stroke="black" points="516.148,-1222.5 506.147,-1226 516.147,-1229.5 516.148,-1222.5"/>
</g>
<!-- \\ElasticsearchAlias -->
<g id="node16" class="node"><title>\\ElasticsearchAlias</title>
<polygon fill="none" stroke="black" points="855,-1190 717,-1190 717,-1154 855,-1154 855,-1190"/>
<text text-anchor="middle" x="786" y="-1169.1" font-family="Courier,monospace" font-size="11.00">ElasticsearchAlias</text>
</g>
<!-- \\ElasticsearchAlias&#45;&gt;\\ElasticsearchModel -->
<g id="edge31" class="edge"><title>\\ElasticsearchAlias&#45;&gt;\\ElasticsearchModel</title>
<path fill="none" stroke="black" d="M716.632,-1182.73C658.941,-1191.66 576.81,-1204.37 516.48,-1213.7"/>
<polygon fill="none" stroke="black" points="515.584,-1210.3 506.237,-1215.29 516.655,-1217.22 515.584,-1210.3"/>
</g>
<!-- \\ElasticsearchSource -->
<g id="node17" class="node"><title>\\ElasticsearchSource</title>
<polygon fill="none" stroke="black" points="858,-542 714,-542 714,-506 858,-506 858,-542"/>
<text text-anchor="middle" x="786" y="-521.1" font-family="Courier,monospace" font-size="11.00">ElasticsearchSource</text>
</g>
<!-- \\HttpSource -->
<g id="node43" class="node"><title>\\HttpSource</title>
<ellipse fill="none" stroke="black" cx="437" cy="-72" rx="70.0036" ry="18.3848"/>
<text text-anchor="middle" x="437" y="-68.4" font-family="Times Roman,serif" font-size="14.00" fill="gray">\HttpSource</text>
</g>
<!-- \\ElasticsearchSource&#45;&gt;\\HttpSource -->
<g id="edge33" class="edge"><title>\\ElasticsearchSource&#45;&gt;\\HttpSource</title>
<path fill="none" stroke="black" d="M713.391,-518.523C699.38,-514.315 685.979,-507.591 676,-497 554.227,-367.757 729.052,-230.073 604,-104 581.114,-80.9273 547.029,-71.7808 515.61,-68.8498"/>
<polygon fill="none" stroke="black" points="515.75,-65.3508 505.52,-68.1069 515.236,-72.3319 515.75,-65.3508"/>
</g>
<!-- \\ElasticsearchConnection -->
<g id="node18" class="node"><title>\\ElasticsearchConnection</title>
<polygon fill="none" stroke="black" points="872,-488 700,-488 700,-452 872,-452 872,-488"/>
<text text-anchor="middle" x="786" y="-467.1" font-family="Courier,monospace" font-size="11.00">ElasticsearchConnection</text>
</g>
<!-- \\HttpSourceConnection -->
<g id="node45" class="node"><title>\\HttpSourceConnection</title>
<ellipse fill="none" stroke="black" cx="437" cy="-18" rx="125.158" ry="18.3848"/>
<text text-anchor="middle" x="437" y="-14.4" font-family="Times Roman,serif" font-size="14.00" fill="gray">\HttpSourceConnection</text>
</g>
<!-- \\ElasticsearchConnection&#45;&gt;\\HttpSourceConnection -->
<g id="edge35" class="edge"><title>\\ElasticsearchConnection&#45;&gt;\\HttpSourceConnection</title>
<path fill="none" stroke="black" d="M784.274,-451.808C776.913,-385.175 741.884,-152.73 604,-45 593.199,-36.5608 580.785,-30.3013 567.706,-25.7072"/>
<polygon fill="none" stroke="black" points="568.669,-22.3408 558.078,-22.6491 566.549,-29.0123 568.669,-22.3408"/>
</g>
<!-- \\ElasticsearchDocument -->
<g id="node19" class="node"><title>\\ElasticsearchDocument</title>
<polygon fill="none" stroke="black" points="865,-1298 707,-1298 707,-1262 865,-1262 865,-1298"/>
<text text-anchor="middle" x="786" y="-1277.1" font-family="Courier,monospace" font-size="11.00">ElasticsearchDocument</text>
</g>
<!-- \\ElasticsearchDocument&#45;&gt;\\ElasticsearchModel -->
<g id="edge37" class="edge"><title>\\ElasticsearchDocument&#45;&gt;\\ElasticsearchModel</title>
<path fill="none" stroke="black" d="M706.806,-1267.75C649.795,-1258.93 573.205,-1247.07 516.194,-1238.25"/>
<polygon fill="none" stroke="black" points="516.563,-1234.77 506.145,-1236.7 515.492,-1241.69 516.563,-1234.77"/>
</g>
</g>
</svg>
