<?xml version="1.0" encoding="UTF-8" standalone="no"?>
<!DOCTYPE svg PUBLIC "-//W3C//DTD SVG 1.1//EN"
 "http://www.w3.org/Graphics/SVG/1.1/DTD/svg11.dtd">
<!-- Generated by graphviz version 2.26.3 (20100126.1600)
 -->
<!-- Title: G Pages: 1 -->
<svg width="920pt" height="1468pt"
 viewBox="0.00 0.00 920.00 1468.00" xmlns="http://www.w3.org/2000/svg" xmlns:xlink="http://www.w3.org/1999/xlink">
<g id="graph1" class="graph" transform="scale(1 1) rotate(0) translate(4 1464)">
<title>G</title>
<polygon fill="white" stroke="white" points="-4,5 -4,-1464 917,-1464 917,5 -4,5"/>
<g id="graph2" class="cluster"><title>cluster_Global</title>
<polyline fill="none" stroke="gray" points="372,-406 892,-406 "/>
<path fill="none" stroke="gray" d="M892,-406C898,-406 904,-412 904,-418"/>
<polyline fill="none" stroke="gray" points="904,-418 904,-1440 "/>
<path fill="none" stroke="gray" d="M904,-1440C904,-1446 898,-1452 892,-1452"/>
<polyline fill="none" stroke="gray" points="892,-1452 372,-1452 "/>
<path fill="none" stroke="gray" d="M372,-1452C366,-1452 360,-1446 360,-1440"/>
<polyline fill="none" stroke="gray" points="360,-1440 360,-418 "/>
<path fill="none" stroke="gray" d="M360,-418C360,-412 366,-406 372,-406"/>
<text text-anchor="middle" x="632" y="-1438.1" font-family="Times Roman,serif" font-size="11.00" fill="gray">Global</text>
</g>
<!-- \\ElasticsearchController -->
<g id="node2" class="node"><title>\\ElasticsearchController</title>
<polygon fill="none" stroke="black" points="872,-990 700,-990 700,-954 872,-954 872,-990"/>
<text text-anchor="middle" x="786" y="-969.1" font-family="Courier,monospace" font-size="11.00">ElasticsearchController</text>
</g>
<!-- \\HttpSourceController -->
<g id="node24" class="node"><title>\\HttpSourceController</title>
<ellipse fill="none" stroke="black" cx="437" cy="-380" rx="118.794" ry="18.3848"/>
<text text-anchor="middle" x="437" y="-376.4" font-family="Times Roman,serif" font-size="14.00" fill="gray">\HttpSourceController</text>
</g>
<!-- \\ElasticsearchController&#45;&gt;\\HttpSourceController -->
<g id="edge3" class="edge"><title>\\ElasticsearchController&#45;&gt;\\HttpSourceController</title>
<path fill="none" stroke="black" d="M699.968,-962.03C690.924,-957.921 682.629,-952.393 676,-945 513.479,-763.747 776.215,-574.069 604,-402 592.351,-390.36 577.746,-382.777 562.049,-378.029"/>
<polygon fill="none" stroke="black" points="562.712,-374.584 552.151,-375.428 560.933,-381.354 562.712,-374.584"/>
</g>
<!-- \\ElasticsearchTest -->
<g id="node3" class="node"><title>\\ElasticsearchTest</title>
<polygon fill="none" stroke="black" points="503,-1098 371,-1098 371,-1062 503,-1062 503,-1098"/>
<text text-anchor="start" x="403" y="-1085.43" font-family="Courier,monospace" font-size="11.00">«abstract»</text>
<text text-anchor="start" x="379.5" y="-1072.23" font-family="Courier,monospace" font-size="11.00">ElasticsearchTest</text>
</g>
<!-- \\CakeTestCase -->
<g id="node26" class="node"><title>\\CakeTestCase</title>
<ellipse fill="none" stroke="black" cx="99" cy="-626" rx="82.0244" ry="18.3848"/>
<text text-anchor="middle" x="99" y="-622.4" font-family="Times Roman,serif" font-size="14.00" fill="gray">\CakeTestCase</text>
</g>
<!-- \\ElasticsearchTest&#45;&gt;\\CakeTestCase -->
<g id="edge5" class="edge"><title>\\ElasticsearchTest&#45;&gt;\\CakeTestCase</title>
<path fill="none" stroke="black" d="M370.756,-1086.26C337.378,-1085.97 298.131,-1079.94 270,-1058 137.273,-954.471 107.306,-732.663 100.763,-654.207"/>
<polygon fill="none" stroke="black" points="104.243,-653.818 99.9869,-644.115 97.2641,-654.354 104.243,-653.818"/>
</g>
<!-- \\ElasticsearchIndexFixture -->
<g id="node4" class="node"><title>\\ElasticsearchIndexFixture</title>
<polygon fill="none" stroke="black" points="878,-882 694,-882 694,-846 878,-846 878,-882"/>
<text text-anchor="middle" x="786" y="-861.1" font-family="Courier,monospace" font-size="11.00">ElasticsearchIndexFixture</text>
</g>
<!-- \\HttpSourceTestFixture -->
<g id="node28" class="node"><title>\\HttpSourceTestFixture</title>
<ellipse fill="none" stroke="black" cx="437" cy="-326" rx="123.951" ry="18.3848"/>
<text text-anchor="middle" x="437" y="-322.4" font-family="Times Roman,serif" font-size="14.00" fill="gray">\HttpSourceTestFixture</text>
</g>
<!-- \\ElasticsearchIndexFixture&#45;&gt;\\HttpSourceTestFixture -->
<g id="edge7" class="edge"><title>\\ElasticsearchIndexFixture&#45;&gt;\\HttpSourceTestFixture</title>
<path fill="none" stroke="black" d="M693.499,-850.625C686.994,-847.002 681.032,-842.524 676,-837 529.536,-676.236 756.808,-507.747 604,-353 594.545,-343.424 583.124,-336.412 570.744,-331.351"/>
<polygon fill="none" stroke="black" points="571.702,-327.975 561.107,-327.852 569.312,-334.555 571.702,-327.975"/>
</g>
<!-- \\ElasticsearchAliasFixture -->
<g id="node5" class="node"><title>\\ElasticsearchAliasFixture</title>
<polygon fill="none" stroke="black" points="878,-828 694,-828 694,-792 878,-792 878,-828"/>
<text text-anchor="middle" x="786" y="-807.1" font-family="Courier,monospace" font-size="11.00">ElasticsearchAliasFixture</text>
</g>
<!-- \\ElasticsearchAliasFixture&#45;&gt;\\HttpSourceTestFixture -->
<g id="edge9" class="edge"><title>\\ElasticsearchAliasFixture&#45;&gt;\\HttpSourceTestFixture</title>
<path fill="none" stroke="black" d="M693.351,-796.382C686.922,-792.807 681.016,-788.406 676,-783 544.201,-640.956 741.401,-489.632 604,-353 594.458,-343.511 582.981,-336.554 570.569,-331.526"/>
<polygon fill="none" stroke="black" points="571.505,-328.144 560.911,-328.048 569.133,-334.729 571.505,-328.144"/>
</g>
<!-- \\ElasticsearchArticleFixture -->
<g id="node6" class="node"><title>\\ElasticsearchArticleFixture</title>
<polygon fill="none" stroke="black" points="885,-936 687,-936 687,-900 885,-900 885,-936"/>
<text text-anchor="middle" x="786" y="-915.1" font-family="Courier,monospace" font-size="11.00">ElasticsearchArticleFixture</text>
</g>
<!-- \\ElasticsearchArticleFixture&#45;&gt;\\HttpSourceTestFixture -->
<g id="edge11" class="edge"><title>\\ElasticsearchArticleFixture&#45;&gt;\\HttpSourceTestFixture</title>
<path fill="none" stroke="black" d="M686.487,-900.32C682.681,-897.602 679.153,-894.512 676,-891 514.841,-711.485 772.244,-525.893 604,-353 594.615,-343.356 583.239,-336.299 570.887,-331.212"/>
<polygon fill="none" stroke="black" points="571.861,-327.841 561.267,-327.696 569.457,-334.416 571.861,-327.841"/>
</g>
<!-- \\ElasticsearchControllerTest -->
<g id="node7" class="node"><title>\\ElasticsearchControllerTest</title>
<polygon fill="none" stroke="black" points="885,-774 687,-774 687,-738 885,-738 885,-774"/>
<text text-anchor="middle" x="786" y="-753.1" font-family="Courier,monospace" font-size="11.00">ElasticsearchControllerTest</text>
</g>
<!-- \\ControllerTestCase -->
<g id="node32" class="node"><title>\\ControllerTestCase</title>
<ellipse fill="none" stroke="black" cx="437" cy="-272" rx="106.773" ry="18.3848"/>
<text text-anchor="middle" x="437" y="-268.4" font-family="Times Roman,serif" font-size="14.00" fill="gray">\ControllerTestCase</text>
</g>
<!-- \\ElasticsearchControllerTest&#45;&gt;\\ControllerTestCase -->
<g id="edge13" class="edge"><title>\\ElasticsearchControllerTest&#45;&gt;\\ControllerTestCase</title>
<path fill="none" stroke="black" d="M686.149,-737.854C682.488,-735.253 679.076,-732.315 676,-729 544.201,-586.956 741.401,-435.632 604,-299 590.167,-285.245 572.27,-276.81 553.349,-271.86"/>
<polygon fill="none" stroke="black" points="553.906,-268.397 543.377,-269.58 552.345,-275.221 553.906,-268.397"/>
</g>
<!-- \\AllElasticsearchSourceTest -->
<g id="node8" class="node"><title>\\AllElasticsearchSourceTest</title>
<polygon fill="none" stroke="black" points="882,-720 690,-720 690,-684 882,-684 882,-720"/>
<text text-anchor="middle" x="786" y="-699.1" font-family="Courier,monospace" font-size="11.00">AllElasticsearchSourceTest</text>
</g>
<!-- \\PHPUnit_Framework_TestSuite -->
<g id="node34" class="node"><title>\\PHPUnit_Framework_TestSuite</title>
<ellipse fill="none" stroke="black" cx="437" cy="-218" rx="166.877" ry="18.3848"/>
<text text-anchor="middle" x="437" y="-214.4" font-family="Times Roman,serif" font-size="14.00" fill="gray">\PHPUnit_Framework_TestSuite</text>
</g>
<!-- \\AllElasticsearchSourceTest&#45;&gt;\\PHPUnit_Framework_TestSuite -->
<g id="edge15" class="edge"><title>\\AllElasticsearchSourceTest&#45;&gt;\\PHPUnit_Framework_TestSuite</title>
<path fill="none" stroke="black" d="M689.559,-686.136C684.595,-683.006 680.013,-679.324 676,-675 544.201,-532.956 741.401,-381.632 604,-245 599.285,-240.311 594.098,-236.241 588.559,-232.716"/>
<polygon fill="none" stroke="black" points="590.006,-229.512 579.582,-227.615 586.547,-235.599 590.006,-229.512"/>
</g>
<!-- \\ElasticsearchHelperTest -->
<g id="node9" class="node"><title>\\ElasticsearchHelperTest</title>
<polygon fill="none" stroke="black" points="872,-666 700,-666 700,-630 872,-630 872,-666"/>
<text text-anchor="middle" x="786" y="-645.1" font-family="Courier,monospace" font-size="11.00">ElasticsearchHelperTest</text>
</g>
<!-- \\ElasticsearchHelperTest&#45;&gt;\\CakeTestCase -->
<g id="edge17" class="edge"><title>\\ElasticsearchHelperTest&#45;&gt;\\CakeTestCase</title>
<path fill="none" stroke="black" d="M699.94,-637.688C690.959,-633.629 682.688,-628.207 676,-621 544.201,-478.956 744.574,-324.366 604,-191 549.807,-139.586 511.697,-171.224 437,-172"/>
</g>
<!-- \\ElasticsearchDocumentTest -->
<g id="node10" class="node"><title>\\ElasticsearchDocumentTest</title>
<polygon fill="none" stroke="black" points="878,-1044 694,-1044 694,-1008 878,-1008 878,-1044"/>
<text text-anchor="middle" x="786" y="-1023.1" font-family="Courier,monospace" font-size="11.00">ElasticsearchDocumentTest</text>
</g>
<!-- \\ElasticsearchDocumentTest&#45;&gt;\\ElasticsearchTest -->
<g id="edge19" class="edge"><title>\\ElasticsearchDocumentTest&#45;&gt;\\ElasticsearchTest</title>
<path fill="none" stroke="black" d="M693.072,-1043.13C664.538,-1048.18 633.014,-1053.54 604,-1058 574.525,-1062.53 542.033,-1066.94 513.604,-1070.61"/>
<polygon fill="none" stroke="black" points="512.802,-1067.19 503.328,-1071.93 513.692,-1074.13 512.802,-1067.19"/>
</g>
<!-- \\ElasticsearchAliasTest -->
<g id="node11" class="node"><title>\\ElasticsearchAliasTest</title>
<polygon fill="none" stroke="black" points="868,-1206 704,-1206 704,-1170 868,-1170 868,-1206"/>
<text text-anchor="middle" x="786" y="-1185.1" font-family="Courier,monospace" font-size="11.00">ElasticsearchAliasTest</text>
</g>
<!-- \\ElasticsearchAliasTest&#45;&gt;\\ElasticsearchTest -->
<g id="edge21" class="edge"><title>\\ElasticsearchAliasTest&#45;&gt;\\ElasticsearchTest</title>
<path fill="none" stroke="black" d="M708.845,-1169.96C697.782,-1167.11 686.572,-1164.08 676,-1161 613.829,-1142.87 543.771,-1118.67 495.663,-1101.46"/>
<polygon fill="none" stroke="black" points="496.636,-1098.09 486.042,-1098 494.271,-1104.68 496.636,-1098.09"/>
</g>
<!-- \\ElasticsearchSourceTest -->
<g id="node12" class="node"><title>\\ElasticsearchSourceTest</title>
<polygon fill="none" stroke="black" points="872,-612 700,-612 700,-576 872,-576 872,-612"/>
<text text-anchor="middle" x="786" y="-591.1" font-family="Courier,monospace" font-size="11.00">ElasticsearchSourceTest</text>
</g>
<!-- \\ElasticsearchSourceTest&#45;&gt;\\CakeTestCase -->
<g id="edge23" class="edge"><title>\\ElasticsearchSourceTest&#45;&gt;\\CakeTestCase</title>
<path fill="none" stroke="black" d="M699.832,-583.415C690.927,-579.396 682.703,-574.058 676,-567 558.825,-443.63 728.791,-306.66 604,-191 549.212,-140.221 511.697,-171.224 437,-172"/>
<path fill="none" stroke="black" d="M437,-172C362.303,-172.776 329.252,-145.509 270,-191 135.681,-294.124 106.718,-518.181 100.6,-597.482"/>
<polygon fill="none" stroke="black" points="97.0927,-597.461 99.8796,-607.683 104.075,-597.954 97.0927,-597.461"/>
</g>
<!-- \\ElasticsearchIndicesStatusTest -->
<g id="node13" class="node"><title>\\ElasticsearchIndicesStatusTest</title>
<polygon fill="none" stroke="black" points="895,-1152 677,-1152 677,-1116 895,-1116 895,-1152"/>
<text text-anchor="middle" x="786" y="-1131.1" font-family="Courier,monospace" font-size="11.00">ElasticsearchIndicesStatusTest</text>
</g>
<!-- \\ElasticsearchIndicesStatusTest&#45;&gt;\\ElasticsearchTest -->
<g id="edge25" class="edge"><title>\\ElasticsearchIndicesStatusTest&#45;&gt;\\ElasticsearchTest</title>
<path fill="none" stroke="black" d="M676.053,-1116.99C623.078,-1108.79 560.862,-1099.16 513.183,-1091.79"/>
<polygon fill="none" stroke="black" points="513.655,-1088.32 503.238,-1090.25 512.585,-1095.24 513.655,-1088.32"/>
</g>
<!-- \\ElasticsearchIndexTest -->
<g id="node14" class="node"><title>\\ElasticsearchIndexTest</title>
<polygon fill="none" stroke="black" points="868,-1098 704,-1098 704,-1062 868,-1062 868,-1098"/>
<text text-anchor="middle" x="786" y="-1077.1" font-family="Courier,monospace" font-size="11.00">ElasticsearchIndexTest</text>
</g>
<!-- \\ElasticsearchIndexTest&#45;&gt;\\ElasticsearchTest -->
<g id="edge27" class="edge"><title>\\ElasticsearchIndexTest&#45;&gt;\\ElasticsearchTest</title>
<path fill="none" stroke="black" d="M703.292,-1080C645.7,-1080 569.459,-1080 513.318,-1080"/>
<polygon fill="none" stroke="black" points="513.079,-1076.5 503.079,-1080 513.079,-1083.5 513.079,-1076.5"/>
</g>
<!-- \\ElasticsearchHelper -->
<g id="node15" class="node"><title>\\ElasticsearchHelper</title>
<polygon fill="none" stroke="black" points="858,-558 714,-558 714,-522 858,-522 858,-558"/>
<text text-anchor="middle" x="786" y="-537.1" font-family="Courier,monospace" font-size="11.00">ElasticsearchHelper</text>
</g>
<!-- \\HtmlHelper -->
<g id="node42" class="node"><title>\\HtmlHelper</title>
<ellipse fill="none" stroke="black" cx="437" cy="-126" rx="70.0036" ry="18.3848"/>
<text text-anchor="middle" x="437" y="-122.4" font-family="Times Roman,serif" font-size="14.00" fill="gray">\HtmlHelper</text>
</g>
<!-- \\ElasticsearchHelper&#45;&gt;\\HtmlHelper -->
<g id="edge29" class="edge"><title>\\ElasticsearchHelper&#45;&gt;\\HtmlHelper</title>
<path fill="none" stroke="black" d="M713.258,-534.294C699.34,-530.09 686.01,-523.425 676,-513 564.497,-396.876 718.449,-271.222 604,-158 580.992,-135.238 547.061,-126.104 515.784,-123.098"/>
<polygon fill="none" stroke="black" points="515.978,-119.603 505.739,-122.329 515.443,-126.583 515.978,-119.603"/>
</g>
<!-- \\ElasticsearchDocument -->
<g id="node16" class="node"><title>\\ElasticsearchDocument</title>
<polygon fill="none" stroke="black" points="865,-1260 707,-1260 707,-1224 865,-1224 865,-1260"/>
<text text-anchor="middle" x="786" y="-1239.1" font-family="Courier,monospace" font-size="11.00">ElasticsearchDocument</text>
</g>
<!-- \\ElasticsearchModel -->
<g id="node18" class="node"><title>\\ElasticsearchModel</title>
<polygon fill="none" stroke="black" points="506,-1341 368,-1341 368,-1305 506,-1305 506,-1341"/>
<text text-anchor="middle" x="437" y="-1320.1" font-family="Courier,monospace" font-size="11.00">ElasticsearchModel</text>
</g>
<!-- \\ElasticsearchDocument&#45;&gt;\\ElasticsearchModel -->
<g id="edge31" class="edge"><title>\\ElasticsearchDocument&#45;&gt;\\ElasticsearchModel</title>
<path fill="none" stroke="black" d="M708.112,-1260.08C650.855,-1273.37 573.333,-1291.36 515.85,-1304.7"/>
<polygon fill="none" stroke="black" points="515.032,-1301.3 506.083,-1306.97 516.615,-1308.11 515.032,-1301.3"/>
</g>
<!-- \\ElasticsearchIndex -->
<g id="node17" class="node"><title>\\ElasticsearchIndex</title>
<polygon fill="none" stroke="black" points="855,-1422 717,-1422 717,-1386 855,-1386 855,-1422"/>
<text text-anchor="middle" x="786" y="-1401.1" font-family="Courier,monospace" font-size="11.00">ElasticsearchIndex</text>
</g>
<!-- \\ElasticsearchIndex&#45;&gt;\\ElasticsearchModel -->
<g id="edge33" class="edge"><title>\\ElasticsearchIndex&#45;&gt;\\ElasticsearchModel</title>
<path fill="none" stroke="black" d="M716.632,-1387.9C658.822,-1374.48 576.471,-1355.37 516.106,-1341.36"/>
<polygon fill="none" stroke="black" points="516.77,-1337.92 506.237,-1339.07 515.187,-1344.74 516.77,-1337.92"/>
</g>
<!-- \\HttpSourceModel -->
<g id="node46" class="node"><title>\\HttpSourceModel</title>
<ellipse fill="none" stroke="black" cx="99" cy="-1323" rx="98.9949" ry="18.3848"/>
<text text-anchor="middle" x="99" y="-1319.4" font-family="Times Roman,serif" font-size="14.00" fill="gray">\HttpSourceModel</text>
</g>
<!-- \\ElasticsearchModel&#45;&gt;\\HttpSourceModel -->
<g id="edge35" class="edge"><title>\\ElasticsearchModel&#45;&gt;\\HttpSourceModel</title>
<path fill="none" stroke="black" d="M367.785,-1323C321.88,-1323 260.671,-1323 208.26,-1323"/>
<polygon fill="none" stroke="black" points="208.243,-1319.5 198.243,-1323 208.243,-1326.5 208.243,-1319.5"/>
</g>
<!-- \\ElasticsearchConnection -->
<g id="node19" class="node"><title>\\ElasticsearchConnection</title>
<polygon fill="none" stroke="black" points="872,-504 700,-504 700,-468 872,-468 872,-504"/>
<text text-anchor="middle" x="786" y="-483.1" font-family="Courier,monospace" font-size="11.00">ElasticsearchConnection</text>
</g>
<!-- \\HttpSourceConnection -->
<g id="node48" class="node"><title>\\HttpSourceConnection</title>
<ellipse fill="none" stroke="black" cx="437" cy="-72" rx="125.158" ry="18.3848"/>
<text text-anchor="middle" x="437" y="-68.4" font-family="Times Roman,serif" font-size="14.00" fill="gray">\HttpSourceConnection</text>
</g>
<!-- \\ElasticsearchConnection&#45;&gt;\\HttpSourceConnection -->
<g id="edge37" class="edge"><title>\\ElasticsearchConnection&#45;&gt;\\HttpSourceConnection</title>
<path fill="none" stroke="black" d="M699.889,-475.361C690.974,-471.351 682.732,-466.03 676,-459 563.147,-341.152 721.498,-212.217 604,-99 594.394,-89.7437 582.939,-82.9221 570.594,-77.9625"/>
<polygon fill="none" stroke="black" points="571.591,-74.6018 560.996,-74.5235 569.229,-81.1916 571.591,-74.6018"/>
</g>
<!-- \\ElasticsearchSource -->
<g id="node20" class="node"><title>\\ElasticsearchSource</title>
<polygon fill="none" stroke="black" points="858,-450 714,-450 714,-414 858,-414 858,-450"/>
<text text-anchor="middle" x="786" y="-429.1" font-family="Courier,monospace" font-size="11.00">ElasticsearchSource</text>
</g>
<!-- \\HttpSource -->
<g id="node50" class="node"><title>\\HttpSource</title>
<ellipse fill="none" stroke="black" cx="437" cy="-18" rx="70.0036" ry="18.3848"/>
<text text-anchor="middle" x="437" y="-14.4" font-family="Times Roman,serif" font-size="14.00" fill="gray">\HttpSource</text>
</g>
<!-- \\ElasticsearchSource&#45;&gt;\\HttpSource -->
<g id="edge39" class="edge"><title>\\ElasticsearchSource&#45;&gt;\\HttpSource</title>
<path fill="none" stroke="black" d="M783.439,-413.677C773.594,-350.671 732.082,-141.511 604,-45 579.133,-26.2623 546.222,-18.4136 516.194,-15.6486"/>
<polygon fill="none" stroke="black" points="516.369,-12.1521 506.136,-14.8974 515.848,-19.1327 516.369,-12.1521"/>
</g>
<!-- \\ElasticsearchIndicesStatus -->
<g id="node21" class="node"><title>\\ElasticsearchIndicesStatus</title>
<polygon fill="none" stroke="black" points="882,-1368 690,-1368 690,-1332 882,-1332 882,-1368"/>
<text text-anchor="middle" x="786" y="-1347.1" font-family="Courier,monospace" font-size="11.00">ElasticsearchIndicesStatus</text>
</g>
<!-- \\ElasticsearchIndicesStatus&#45;&gt;\\ElasticsearchModel -->
<g id="edge41" class="edge"><title>\\ElasticsearchIndicesStatus&#45;&gt;\\ElasticsearchModel</title>
<path fill="none" stroke="black" d="M689.71,-1342.55C635.14,-1338.33 567.704,-1333.11 516.222,-1329.13"/>
<polygon fill="none" stroke="black" points="516.388,-1325.63 506.147,-1328.35 515.848,-1332.61 516.388,-1325.63"/>
</g>
<!-- \\ElasticsearchAlias -->
<g id="node22" class="node"><title>\\ElasticsearchAlias</title>
<polygon fill="none" stroke="black" points="855,-1314 717,-1314 717,-1278 855,-1278 855,-1314"/>
<text text-anchor="middle" x="786" y="-1293.1" font-family="Courier,monospace" font-size="11.00">ElasticsearchAlias</text>
</g>
<!-- \\ElasticsearchAlias&#45;&gt;\\ElasticsearchModel -->
<g id="edge43" class="edge"><title>\\ElasticsearchAlias&#45;&gt;\\ElasticsearchModel</title>
<path fill="none" stroke="black" d="M716.632,-1301.37C658.941,-1305.83 576.81,-1312.18 516.48,-1316.85"/>
<polygon fill="none" stroke="black" points="515.937,-1313.38 506.237,-1317.64 516.477,-1320.36 515.937,-1313.38"/>
</g>
</g>
</svg>
