<?xml version="1.0" encoding="UTF-8" standalone="no"?>
<!DOCTYPE svg PUBLIC "-//W3C//DTD SVG 1.1//EN"
 "http://www.w3.org/Graphics/SVG/1.1/DTD/svg11.dtd">
<!-- Generated by graphviz version 2.26.3 (20100126.1600)
 -->
<!-- Title: G Pages: 1 -->
<svg width="920pt" height="1124pt"
 viewBox="0.00 0.00 920.00 1123.78" xmlns="http://www.w3.org/2000/svg" xmlns:xlink="http://www.w3.org/1999/xlink">
<g id="graph1" class="graph" transform="scale(1 1) rotate(0) translate(4 1119.78)">
<title>G</title>
<polygon fill="white" stroke="white" points="-4,5 -4,-1119.78 917,-1119.78 917,5 -4,5"/>
<g id="graph2" class="cluster"><title>cluster_Global</title>
<polyline fill="none" stroke="gray" points="372,-260 892,-260 "/>
<path fill="none" stroke="gray" d="M892,-260C898,-260 904,-266 904,-272"/>
<polyline fill="none" stroke="gray" points="904,-272 904,-970 "/>
<path fill="none" stroke="gray" d="M904,-970C904,-976 898,-982 892,-982"/>
<polyline fill="none" stroke="gray" points="892,-982 372,-982 "/>
<path fill="none" stroke="gray" d="M372,-982C366,-982 360,-976 360,-970"/>
<polyline fill="none" stroke="gray" points="360,-970 360,-272 "/>
<path fill="none" stroke="gray" d="M360,-272C360,-266 366,-260 372,-260"/>
<text text-anchor="middle" x="632" y="-968.1" font-family="Times Roman,serif" font-size="11.00" fill="gray">Global</text>
</g>
<!-- \\ElasticsearchHelperTest -->
<g id="node2" class="node"><title>\\ElasticsearchHelperTest</title>
<polygon fill="none" stroke="black" points="872,-952 700,-952 700,-916 872,-916 872,-952"/>
<text text-anchor="middle" x="786" y="-931.1" font-family="Courier,monospace" font-size="11.00">ElasticsearchHelperTest</text>
</g>
<!-- \\CakeTestCase -->
<g id="node18" class="node"><title>\\CakeTestCase</title>
<ellipse fill="none" stroke="black" cx="99" cy="-913" rx="82.0244" ry="18.3848"/>
<text text-anchor="middle" x="99" y="-909.4" font-family="Times Roman,serif" font-size="14.00" fill="gray">\CakeTestCase</text>
</g>
<!-- \\ElasticsearchHelperTest&#45;&gt;\\CakeTestCase -->
<g id="edge3" class="edge"><title>\\ElasticsearchHelperTest&#45;&gt;\\CakeTestCase</title>
<path fill="none" stroke="black" d="M771.49,-952.009C743.269,-985.582 677.292,-1057.2 604,-1089 535.471,-1118.73 511.701,-1108.03 437,-1108"/>
</g>
<!-- \\ElasticsearchControllerTest -->
<g id="node3" class="node"><title>\\ElasticsearchControllerTest</title>
<polygon fill="none" stroke="black" points="885,-844 687,-844 687,-808 885,-808 885,-844"/>
<text text-anchor="middle" x="786" y="-823.1" font-family="Courier,monospace" font-size="11.00">ElasticsearchControllerTest</text>
</g>
<!-- \\ControllerTestCase -->
<g id="node20" class="node"><title>\\ControllerTestCase</title>
<ellipse fill="none" stroke="black" cx="437" cy="-1062" rx="106.773" ry="18.3848"/>
<text text-anchor="middle" x="437" y="-1058.4" font-family="Times Roman,serif" font-size="14.00" fill="gray">\ControllerTestCase</text>
</g>
<!-- \\ElasticsearchControllerTest&#45;&gt;\\ControllerTestCase -->
<g id="edge5" class="edge"><title>\\ElasticsearchControllerTest&#45;&gt;\\ControllerTestCase</title>
<path fill="none" stroke="black" d="M688.503,-844.082C684.057,-846.682 679.853,-849.639 676,-853 610.452,-910.188 671.794,-980.493 604,-1035 589.546,-1046.62 572.06,-1054.15 553.919,-1058.9"/>
<polygon fill="none" stroke="black" points="553.028,-1055.52 544.088,-1061.2 554.622,-1062.33 553.028,-1055.52"/>
</g>
<!-- \\AllElasticsearchSourceTest -->
<g id="node4" class="node"><title>\\AllElasticsearchSourceTest</title>
<polygon fill="none" stroke="black" points="882,-790 690,-790 690,-754 882,-754 882,-790"/>
<text text-anchor="middle" x="786" y="-769.1" font-family="Courier,monospace" font-size="11.00">AllElasticsearchSourceTest</text>
</g>
<!-- \\PHPUnit_Framework_TestSuite -->
<g id="node22" class="node"><title>\\PHPUnit_Framework_TestSuite</title>
<ellipse fill="none" stroke="black" cx="437" cy="-1008" rx="166.877" ry="18.3848"/>
<text text-anchor="middle" x="437" y="-1004.4" font-family="Times Roman,serif" font-size="14.00" fill="gray">\PHPUnit_Framework_TestSuite</text>
</g>
<!-- \\AllElasticsearchSourceTest&#45;&gt;\\PHPUnit_Framework_TestSuite -->
<g id="edge7" class="edge"><title>\\AllElasticsearchSourceTest&#45;&gt;\\PHPUnit_Framework_TestSuite</title>
<path fill="none" stroke="black" d="M689.751,-789.296C684.839,-792.083 680.206,-795.296 676,-799 609.162,-857.856 673.965,-930.897 604,-986 600.112,-989.062 596.009,-991.815 591.735,-994.287"/>
<polygon fill="none" stroke="black" points="589.99,-991.25 582.739,-998.975 593.225,-997.458 589.99,-991.25"/>
</g>
<!-- \\ElasticsearchSourceTest -->
<g id="node5" class="node"><title>\\ElasticsearchSourceTest</title>
<polygon fill="none" stroke="black" points="872,-898 700,-898 700,-862 872,-862 872,-898"/>
<text text-anchor="middle" x="786" y="-877.1" font-family="Courier,monospace" font-size="11.00">ElasticsearchSourceTest</text>
</g>
<!-- \\ElasticsearchSourceTest&#45;&gt;\\CakeTestCase -->
<g id="edge9" class="edge"><title>\\ElasticsearchSourceTest&#45;&gt;\\CakeTestCase</title>
<path fill="none" stroke="black" d="M699.962,-892.337C691.252,-896.068 683.038,-900.859 676,-907 610.452,-964.188 673.056,-1036.1 604,-1089 544.699,-1134.43 511.701,-1108.03 437,-1108"/>
<path fill="none" stroke="black" d="M437,-1108C362.299,-1107.97 337.05,-1121.93 270,-1089 199.965,-1054.6 142.616,-979.34 115.648,-939.29"/>
<polygon fill="none" stroke="black" points="118.494,-937.249 110.058,-930.84 112.656,-941.112 118.494,-937.249"/>
</g>
<!-- \\ElasticsearchDocumentTest -->
<g id="node6" class="node"><title>\\ElasticsearchDocumentTest</title>
<polygon fill="none" stroke="black" points="878,-736 694,-736 694,-700 878,-700 878,-736"/>
<text text-anchor="middle" x="786" y="-715.1" font-family="Courier,monospace" font-size="11.00">ElasticsearchDocumentTest</text>
</g>
<!-- \\ElasticsearchTest -->
<g id="node9" class="node"><title>\\ElasticsearchTest</title>
<polygon fill="none" stroke="black" points="503,-736 371,-736 371,-700 503,-700 503,-736"/>
<text text-anchor="start" x="403" y="-723.433" font-family="Courier,monospace" font-size="11.00">«abstract»</text>
<text text-anchor="start" x="379.5" y="-710.233" font-family="Courier,monospace" font-size="11.00">ElasticsearchTest</text>
</g>
<!-- \\ElasticsearchDocumentTest&#45;&gt;\\ElasticsearchTest -->
<g id="edge11" class="edge"><title>\\ElasticsearchDocumentTest&#45;&gt;\\ElasticsearchTest</title>
<path fill="none" stroke="black" d="M693.391,-718C637.141,-718 566.209,-718 513.219,-718"/>
<polygon fill="none" stroke="black" points="513.206,-714.5 503.206,-718 513.206,-721.5 513.206,-714.5"/>
</g>
<!-- \\ElasticsearchIndicesStatusTest -->
<g id="node7" class="node"><title>\\ElasticsearchIndicesStatusTest</title>
<polygon fill="none" stroke="black" points="895,-682 677,-682 677,-646 895,-646 895,-682"/>
<text text-anchor="middle" x="786" y="-661.1" font-family="Courier,monospace" font-size="11.00">ElasticsearchIndicesStatusTest</text>
</g>
<!-- \\ElasticsearchIndicesStatusTest&#45;&gt;\\ElasticsearchTest -->
<g id="edge13" class="edge"><title>\\ElasticsearchIndicesStatusTest&#45;&gt;\\ElasticsearchTest</title>
<path fill="none" stroke="black" d="M676.053,-681.012C623.078,-689.209 560.862,-698.835 513.183,-706.212"/>
<polygon fill="none" stroke="black" points="512.585,-702.763 503.238,-707.751 513.655,-709.681 512.585,-702.763"/>
</g>
<!-- \\ElasticsearchArticleFixture -->
<g id="node8" class="node"><title>\\ElasticsearchArticleFixture</title>
<polygon fill="none" stroke="black" points="885,-520 687,-520 687,-484 885,-484 885,-520"/>
<text text-anchor="middle" x="786" y="-499.1" font-family="Courier,monospace" font-size="11.00">ElasticsearchArticleFixture</text>
</g>
<!-- \\HttpSourceTestFixture -->
<g id="node27" class="node"><title>\\HttpSourceTestFixture</title>
<ellipse fill="none" stroke="black" cx="437" cy="-234" rx="123.951" ry="18.3848"/>
<text text-anchor="middle" x="437" y="-230.4" font-family="Times Roman,serif" font-size="14.00" fill="gray">\HttpSourceTestFixture</text>
</g>
<!-- \\ElasticsearchArticleFixture&#45;&gt;\\HttpSourceTestFixture -->
<g id="edge15" class="edge"><title>\\ElasticsearchArticleFixture&#45;&gt;\\HttpSourceTestFixture</title>
<path fill="none" stroke="black" d="M687.754,-483.88C683.559,-481.285 679.607,-478.34 676,-475 600.818,-405.391 682.886,-321.382 604,-256 594.318,-247.975 583.176,-242.025 571.338,-237.68"/>
<polygon fill="none" stroke="black" points="572.302,-234.313 561.709,-234.53 570.125,-240.966 572.302,-234.313"/>
</g>
<!-- \\ElasticsearchTest&#45;&gt;\\CakeTestCase -->
<g id="edge17" class="edge"><title>\\ElasticsearchTest&#45;&gt;\\CakeTestCase</title>
<path fill="none" stroke="black" d="M370.675,-716.902C338.799,-718.773 300.904,-724.647 270,-740 201.084,-774.238 143.639,-847.386 116.251,-886.705"/>
<polygon fill="none" stroke="black" points="113.323,-884.786 110.561,-895.014 119.099,-888.741 113.323,-884.786"/>
</g>
<!-- \\ElasticsearchHelper -->
<g id="node10" class="node"><title>\\ElasticsearchHelper</title>
<polygon fill="none" stroke="black" points="858,-466 714,-466 714,-430 858,-430 858,-466"/>
<text text-anchor="middle" x="786" y="-445.1" font-family="Courier,monospace" font-size="11.00">ElasticsearchHelper</text>
</g>
<!-- \\HtmlHelper -->
<g id="node30" class="node"><title>\\HtmlHelper</title>
<ellipse fill="none" stroke="black" cx="437" cy="-180" rx="70.0036" ry="18.3848"/>
<text text-anchor="middle" x="437" y="-176.4" font-family="Times Roman,serif" font-size="14.00" fill="gray">\HtmlHelper</text>
</g>
<!-- \\ElasticsearchHelper&#45;&gt;\\HtmlHelper -->
<g id="edge19" class="edge"><title>\\ElasticsearchHelper&#45;&gt;\\HtmlHelper</title>
<path fill="none" stroke="black" d="M713.361,-441.057C699.683,-436.911 686.422,-430.583 676,-421 602.13,-353.078 680.54,-271.898 604,-207 579.648,-186.352 545.863,-178.371 515.048,-176.023"/>
<polygon fill="none" stroke="black" points="514.913,-172.51 504.729,-175.433 514.513,-179.498 514.913,-172.51"/>
</g>
<!-- \\ElasticsearchController -->
<g id="node11" class="node"><title>\\ElasticsearchController</title>
<polygon fill="none" stroke="black" points="872,-412 700,-412 700,-376 872,-376 872,-412"/>
<text text-anchor="middle" x="786" y="-391.1" font-family="Courier,monospace" font-size="11.00">ElasticsearchController</text>
</g>
<!-- \\HttpSourceController -->
<g id="node32" class="node"><title>\\HttpSourceController</title>
<ellipse fill="none" stroke="black" cx="437" cy="-126" rx="118.794" ry="18.3848"/>
<text text-anchor="middle" x="437" y="-122.4" font-family="Times Roman,serif" font-size="14.00" fill="gray">\HttpSourceController</text>
</g>
<!-- \\ElasticsearchController&#45;&gt;\\HttpSourceController -->
<g id="edge21" class="edge"><title>\\ElasticsearchController&#45;&gt;\\HttpSourceController</title>
<path fill="none" stroke="black" d="M699.912,-382.144C691.158,-378.331 682.948,-373.389 676,-367 602.13,-299.078 680.54,-217.898 604,-153 592.624,-143.355 579.191,-136.474 564.963,-131.64"/>
<polygon fill="none" stroke="black" points="565.587,-128.171 555.002,-128.611 563.551,-134.869 565.587,-128.171"/>
</g>
<!-- \\ElasticsearchIndicesStatus -->
<g id="node12" class="node"><title>\\ElasticsearchIndicesStatus</title>
<polygon fill="none" stroke="black" points="882,-628 690,-628 690,-592 882,-592 882,-628"/>
<text text-anchor="middle" x="786" y="-607.1" font-family="Courier,monospace" font-size="11.00">ElasticsearchIndicesStatus</text>
</g>
<!-- \\ElasticsearchModel -->
<g id="node15" class="node"><title>\\ElasticsearchModel</title>
<polygon fill="none" stroke="black" points="506,-601 368,-601 368,-565 506,-565 506,-601"/>
<text text-anchor="middle" x="437" y="-580.1" font-family="Courier,monospace" font-size="11.00">ElasticsearchModel</text>
</g>
<!-- \\ElasticsearchIndicesStatus&#45;&gt;\\ElasticsearchModel -->
<g id="edge23" class="edge"><title>\\ElasticsearchIndicesStatus&#45;&gt;\\ElasticsearchModel</title>
<path fill="none" stroke="black" d="M689.71,-602.551C635.14,-598.329 567.704,-593.112 516.222,-589.129"/>
<polygon fill="none" stroke="black" points="516.388,-585.631 506.147,-588.35 515.848,-592.611 516.388,-585.631"/>
</g>
<!-- \\ElasticsearchSource -->
<g id="node13" class="node"><title>\\ElasticsearchSource</title>
<polygon fill="none" stroke="black" points="858,-358 714,-358 714,-322 858,-322 858,-358"/>
<text text-anchor="middle" x="786" y="-337.1" font-family="Courier,monospace" font-size="11.00">ElasticsearchSource</text>
</g>
<!-- \\HttpSource -->
<g id="node35" class="node"><title>\\HttpSource</title>
<ellipse fill="none" stroke="black" cx="437" cy="-72" rx="70.0036" ry="18.3848"/>
<text text-anchor="middle" x="437" y="-68.4" font-family="Times Roman,serif" font-size="14.00" fill="gray">\HttpSource</text>
</g>
<!-- \\ElasticsearchSource&#45;&gt;\\HttpSource -->
<g id="edge25" class="edge"><title>\\ElasticsearchSource&#45;&gt;\\HttpSource</title>
<path fill="none" stroke="black" d="M713.361,-333.057C699.683,-328.911 686.422,-322.583 676,-313 602.13,-245.078 680.54,-163.898 604,-99 579.648,-78.3518 545.863,-70.3713 515.048,-68.0233"/>
<polygon fill="none" stroke="black" points="514.913,-64.5099 504.729,-67.4327 514.513,-71.4985 514.913,-64.5099"/>
</g>
<!-- \\ElasticsearchConnection -->
<g id="node14" class="node"><title>\\ElasticsearchConnection</title>
<polygon fill="none" stroke="black" points="872,-304 700,-304 700,-268 872,-268 872,-304"/>
<text text-anchor="middle" x="786" y="-283.1" font-family="Courier,monospace" font-size="11.00">ElasticsearchConnection</text>
</g>
<!-- \\HttpSourceConnection -->
<g id="node37" class="node"><title>\\HttpSourceConnection</title>
<ellipse fill="none" stroke="black" cx="437" cy="-18" rx="125.158" ry="18.3848"/>
<text text-anchor="middle" x="437" y="-14.4" font-family="Times Roman,serif" font-size="14.00" fill="gray">\HttpSourceConnection</text>
</g>
<!-- \\ElasticsearchConnection&#45;&gt;\\HttpSourceConnection -->
<g id="edge27" class="edge"><title>\\ElasticsearchConnection&#45;&gt;\\HttpSourceConnection</title>
<path fill="none" stroke="black" d="M778.171,-267.72C757.392,-221.638 696.071,-100.458 604,-45 591.429,-37.4279 577.403,-31.7831 562.968,-27.6017"/>
<polygon fill="none" stroke="black" points="563.486,-24.1181 552.923,-24.935 561.69,-30.8837 563.486,-24.1181"/>
</g>
<!-- \\HttpSourceModel -->
<g id="node39" class="node"><title>\\HttpSourceModel</title>
<ellipse fill="none" stroke="black" cx="99" cy="-583" rx="98.9949" ry="18.3848"/>
<text text-anchor="middle" x="99" y="-579.4" font-family="Times Roman,serif" font-size="14.00" fill="gray">\HttpSourceModel</text>
</g>
<!-- \\ElasticsearchModel&#45;&gt;\\HttpSourceModel -->
<g id="edge29" class="edge"><title>\\ElasticsearchModel&#45;&gt;\\HttpSourceModel</title>
<path fill="none" stroke="black" d="M367.785,-583C321.88,-583 260.671,-583 208.26,-583"/>
<polygon fill="none" stroke="black" points="208.243,-579.5 198.243,-583 208.243,-586.5 208.243,-579.5"/>
</g>
<!-- \\ElasticsearchDocument -->
<g id="node16" class="node"><title>\\ElasticsearchDocument</title>
<polygon fill="none" stroke="black" points="865,-574 707,-574 707,-538 865,-538 865,-574"/>
<text text-anchor="middle" x="786" y="-553.1" font-family="Courier,monospace" font-size="11.00">ElasticsearchDocument</text>
</g>
<!-- \\ElasticsearchDocument&#45;&gt;\\ElasticsearchModel -->
<g id="edge31" class="edge"><title>\\ElasticsearchDocument&#45;&gt;\\ElasticsearchModel</title>
<path fill="none" stroke="black" d="M706.806,-562.127C649.795,-566.537 573.205,-572.463 516.194,-576.873"/>
<polygon fill="none" stroke="black" points="515.845,-573.39 506.145,-577.651 516.385,-580.369 515.845,-573.39"/>
</g>
</g>
</svg>
