<?xml version="1.0" encoding="UTF-8" standalone="no"?>
<!DOCTYPE svg PUBLIC "-//W3C//DTD SVG 1.1//EN"
 "http://www.w3.org/Graphics/SVG/1.1/DTD/svg11.dtd">
<!-- Generated by graphviz version 2.26.3 (20100126.1600)
 -->
<!-- Title: G Pages: 1 -->
<svg width="920pt" height="1144pt"
 viewBox="0.00 0.00 920.00 1144.00" xmlns="http://www.w3.org/2000/svg" xmlns:xlink="http://www.w3.org/1999/xlink">
<g id="graph1" class="graph" transform="scale(1 1) rotate(0) translate(4 1140)">
<title>G</title>
<polygon fill="white" stroke="white" points="-4,5 -4,-1140 917,-1140 917,5 -4,5"/>
<g id="graph2" class="cluster"><title>cluster_Global</title>
<polyline fill="none" stroke="gray" points="372,-406 892,-406 "/>
<path fill="none" stroke="gray" d="M892,-406C898,-406 904,-412 904,-418"/>
<polyline fill="none" stroke="gray" points="904,-418 904,-1116 "/>
<path fill="none" stroke="gray" d="M904,-1116C904,-1122 898,-1128 892,-1128"/>
<polyline fill="none" stroke="gray" points="892,-1128 372,-1128 "/>
<path fill="none" stroke="gray" d="M372,-1128C366,-1128 360,-1122 360,-1116"/>
<polyline fill="none" stroke="gray" points="360,-1116 360,-418 "/>
<path fill="none" stroke="gray" d="M360,-418C360,-412 366,-406 372,-406"/>
<text text-anchor="middle" x="632" y="-1114.1" font-family="Times Roman,serif" font-size="11.00" fill="gray">Global</text>
</g>
<!-- \\ElasticsearchController -->
<g id="node2" class="node"><title>\\ElasticsearchController</title>
<polygon fill="none" stroke="black" points="872,-882 700,-882 700,-846 872,-846 872,-882"/>
<text text-anchor="middle" x="786" y="-861.1" font-family="Courier,monospace" font-size="11.00">ElasticsearchController</text>
</g>
<!-- \\HttpSourceController -->
<g id="node18" class="node"><title>\\HttpSourceController</title>
<ellipse fill="none" stroke="black" cx="437" cy="-380" rx="118.794" ry="18.3848"/>
<text text-anchor="middle" x="437" y="-376.4" font-family="Times Roman,serif" font-size="14.00" fill="gray">\HttpSourceController</text>
</g>
<!-- \\ElasticsearchController&#45;&gt;\\HttpSourceController -->
<g id="edge3" class="edge"><title>\\ElasticsearchController&#45;&gt;\\HttpSourceController</title>
<path fill="none" stroke="black" d="M699.927,-853.701C690.948,-849.639 682.681,-844.214 676,-837 542.845,-693.224 744.838,-538.259 604,-402 592.621,-390.991 578.586,-383.655 563.527,-378.93"/>
<polygon fill="none" stroke="black" points="564.07,-375.45 553.501,-376.19 562.224,-382.202 564.07,-375.45"/>
</g>
<!-- \\ElasticsearchDocument -->
<g id="node3" class="node"><title>\\ElasticsearchDocument</title>
<polygon fill="none" stroke="black" points="865,-1098 707,-1098 707,-1062 865,-1062 865,-1098"/>
<text text-anchor="middle" x="786" y="-1077.1" font-family="Courier,monospace" font-size="11.00">ElasticsearchDocument</text>
</g>
<!-- \\ElasticsearchModel -->
<g id="node4" class="node"><title>\\ElasticsearchModel</title>
<polygon fill="none" stroke="black" points="506,-1071 368,-1071 368,-1035 506,-1035 506,-1071"/>
<text text-anchor="middle" x="437" y="-1050.1" font-family="Courier,monospace" font-size="11.00">ElasticsearchModel</text>
</g>
<!-- \\ElasticsearchDocument&#45;&gt;\\ElasticsearchModel -->
<g id="edge5" class="edge"><title>\\ElasticsearchDocument&#45;&gt;\\ElasticsearchModel</title>
<path fill="none" stroke="black" d="M706.806,-1073.87C649.795,-1069.46 573.205,-1063.54 516.194,-1059.13"/>
<polygon fill="none" stroke="black" points="516.385,-1055.63 506.145,-1058.35 515.845,-1062.61 516.385,-1055.63"/>
</g>
<!-- \\HttpSourceModel -->
<g id="node21" class="node"><title>\\HttpSourceModel</title>
<ellipse fill="none" stroke="black" cx="99" cy="-1053" rx="98.9949" ry="18.3848"/>
<text text-anchor="middle" x="99" y="-1049.4" font-family="Times Roman,serif" font-size="14.00" fill="gray">\HttpSourceModel</text>
</g>
<!-- \\ElasticsearchModel&#45;&gt;\\HttpSourceModel -->
<g id="edge7" class="edge"><title>\\ElasticsearchModel&#45;&gt;\\HttpSourceModel</title>
<path fill="none" stroke="black" d="M367.785,-1053C321.88,-1053 260.671,-1053 208.26,-1053"/>
<polygon fill="none" stroke="black" points="208.243,-1049.5 198.243,-1053 208.243,-1056.5 208.243,-1049.5"/>
</g>
<!-- \\ElasticsearchSource -->
<g id="node5" class="node"><title>\\ElasticsearchSource</title>
<polygon fill="none" stroke="black" points="858,-828 714,-828 714,-792 858,-792 858,-828"/>
<text text-anchor="middle" x="786" y="-807.1" font-family="Courier,monospace" font-size="11.00">ElasticsearchSource</text>
</g>
<!-- \\HttpSource -->
<g id="node23" class="node"><title>\\HttpSource</title>
<ellipse fill="none" stroke="black" cx="437" cy="-326" rx="70.0036" ry="18.3848"/>
<text text-anchor="middle" x="437" y="-322.4" font-family="Times Roman,serif" font-size="14.00" fill="gray">\HttpSource</text>
</g>
<!-- \\ElasticsearchSource&#45;&gt;\\HttpSource -->
<g id="edge9" class="edge"><title>\\ElasticsearchSource&#45;&gt;\\HttpSource</title>
<path fill="none" stroke="black" d="M713.268,-804.638C699.264,-800.423 685.898,-793.667 676,-783 544.201,-640.956 741.401,-489.632 604,-353 580.416,-329.548 545.019,-321.561 512.874,-319.946"/>
<polygon fill="none" stroke="black" points="512.672,-316.439 502.571,-319.634 512.46,-323.435 512.672,-316.439"/>
</g>
<!-- \\ElasticsearchConnection -->
<g id="node6" class="node"><title>\\ElasticsearchConnection</title>
<polygon fill="none" stroke="black" points="872,-774 700,-774 700,-738 872,-738 872,-774"/>
<text text-anchor="middle" x="786" y="-753.1" font-family="Courier,monospace" font-size="11.00">ElasticsearchConnection</text>
</g>
<!-- \\HttpSourceConnection -->
<g id="node25" class="node"><title>\\HttpSourceConnection</title>
<ellipse fill="none" stroke="black" cx="437" cy="-272" rx="125.158" ry="18.3848"/>
<text text-anchor="middle" x="437" y="-268.4" font-family="Times Roman,serif" font-size="14.00" fill="gray">\HttpSourceConnection</text>
</g>
<!-- \\ElasticsearchConnection&#45;&gt;\\HttpSourceConnection -->
<g id="edge11" class="edge"><title>\\ElasticsearchConnection&#45;&gt;\\HttpSourceConnection</title>
<path fill="none" stroke="black" d="M699.94,-745.688C690.959,-741.629 682.688,-736.207 676,-729 544.201,-586.956 741.401,-435.632 604,-299 594.541,-289.594 583.181,-282.675 570.892,-277.658"/>
<polygon fill="none" stroke="black" points="571.925,-274.309 561.33,-274.182 569.533,-280.888 571.925,-274.309"/>
</g>
<!-- \\ElasticsearchIndicesStatus -->
<g id="node7" class="node"><title>\\ElasticsearchIndicesStatus</title>
<polygon fill="none" stroke="black" points="882,-1044 690,-1044 690,-1008 882,-1008 882,-1044"/>
<text text-anchor="middle" x="786" y="-1023.1" font-family="Courier,monospace" font-size="11.00">ElasticsearchIndicesStatus</text>
</g>
<!-- \\ElasticsearchIndicesStatus&#45;&gt;\\ElasticsearchModel -->
<g id="edge13" class="edge"><title>\\ElasticsearchIndicesStatus&#45;&gt;\\ElasticsearchModel</title>
<path fill="none" stroke="black" d="M689.71,-1033.45C635.14,-1037.67 567.704,-1042.89 516.222,-1046.87"/>
<polygon fill="none" stroke="black" points="515.848,-1043.39 506.147,-1047.65 516.388,-1050.37 515.848,-1043.39"/>
</g>
<!-- \\ElasticsearchTest -->
<g id="node8" class="node"><title>\\ElasticsearchTest</title>
<polygon fill="none" stroke="black" points="503,-936 371,-936 371,-900 503,-900 503,-936"/>
<text text-anchor="start" x="403" y="-923.433" font-family="Courier,monospace" font-size="11.00">«abstract»</text>
<text text-anchor="start" x="379.5" y="-910.233" font-family="Courier,monospace" font-size="11.00">ElasticsearchTest</text>
</g>
<!-- \\CakeTestCase -->
<g id="node28" class="node"><title>\\CakeTestCase</title>
<ellipse fill="none" stroke="black" cx="99" cy="-545" rx="82.0244" ry="18.3848"/>
<text text-anchor="middle" x="99" y="-541.4" font-family="Times Roman,serif" font-size="14.00" fill="gray">\CakeTestCase</text>
</g>
<!-- \\ElasticsearchTest&#45;&gt;\\CakeTestCase -->
<g id="edge15" class="edge"><title>\\ElasticsearchTest&#45;&gt;\\CakeTestCase</title>
<path fill="none" stroke="black" d="M370.611,-923.352C337.59,-922.727 298.712,-916.681 270,-896 158.274,-815.524 116.189,-641.764 103.572,-573.429"/>
<polygon fill="none" stroke="black" points="106.985,-572.633 101.793,-563.397 100.093,-573.854 106.985,-572.633"/>
</g>
<!-- \\ElasticsearchControllerTest -->
<g id="node9" class="node"><title>\\ElasticsearchControllerTest</title>
<polygon fill="none" stroke="black" points="885,-720 687,-720 687,-684 885,-684 885,-720"/>
<text text-anchor="middle" x="786" y="-699.1" font-family="Courier,monospace" font-size="11.00">ElasticsearchControllerTest</text>
</g>
<!-- \\ControllerTestCase -->
<g id="node30" class="node"><title>\\ControllerTestCase</title>
<ellipse fill="none" stroke="black" cx="437" cy="-218" rx="106.773" ry="18.3848"/>
<text text-anchor="middle" x="437" y="-214.4" font-family="Times Roman,serif" font-size="14.00" fill="gray">\ControllerTestCase</text>
</g>
<!-- \\ElasticsearchControllerTest&#45;&gt;\\ControllerTestCase -->
<g id="edge17" class="edge"><title>\\ElasticsearchControllerTest&#45;&gt;\\ControllerTestCase</title>
<path fill="none" stroke="black" d="M686.149,-683.854C682.488,-681.253 679.076,-678.315 676,-675 544.201,-532.956 741.401,-381.632 604,-245 590.167,-231.245 572.27,-222.81 553.349,-217.86"/>
<polygon fill="none" stroke="black" points="553.906,-214.397 543.377,-215.58 552.345,-221.221 553.906,-214.397"/>
</g>
<!-- \\ElasticsearchDocumentTest -->
<g id="node10" class="node"><title>\\ElasticsearchDocumentTest</title>
<polygon fill="none" stroke="black" points="878,-990 694,-990 694,-954 878,-954 878,-990"/>
<text text-anchor="middle" x="786" y="-969.1" font-family="Courier,monospace" font-size="11.00">ElasticsearchDocumentTest</text>
</g>
<!-- \\ElasticsearchDocumentTest&#45;&gt;\\ElasticsearchTest -->
<g id="edge19" class="edge"><title>\\ElasticsearchDocumentTest&#45;&gt;\\ElasticsearchTest</title>
<path fill="none" stroke="black" d="M693.391,-957.671C637.141,-948.967 566.209,-937.992 513.219,-929.793"/>
<polygon fill="none" stroke="black" points="513.624,-926.314 503.206,-928.244 512.553,-933.232 513.624,-926.314"/>
</g>
<!-- \\ElasticsearchIndicesStatusTest -->
<g id="node11" class="node"><title>\\ElasticsearchIndicesStatusTest</title>
<polygon fill="none" stroke="black" points="895,-936 677,-936 677,-900 895,-900 895,-936"/>
<text text-anchor="middle" x="786" y="-915.1" font-family="Courier,monospace" font-size="11.00">ElasticsearchIndicesStatusTest</text>
</g>
<!-- \\ElasticsearchIndicesStatusTest&#45;&gt;\\ElasticsearchTest -->
<g id="edge21" class="edge"><title>\\ElasticsearchIndicesStatusTest&#45;&gt;\\ElasticsearchTest</title>
<path fill="none" stroke="black" d="M676.053,-918C623.188,-918 561.122,-918 513.482,-918"/>
<polygon fill="none" stroke="black" points="513.238,-914.5 503.238,-918 513.237,-921.5 513.238,-914.5"/>
</g>
<!-- \\ElasticsearchSourceTest -->
<g id="node12" class="node"><title>\\ElasticsearchSourceTest</title>
<polygon fill="none" stroke="black" points="872,-666 700,-666 700,-630 872,-630 872,-666"/>
<text text-anchor="middle" x="786" y="-645.1" font-family="Courier,monospace" font-size="11.00">ElasticsearchSourceTest</text>
</g>
<!-- \\ElasticsearchSourceTest&#45;&gt;\\CakeTestCase -->
<g id="edge23" class="edge"><title>\\ElasticsearchSourceTest&#45;&gt;\\CakeTestCase</title>
<path fill="none" stroke="black" d="M699.94,-637.688C690.959,-633.629 682.688,-628.207 676,-621 544.201,-478.956 744.574,-324.366 604,-191 549.807,-139.586 511.648,-174.818 437,-172"/>
</g>
<!-- \\ElasticsearchHelperTest -->
<g id="node13" class="node"><title>\\ElasticsearchHelperTest</title>
<polygon fill="none" stroke="black" points="872,-612 700,-612 700,-576 872,-576 872,-612"/>
<text text-anchor="middle" x="786" y="-591.1" font-family="Courier,monospace" font-size="11.00">ElasticsearchHelperTest</text>
</g>
<!-- \\ElasticsearchHelperTest&#45;&gt;\\CakeTestCase -->
<g id="edge25" class="edge"><title>\\ElasticsearchHelperTest&#45;&gt;\\CakeTestCase</title>
<path fill="none" stroke="black" d="M699.832,-583.415C690.927,-579.396 682.703,-574.058 676,-567 558.825,-443.63 728.791,-306.66 604,-191 549.212,-140.221 511.648,-174.818 437,-172"/>
<path fill="none" stroke="black" d="M437,-172C362.352,-169.182 330.926,-147.776 270,-191 156.658,-271.411 115.438,-447.843 103.313,-516.691"/>
<polygon fill="none" stroke="black" points="99.8228,-516.343 101.611,-526.786 106.725,-517.507 99.8228,-516.343"/>
</g>
<!-- \\AllElasticsearchSourceTest -->
<g id="node14" class="node"><title>\\AllElasticsearchSourceTest</title>
<polygon fill="none" stroke="black" points="882,-558 690,-558 690,-522 882,-522 882,-558"/>
<text text-anchor="middle" x="786" y="-537.1" font-family="Courier,monospace" font-size="11.00">AllElasticsearchSourceTest</text>
</g>
<!-- \\PHPUnit_Framework_TestSuite -->
<g id="node36" class="node"><title>\\PHPUnit_Framework_TestSuite</title>
<ellipse fill="none" stroke="black" cx="437" cy="-126" rx="166.877" ry="18.3848"/>
<text text-anchor="middle" x="437" y="-122.4" font-family="Times Roman,serif" font-size="14.00" fill="gray">\PHPUnit_Framework_TestSuite</text>
</g>
<!-- \\AllElasticsearchSourceTest&#45;&gt;\\PHPUnit_Framework_TestSuite -->
<g id="edge27" class="edge"><title>\\AllElasticsearchSourceTest&#45;&gt;\\PHPUnit_Framework_TestSuite</title>
<path fill="none" stroke="black" d="M689.981,-524.128C684.88,-521.005 680.154,-517.326 676,-513 564.497,-396.876 718.449,-271.222 604,-158 597.147,-151.22 589.324,-145.649 580.892,-141.089"/>
<polygon fill="none" stroke="black" points="582.419,-137.94 571.898,-136.695 579.346,-144.23 582.419,-137.94"/>
</g>
<!-- \\ElasticsearchArticleFixture -->
<g id="node15" class="node"><title>\\ElasticsearchArticleFixture</title>
<polygon fill="none" stroke="black" points="885,-504 687,-504 687,-468 885,-468 885,-504"/>
<text text-anchor="middle" x="786" y="-483.1" font-family="Courier,monospace" font-size="11.00">ElasticsearchArticleFixture</text>
</g>
<!-- \\HttpSourceTestFixture -->
<g id="node38" class="node"><title>\\HttpSourceTestFixture</title>
<ellipse fill="none" stroke="black" cx="437" cy="-72" rx="123.951" ry="18.3848"/>
<text text-anchor="middle" x="437" y="-68.4" font-family="Times Roman,serif" font-size="14.00" fill="gray">\HttpSourceTestFixture</text>
</g>
<!-- \\ElasticsearchArticleFixture&#45;&gt;\\HttpSourceTestFixture -->
<g id="edge29" class="edge"><title>\\ElasticsearchArticleFixture&#45;&gt;\\HttpSourceTestFixture</title>
<path fill="none" stroke="black" d="M686.278,-467.733C682.582,-465.164 679.128,-462.267 676,-459 563.147,-341.152 721.498,-212.217 604,-99 594.309,-89.6625 582.738,-82.8026 570.269,-77.8325"/>
<polygon fill="none" stroke="black" points="571.17,-74.4384 560.575,-74.3904 568.828,-81.0349 571.17,-74.4384"/>
</g>
<!-- \\ElasticsearchHelper -->
<g id="node16" class="node"><title>\\ElasticsearchHelper</title>
<polygon fill="none" stroke="black" points="858,-450 714,-450 714,-414 858,-414 858,-450"/>
<text text-anchor="middle" x="786" y="-429.1" font-family="Courier,monospace" font-size="11.00">ElasticsearchHelper</text>
</g>
<!-- \\HtmlHelper -->
<g id="node40" class="node"><title>\\HtmlHelper</title>
<ellipse fill="none" stroke="black" cx="437" cy="-18" rx="70.0036" ry="18.3848"/>
<text text-anchor="middle" x="437" y="-14.4" font-family="Times Roman,serif" font-size="14.00" fill="gray">\HtmlHelper</text>
</g>
<!-- \\ElasticsearchHelper&#45;&gt;\\HtmlHelper -->
<g id="edge31" class="edge"><title>\\ElasticsearchHelper&#45;&gt;\\HtmlHelper</title>
<path fill="none" stroke="black" d="M783.439,-413.677C773.594,-350.671 732.082,-141.511 604,-45 579.133,-26.2623 546.222,-18.4136 516.194,-15.6486"/>
<polygon fill="none" stroke="black" points="516.369,-12.1521 506.136,-14.8974 515.848,-19.1327 516.369,-12.1521"/>
</g>
</g>
</svg>
